<svg width="30" height="30" viewBox="0 0 30 30" fill="none" xmlns="http://www.w3.org/2000/svg">
<path d="M29.3266 15C29.3266 23.0204 22.9943 29.5 15.2102 29.5C7.42601 29.5 1.09375 23.0204 1.09375 15C1.09375 6.97958 7.42601 0.5 15.2102 0.5C22.9943 0.5 29.3266 6.97958 29.3266 15Z" stroke="#696969"/>
<path d="M18.0193 13.7119H15.3744C15.1984 13.7119 15.0364 13.8082 14.9491 13.9636C14.8618 14.1187 14.8618 14.3098 14.9491 14.465C15.0364 14.6203 15.1984 14.7166 15.3744 14.7166H18.0193C18.1953 14.7166 18.3573 14.6203 18.4446 14.465C18.5319 14.3098 18.5319 14.1187 18.4446 13.9636C18.3573 13.8082 18.1953 13.7119 18.0193 13.7119Z" fill="#696969" stroke="#696969" stroke-width="0.1"/>
<path d="M18.0193 17.7833H15.3744C15.1984 17.7833 15.0364 17.8797 14.9491 18.035C14.8618 18.1902 14.8618 18.3812 14.9491 18.5364C15.0364 18.6917 15.1984 18.7881 15.3744 18.7881H18.0193C18.1953 18.7881 18.3573 18.6917 18.4446 18.5364C18.5319 18.3812 18.5319 18.1902 18.4446 18.035C18.3573 17.8797 18.1953 17.7833 18.0193 17.7833Z" fill="#696969" stroke="#696969" stroke-width="0.1"/>
<path d="M13.7386 12.8266C13.5763 12.7817 13.4037 12.825 13.2804 12.9397H13.2795L13.2648 12.9548L12.2898 13.9553L12.1964 13.8595L12.1964 13.8595L12.1962 13.8592C12.072 13.7335 11.8917 13.6846 11.7226 13.7314L11.7225 13.7314C11.5536 13.7783 11.4224 13.9135 11.377 14.0855L11.377 14.0855C11.3318 14.2576 11.3789 14.4415 11.5013 14.5687L11.5015 14.569L11.9423 15.0213C12.0343 15.1158 12.1592 15.169 12.2898 15.169C12.4204 15.169 12.5454 15.1158 12.6373 15.0213L13.9598 13.6642L13.96 13.664C14.0823 13.5367 14.1294 13.3528 14.0842 13.1808L14.0842 13.1807C14.0388 13.0087 13.9076 12.8735 13.7387 12.8266L13.7386 12.8266Z" fill="#696969" stroke="#696969" stroke-width="0.1"/>
<path d="M13.7386 16.8981C13.5763 16.8531 13.4037 16.8964 13.2804 17.0112H13.2795L13.2648 17.0263L12.2898 18.0268L12.1964 17.9309L12.1964 17.9309L12.1962 17.9307C12.072 17.805 11.8917 17.756 11.7226 17.8028L11.7225 17.8028C11.5536 17.8497 11.4224 17.9849 11.377 18.1569L11.377 18.157C11.3318 18.329 11.3789 18.5129 11.5013 18.6402L11.5015 18.6404L11.9423 19.0928C12.0343 19.1872 12.1592 19.2405 12.2898 19.2405C12.4204 19.2405 12.5454 19.1872 12.6373 19.0928L13.9598 17.7356L13.96 17.7354C14.0823 17.6082 14.1294 17.4242 14.0842 17.2522L14.0842 17.2522C14.0388 17.0802 13.9076 16.945 13.7387 16.8981L13.7386 16.8981Z" fill="#696969" stroke="#696969" stroke-width="0.1"/>
<path d="M18.9188 19.6624L18.9188 19.6624C19.1576 19.4175 19.292 19.085 19.2924 18.738V10.5953C19.292 10.2483 19.1576 9.91584 18.9188 9.67094L18.9188 9.67093C18.6802 9.42598 18.3569 9.28848 18.02 9.28808C18.02 9.28808 18.0199 9.28808 18.0199 9.28808H11.8487L11.8486 9.28808M18.9188 19.6624L10.9139 9.63604C11.1618 9.38158 11.498 9.23849 11.8486 9.23808V9.28808M18.9188 19.6624C18.6802 19.9073 18.3568 20.0448 18.0199 20.0452H11.8487C11.5117 20.0448 11.1883 19.9073 10.9498 19.6624L10.9497 19.6624C10.711 19.4175 10.5766 19.085 10.5762 18.7381M18.9188 19.6624L10.5762 18.7381M11.8486 9.28808C11.5117 9.28849 11.1883 9.42599 10.9498 9.67093L10.9497 9.67095C10.711 9.91581 10.5765 10.2483 10.5762 10.5952M11.8486 9.28808L10.5762 10.5952M10.5762 10.5952H10.5262L10.5762 10.5953V18.738L10.5762 18.7381M10.5762 10.5952L10.9139 19.6973C10.666 19.4429 10.5266 19.0978 10.5262 18.7381H10.5762M18.02 8.28331H18.02L11.8486 8.28331L11.8485 8.28331C11.2505 8.28404 10.6775 8.52814 10.2551 8.96174C9.83261 9.3952 9.59523 9.98264 9.59453 10.5952V10.5952L9.59453 18.7381L9.59453 18.7381C9.59523 19.3507 9.8326 19.9381 10.2551 20.3716C10.6775 20.8052 11.2505 21.0493 11.8485 21.05H11.8486H18.02H18.02C18.6181 21.0493 19.1911 20.8052 19.6135 20.3716C20.036 19.9381 20.2733 19.3507 20.274 18.7381V18.7381V10.5952V10.5952C20.2733 9.98263 20.036 9.39519 19.6135 8.96173C19.1911 8.52813 18.6181 8.28403 18.02 8.28331Z" fill="#696969" stroke="#696969" stroke-width="0.1"/>
<path d="M13.6088 11.0976H16.2537C16.4297 11.0976 16.5916 11.0012 16.679 10.8459C16.7663 10.6907 16.7663 10.4997 16.679 10.3445C16.5916 10.1892 16.4297 10.0928 16.2537 10.0928H13.6088C13.4327 10.0928 13.2708 10.1892 13.1834 10.3445C13.0961 10.4997 13.0961 10.6907 13.1834 10.8459C13.2708 11.0012 13.4327 11.0976 13.6088 11.0976Z" fill="#696969" stroke="#696969" stroke-width="0.1"/>
</svg>
