<svg width="40" height="40" viewBox="0 0 40 40" fill="none" xmlns="http://www.w3.org/2000/svg">
<path fill-rule="evenodd" clip-rule="evenodd" d="M38.7451 0.185139C38.9352 0.295889 39.0921 0.450541 39.2009 0.634432C39.3098 0.818323 39.367 1.02536 39.3671 1.23591V38.3219C39.3671 38.6498 39.2288 38.9642 38.9828 39.1961C38.7367 39.4279 38.4029 39.5581 38.0549 39.5581H30.1814C29.8334 39.5581 29.4996 39.4279 29.2536 39.1961C29.0075 38.9642 28.8692 38.6498 28.8692 38.3219V34.6133H26.2447V38.3219C26.2447 38.6498 26.1065 38.9642 25.8604 39.1961C25.6143 39.4279 25.2805 39.5581 24.9325 39.5581H1.31224C0.96421 39.5581 0.630437 39.4279 0.384345 39.1961C0.138253 38.9642 0 38.6498 0 38.3219V24.7237C0.000209031 24.4644 0.0869963 24.2117 0.248078 24.0013C0.40916 23.791 0.636377 23.6338 0.89757 23.5518L15.7468 18.8889V11.1255C15.7468 10.8961 15.8146 10.6713 15.9425 10.4761C16.0705 10.2809 16.2535 10.1231 16.4712 10.0204L37.467 0.130747C37.6672 0.0363153 37.8898 -0.0082613 38.1136 0.00125964C38.3373 0.0107806 38.5547 0.0740822 38.7451 0.185139ZM15.7468 21.4948L2.62447 25.6138V37.0857H15.7468V21.4948ZM18.3713 37.0857H23.6203V33.3771C23.6203 33.0493 23.7585 32.7348 24.0046 32.503C24.2507 32.2712 24.5845 32.1409 24.9325 32.1409H30.1814C30.5295 32.1409 30.8632 32.2712 31.1093 32.503C31.3554 32.7348 31.4937 33.0493 31.4937 33.3771V37.0857H36.7426V3.23608L18.3713 11.8895V37.0857Z" fill="#00778B"/>
<path d="M5.24902 27.1964H7.8735V29.6688H5.24902V27.1964ZM10.498 27.1964H13.1224V29.6688H10.498V27.1964ZM5.24902 32.1412H7.8735V34.6136H5.24902V32.1412ZM10.498 32.1412H13.1224V34.6136H10.498V32.1412ZM20.9959 22.2516H23.6203V24.724H20.9959V22.2516ZM26.2448 22.2516H28.8693V24.724H26.2448V22.2516ZM20.9959 27.1964H23.6203V29.6688H20.9959V27.1964ZM26.2448 27.1964H28.8693V29.6688H26.2448V27.1964ZM31.4938 22.2516H34.1182V24.724H31.4938V22.2516ZM31.4938 27.1964H34.1182V29.6688H31.4938V27.1964ZM20.9959 17.3068H23.6203V19.7792H20.9959V17.3068ZM26.2448 17.3068H28.8693V19.7792H26.2448V17.3068ZM31.4938 17.3068H34.1182V19.7792H31.4938V17.3068ZM20.9959 12.362H23.6203V14.8344H20.9959V12.362ZM26.2448 12.362H28.8693V14.8344H26.2448V12.362ZM31.4938 12.362H34.1182V14.8344H31.4938V12.362ZM31.4938 7.41718H34.1182V9.88958H31.4938V7.41718Z" fill="#00778B"/>
</svg>
