<svg width="14" height="17" viewBox="0 0 14 17" fill="none" xmlns="http://www.w3.org/2000/svg">
<path d="M4.30775 5.92307C4.45056 5.92307 4.58752 5.9798 4.6885 6.08078C4.78948 6.18176 4.84621 6.31872 4.84621 6.46153V12.9231C4.84621 13.0659 4.78948 13.2028 4.6885 13.3038C4.58752 13.4048 4.45056 13.4615 4.30775 13.4615C4.16494 13.4615 4.02798 13.4048 3.927 13.3038C3.82602 13.2028 3.76929 13.0659 3.76929 12.9231V6.46153C3.76929 6.31872 3.82602 6.18176 3.927 6.08078C4.02798 5.9798 4.16494 5.92307 4.30775 5.92307ZM7.00006 5.92307C7.14287 5.92307 7.27983 5.9798 7.38081 6.08078C7.48179 6.18176 7.53852 6.31872 7.53852 6.46153V12.9231C7.53852 13.0659 7.48179 13.2028 7.38081 13.3038C7.27983 13.4048 7.14287 13.4615 7.00006 13.4615C6.85725 13.4615 6.72029 13.4048 6.61931 13.3038C6.51833 13.2028 6.4616 13.0659 6.4616 12.9231V6.46153C6.4616 6.31872 6.51833 6.18176 6.61931 6.08078C6.72029 5.9798 6.85725 5.92307 7.00006 5.92307ZM10.2308 6.46153C10.2308 6.31872 10.1741 6.18176 10.0731 6.08078C9.97213 5.9798 9.83517 5.92307 9.69236 5.92307C9.54956 5.92307 9.4126 5.9798 9.31161 6.08078C9.21063 6.18176 9.1539 6.31872 9.1539 6.46153V12.9231C9.1539 13.0659 9.21063 13.2028 9.31161 13.3038C9.4126 13.4048 9.54956 13.4615 9.69236 13.4615C9.83517 13.4615 9.97213 13.4048 10.0731 13.3038C10.1741 13.2028 10.2308 13.0659 10.2308 12.9231V6.46153Z" fill="#A3A3A3"/>
<path fill-rule="evenodd" clip-rule="evenodd" d="M14 3.23077C14 3.51639 13.8865 3.79031 13.6846 3.99227C13.4826 4.19423 13.2087 4.30769 12.9231 4.30769H12.3846V14C12.3846 14.5712 12.1577 15.1191 11.7538 15.523C11.3498 15.9269 10.802 16.1538 10.2308 16.1538H3.76923C3.198 16.1538 2.65016 15.9269 2.24623 15.523C1.84231 15.1191 1.61538 14.5712 1.61538 14V4.30769H1.07692C0.791305 4.30769 0.517386 4.19423 0.315423 3.99227C0.113461 3.79031 0 3.51639 0 3.23077V2.15385C0 1.86823 0.113461 1.59431 0.315423 1.39235C0.517386 1.19038 0.791305 1.07692 1.07692 1.07692H4.84615C4.84615 0.791305 4.95962 0.517386 5.16158 0.315423C5.36354 0.113461 5.63746 0 5.92308 0L8.07692 0C8.36254 0 8.63646 0.113461 8.83842 0.315423C9.04039 0.517386 9.15385 0.791305 9.15385 1.07692H12.9231C13.2087 1.07692 13.4826 1.19038 13.6846 1.39235C13.8865 1.59431 14 1.86823 14 2.15385V3.23077ZM2.81938 4.30769L2.69231 4.37123V14C2.69231 14.2856 2.80577 14.5595 3.00773 14.7615C3.20969 14.9635 3.48361 15.0769 3.76923 15.0769H10.2308C10.5164 15.0769 10.7903 14.9635 10.9923 14.7615C11.1942 14.5595 11.3077 14.2856 11.3077 14V4.37123L11.1806 4.30769H2.81938ZM1.07692 3.23077V2.15385H12.9231V3.23077H1.07692Z" fill="#A3A3A3"/>
</svg>
