<svg width="48" height="44" viewBox="0 0 48 44" fill="none" xmlns="http://www.w3.org/2000/svg">
<path d="M25.3744 0.784267L33.1768 10.2793C33.4839 10.6503 33.6262 11.1193 33.5791 11.6001C33.5307 12.081 33.3004 12.5121 32.9279 12.8173C32.1952 13.4228 31.0006 13.3083 30.3909 12.5703L25.783 6.9638V25.9045C25.783 26.8989 24.9744 27.7063 23.9813 27.7063C22.9855 27.7063 22.176 26.8993 22.176 25.9045L22.1763 6.96463L17.5726 12.5702C17.2272 12.9892 16.7198 13.2273 16.1772 13.2273C15.7592 13.2273 15.3516 13.0795 15.0301 12.8135C14.6601 12.5106 14.4302 12.0775 14.3837 11.5971C14.3369 11.1178 14.4796 10.6498 14.7861 10.2789L22.5864 0.782098C22.5864 0.782098 23.1235 1.02306e-07 23.9818 1.02306e-07C24.8896 -0.000326979 25.3743 0.78374 25.3743 0.78374L25.3744 0.784267Z" fill="#E7E7E7"/>
<path d="M46.4474 25.5254L46.435 25.5176C46.435 25.5166 46.434 25.515 46.4308 25.515L36.1494 18.46C35.8465 18.253 35.4935 18.1431 35.1294 18.1431H30.0718C29.0788 18.1431 28.2688 18.9517 28.2688 19.946C28.2688 20.9411 29.0791 21.7497 30.0718 21.7497H34.5701L39.6099 25.2078L32.4921 25.2081C31.496 25.2081 30.6891 26.0167 30.6891 27.0108V31.163H17.2743V27.0108C17.2743 26.0167 16.4667 25.2081 15.4726 25.2081H8.274L13.2296 21.75H18.3697C19.3628 21.75 20.1714 20.9414 20.1714 19.9464C20.1714 18.952 19.3629 18.1434 18.3697 18.1434H12.6644C12.2908 18.1434 11.9343 18.2569 11.6311 18.4685L1.50376 25.535C0.714791 26.0855 0.734419 27.0108 0.734419 27.0108V41.732C0.734419 42.7278 1.54301 43.5373 2.53739 43.5373H45.4256C46.4207 43.5373 47.2282 42.7278 47.2282 41.732V27.0435C47.2279 26.1273 46.4471 25.5251 46.4471 25.5251L46.4474 25.5254ZM13.6681 28.8158V32.967C13.6681 33.9611 14.4783 34.77 15.4737 34.77H32.4926C33.4857 34.77 34.2953 33.9611 34.2953 32.967V28.8158H43.6237V39.9287H4.34042V28.8158H13.6681Z" fill="#E7E7E7"/>
</svg>
