<svg width="705" height="298" viewBox="0 0 705 298" fill="none" xmlns="http://www.w3.org/2000/svg">
<g clip-path="url(#clip0_6_211)">
<path fill-rule="evenodd" clip-rule="evenodd" d="M336.223 -3.8147e-06C206.009 -3.8147e-06 100.259 93.1399 100.259 208.216V257.832H572.188V208.216C572.188 93.1399 466.635 -3.8147e-06 336.223 -3.8147e-06Z" fill="#A5DEF5"/>
<path fill-rule="evenodd" clip-rule="evenodd" d="M111.702 236.07C111.702 210.653 133.996 202.122 150.766 203.341C167.339 204.56 167.734 186.628 183.517 178.097C200.09 169.045 220.608 174.964 237.181 167.304C251.386 160.688 255.924 144.846 267.367 134.748C276.048 127.262 288.281 123.432 300.513 123.78C312.548 123.954 324.385 127.959 334.25 134.226C337.999 136.489 341.55 139.275 343.918 142.756C346.088 145.89 347.272 149.372 348.455 152.854C352.401 165.563 354.769 178.446 355.558 191.503C356.15 202.122 355.558 213.264 349.836 222.665C338.591 240.423 313.732 236.07 294.199 236.07C271.905 236.07 249.808 236.07 227.514 236.07C189.633 236.07 151.753 236.07 114.069 236.07C113.28 236.07 112.491 236.07 111.702 236.07Z" fill="#FEFEFE"/>
<path fill-rule="evenodd" clip-rule="evenodd" d="M469.397 180.187V179.838C471.37 167.304 485.773 156.684 499.583 154.943C514.775 153.028 530.953 160.514 537.661 172.875C542.791 182.276 542.791 194.462 551.472 201.6C556.799 206.126 564.691 207.867 570.215 212.046C575.345 216.05 578.304 222.143 579.29 228.236C580.474 234.155 579.882 240.423 579.29 246.516C561.929 246.516 542.199 244.601 525.034 247.561C507.475 250.52 489.127 248.953 471.37 247.735C470.976 232.937 470.384 218.139 469.989 203.341C469.792 196.029 468.214 187.498 469.397 180.187Z" fill="#FEFEFE"/>
<path fill-rule="evenodd" clip-rule="evenodd" d="M293.608 84.4352H197.525C201.668 79.5606 205.614 75.2083 213.111 75.3824C215.676 75.3824 218.241 75.9047 220.411 75.2083C221.99 74.5119 223.173 73.4674 224.16 72.4228C234.814 62.3254 248.624 48.572 264.211 61.9772C267.17 64.4145 269.34 68.0705 273.089 69.115C274.47 69.4632 275.851 69.4632 277.232 69.6373C285.518 70.856 292.226 77.1233 293.608 84.4352Z" fill="#FEFEFE"/>
<path fill-rule="evenodd" clip-rule="evenodd" d="M310.378 51.3575C311.956 47.7016 316.099 44.9161 320.637 44.742C321.426 44.742 322.215 44.742 323.004 44.5679C324.188 44.2197 324.78 43.1751 325.569 42.3047C327.937 39.3451 331.094 36.5596 335.039 35.515C338.985 34.4705 343.918 35.515 346.285 38.4746C347.864 40.5637 348.258 43.5233 350.823 44.3938C351.415 44.5679 352.204 44.5679 352.796 44.742C355.755 45.4383 359.307 48.7461 358.32 51.3575H310.378Z" fill="#FEFEFE"/>
<path fill-rule="evenodd" clip-rule="evenodd" d="M474.132 119.08C475.908 114.553 481.038 111.246 486.562 111.072C487.548 110.897 488.535 111.072 489.521 110.723C490.902 110.201 491.889 108.982 492.678 107.938C495.44 104.282 499.386 100.974 504.319 99.7554C509.054 98.3627 514.972 99.5814 517.932 103.411C519.708 105.849 520.497 109.331 523.653 110.375C524.245 110.723 525.034 110.723 525.824 110.897C529.375 111.768 533.913 115.946 532.532 119.08H474.132Z" fill="#FEFEFE"/>
<path fill-rule="evenodd" clip-rule="evenodd" d="M149.977 136.141C151.555 132.137 156.093 129.351 160.631 129.177C161.617 129.177 162.407 129.177 163.393 129.003C164.577 128.481 165.169 127.436 165.958 126.566C168.325 123.432 171.679 120.473 176.02 119.428C180.163 118.383 185.293 119.428 187.66 122.562C189.239 124.651 189.831 127.784 192.593 128.655C193.185 128.829 193.974 129.003 194.566 129.177C197.722 129.874 201.471 133.355 200.484 136.141H149.977Z" fill="#FEFEFE"/>
<path fill-rule="evenodd" clip-rule="evenodd" d="M275.456 166.781H231.657C223.568 166.781 215.676 169.567 209.955 174.616L131.431 243.905H258.489L275.456 166.781Z" fill="#05668A"/>
<path fill-rule="evenodd" clip-rule="evenodd" d="M422.244 166.781H466.241C474.33 166.781 482.024 169.567 487.746 174.616L566.269 243.905H439.211L422.244 166.781Z" fill="#05668A"/>
<path fill-rule="evenodd" clip-rule="evenodd" d="M515.169 236.245H191.014L284.335 153.898C289.662 149.198 296.962 146.587 304.459 146.587H308.405C315.902 146.587 323.202 143.975 328.529 139.275L351.809 118.732C352.204 118.383 352.599 117.861 353.19 117.687C355.558 115.772 358.123 114.379 361.082 113.335C364.239 112.116 367.79 111.42 371.342 111.42C371.539 111.42 371.736 111.42 371.933 111.42C379.431 111.42 386.731 114.031 392.058 118.732L457.954 176.879L515.169 236.245Z" fill="#0077A2"/>
<path fill-rule="evenodd" clip-rule="evenodd" d="M371.342 111.42V236.245H219.819L353.191 117.687C355.558 115.772 358.123 114.379 361.082 113.335C364.239 112.116 367.79 111.42 371.342 111.42Z" fill="#05668A"/>
<path fill-rule="evenodd" clip-rule="evenodd" d="M454.6 135.27H451.049L450.654 154.421C452.035 153.028 453.417 151.809 454.798 150.417L454.6 135.27Z" fill="#BEE6F4"/>
<path fill-rule="evenodd" clip-rule="evenodd" d="M450.654 154.421L449.668 199.163H455.981L454.798 150.417C453.417 151.809 452.035 153.028 450.654 154.421Z" fill="#FEFEFE"/>
<path fill-rule="evenodd" clip-rule="evenodd" d="M459.927 151.287C459.138 145.02 456.376 139.449 452.627 135.27L457.757 168.522C460.125 163.474 460.914 157.38 459.927 151.287Z" fill="#FEFEFE"/>
<path fill-rule="evenodd" clip-rule="evenodd" d="M464.662 121.517C459.138 125.347 454.995 130.222 452.627 135.27L482.616 114.553C476.5 115.424 470.187 117.687 464.662 121.517Z" fill="#FEFEFE"/>
<path fill-rule="evenodd" clip-rule="evenodd" d="M433.095 132.833C439.803 135.27 446.511 135.967 452.627 135.27L417.312 122.562C421.257 126.914 426.584 130.57 433.095 132.833Z" fill="#FEFEFE"/>
<path fill-rule="evenodd" clip-rule="evenodd" d="M452.233 138.056C450.457 137.882 449.273 136.489 449.273 134.922C449.471 133.355 451.049 132.137 452.825 132.311C454.798 132.485 455.981 133.878 455.784 135.445C455.784 137.011 454.206 138.23 452.233 138.056Z" fill="#FEFEFE"/>
<path fill-rule="evenodd" clip-rule="evenodd" d="M452.43 136.663C451.641 136.489 451.049 135.793 451.049 135.096C451.049 134.4 451.838 133.704 452.825 133.878C453.614 133.878 454.206 134.574 454.206 135.27C454.206 136.141 453.417 136.663 452.43 136.663Z" fill="#0076BC"/>
<path fill-rule="evenodd" clip-rule="evenodd" d="M454.995 103.063C465.452 103.76 475.119 108.286 481.432 115.424L482.222 114.902C475.711 107.59 465.846 102.889 454.995 102.193V103.063Z" fill="#FEFEFE"/>
<path fill-rule="evenodd" clip-rule="evenodd" d="M447.695 103.411C448.879 103.237 450.062 103.063 451.444 103.063V102.193C450.062 102.193 448.879 102.367 447.498 102.541L447.695 103.411Z" fill="#FEFEFE"/>
<path fill-rule="evenodd" clip-rule="evenodd" d="M423.033 154.247C420.271 150.765 418.298 146.761 417.114 142.408C416.917 141.538 416.72 140.667 416.522 139.623C415.536 134.052 416.522 128.481 418.693 123.606L417.706 123.258C415.536 128.307 414.549 134.052 415.536 139.797C415.733 140.667 415.931 141.712 416.128 142.582C417.312 147.109 419.482 151.113 422.244 154.769L423.033 154.247Z" fill="#FEFEFE"/>
<path fill-rule="evenodd" clip-rule="evenodd" d="M427.176 158.251C426.387 157.554 425.598 156.858 424.809 156.162L424.217 156.684C424.809 157.38 425.598 158.251 426.387 158.773L427.176 158.251Z" fill="#FEFEFE"/>
<path fill-rule="evenodd" clip-rule="evenodd" d="M483.405 152.332C478.473 159.295 470.384 164.692 460.914 166.607C459.73 166.781 458.743 166.955 457.56 167.13L457.757 168C458.941 167.826 459.927 167.652 461.111 167.478C470.976 165.389 479.262 159.992 484.392 152.854L483.405 152.332Z" fill="#FEFEFE"/>
<path fill-rule="evenodd" clip-rule="evenodd" d="M486.562 147.283C485.97 148.153 485.576 149.024 484.984 149.894L485.97 150.242C486.562 149.372 486.957 148.502 487.351 147.457L486.562 147.283Z" fill="#FEFEFE"/>
<path fill-rule="evenodd" clip-rule="evenodd" d="M362.266 186.976C339.183 200.033 318.269 216.746 300.513 236.07H272.694C295.58 212.394 326.753 194.81 362.266 186.976Z" fill="#00AC5A"/>
<path fill-rule="evenodd" clip-rule="evenodd" d="M437.83 185.409C411.393 197.596 387.717 215.005 368.383 236.07H334.448C354.769 213.787 379.431 195.507 407.052 182.45C417.706 182.624 427.966 183.668 437.83 185.409Z" fill="#00AC5A"/>
<path fill-rule="evenodd" clip-rule="evenodd" d="M483.011 199.163C465.451 208.912 449.668 221.447 436.252 236.07H402.317C419.087 217.791 439.409 202.47 462.097 191.329C469.2 193.418 476.303 196.203 483.011 199.163Z" fill="#00AC5A"/>
<path fill-rule="evenodd" clip-rule="evenodd" d="M519.708 221.447C514.183 225.973 509.054 230.848 504.121 236.07H470.187C479.657 225.973 490.311 216.746 501.754 209.086C508.067 212.916 513.986 217.094 519.708 221.447Z" fill="#00AC5A"/>
<path fill-rule="evenodd" clip-rule="evenodd" d="M407.052 182.45C379.431 195.507 354.769 213.787 334.448 236.07H300.513C318.269 216.746 339.183 200.033 362.266 186.976C375.682 184.017 389.887 182.45 404.29 182.45C405.276 182.45 406.263 182.45 407.052 182.45Z" fill="#58BA66"/>
<path fill-rule="evenodd" clip-rule="evenodd" d="M462.097 191.329C439.409 202.47 419.087 217.791 402.317 236.07H368.383C387.717 215.005 411.393 197.596 437.83 185.409C446.117 186.802 454.206 188.717 462.097 191.329Z" fill="#58BA66"/>
<path fill-rule="evenodd" clip-rule="evenodd" d="M501.754 209.086C490.311 216.746 479.657 225.973 470.187 236.07H436.252C449.668 221.447 465.451 208.912 483.011 199.163C489.521 202.122 495.835 205.43 501.754 209.086Z" fill="#58BA66"/>
<path fill-rule="evenodd" clip-rule="evenodd" d="M535.886 236.07H504.121C509.054 230.848 514.183 225.973 519.708 221.447C525.429 225.973 530.756 231.022 535.886 236.07Z" fill="#58BA66"/>
<path fill-rule="evenodd" clip-rule="evenodd" d="M352.599 236.07H164.577C187.068 212.742 220.806 197.77 258.489 197.77C296.172 197.77 329.91 212.742 352.599 236.07Z" fill="#00AC5A"/>
<path fill-rule="evenodd" clip-rule="evenodd" d="M704.967 336H0.032959V236.07H704.967V336Z" fill="#70C066"/>
<path fill-rule="evenodd" clip-rule="evenodd" d="M113.872 253.306C113.872 256.265 104.599 258.703 93.3535 258.703C82.1077 258.703 73.0321 256.265 73.0321 253.306C73.0321 250.172 82.1077 247.735 93.3535 247.735C104.599 247.735 113.872 250.172 113.872 253.306Z" fill="#58BA66"/>
<path fill-rule="evenodd" clip-rule="evenodd" d="M510.237 202.645C510.237 202.645 511.618 216.05 514.775 220.576C517.932 225.277 517.932 246.168 517.932 246.168H528.191C528.191 246.168 522.864 230.848 523.653 221.969C524.443 213.264 533.321 194.114 533.321 194.114L528.191 194.636L519.116 218.835C519.116 218.835 515.17 213.612 514.775 207.171C514.578 200.73 514.775 198.989 514.775 198.989L510.237 202.645Z" fill="#FEFEFE"/>
<path fill-rule="evenodd" clip-rule="evenodd" d="M535.886 198.815C519.51 204.734 499.978 204.56 484.589 198.466C488.93 203.341 496.821 206.126 502.937 207.867C512.802 210.479 523.259 210.131 533.321 208.564C536.872 208.041 540.423 207.345 543.777 205.952C550.485 203.167 555.615 197.422 557.391 190.806C558.377 186.976 558.377 182.798 557.193 179.142C553.445 188.195 546.145 195.855 535.886 198.815Z" fill="#58BA66"/>
<path fill-rule="evenodd" clip-rule="evenodd" d="M535.886 198.815C546.145 195.855 553.445 188.195 557.193 179.142C556.404 176.356 555.023 173.919 553.248 171.656C550.288 168.174 546.342 165.389 544.369 161.559C539.832 153.376 537.464 145.368 527.402 141.538C520.497 138.752 513.591 140.667 507.87 144.846C502.148 149.198 498.4 155.465 497.808 162.255C497.61 163.996 497.61 165.737 497.019 167.478C495.835 170.263 493.27 172.352 490.902 174.267C485.181 178.968 480.051 185.409 481.432 192.373C481.827 194.636 483.011 196.725 484.589 198.466C499.978 204.56 519.51 204.734 535.886 198.815Z" fill="#70C066"/>
<path fill-rule="evenodd" clip-rule="evenodd" d="M131.431 241.99C131.431 244.079 125.513 245.646 118.015 245.646C110.518 245.646 104.402 244.079 104.402 241.99C104.402 240.075 110.518 238.334 118.015 238.334C125.513 238.334 131.431 240.075 131.431 241.99Z" fill="#58BA66"/>
<path fill-rule="evenodd" clip-rule="evenodd" d="M627.233 273.849C627.233 276.982 617.96 279.42 606.714 279.42C595.469 279.42 586.393 276.982 586.393 273.849C586.393 270.889 595.469 268.278 606.714 268.278C617.96 268.278 627.233 270.889 627.233 273.849Z" fill="#58BA66"/>
<path fill-rule="evenodd" clip-rule="evenodd" d="M588.958 255.047C588.958 256.962 583.039 258.703 575.936 258.703C568.637 258.703 562.915 256.962 562.915 255.047C562.915 253.132 568.637 251.565 575.936 251.565C583.039 251.565 588.958 253.132 588.958 255.047Z" fill="#58BA66"/>
<path fill-rule="evenodd" clip-rule="evenodd" d="M576.331 279.942H505.897C502.346 279.942 499.583 277.505 499.583 274.371V274.023C499.583 270.889 502.346 268.452 505.897 268.452H576.331C579.685 268.452 582.447 270.889 582.447 274.023V274.371C582.447 277.505 579.685 279.942 576.331 279.942Z" fill="#58BA66"/>
<path fill-rule="evenodd" clip-rule="evenodd" d="M567.453 292.477C567.453 294.914 566.466 297.177 564.69 298.918C562.717 300.833 559.561 302.226 556.404 302.226H555.615C552.655 302.226 549.893 303.27 547.92 305.011C545.75 306.926 544.566 309.364 544.566 311.975C544.566 317.546 539.634 321.898 533.518 321.898H366.409C363.45 321.898 360.688 320.854 358.715 318.939C356.545 317.198 355.361 314.761 355.361 311.975C355.361 306.578 350.428 302.226 344.312 302.226H302.091C298.935 302.226 296.172 301.181 294.199 299.266C294.002 299.266 293.805 299.092 293.608 298.918C292.029 297.177 290.845 294.914 290.845 292.477C290.845 286.906 295.975 282.553 302.091 282.553H320.834C323.794 282.553 326.556 281.509 328.726 279.768C330.699 277.853 331.883 275.416 331.883 272.804C331.883 267.407 336.815 262.881 343.129 262.881H484.786C487.943 262.881 490.705 264.1 492.678 265.84C494.651 267.581 496.032 270.019 496.032 272.804C496.032 278.201 500.964 282.553 507.08 282.553H556.404C562.52 282.553 567.453 286.906 567.453 292.477Z" fill="#0077A2"/>
<path fill-rule="evenodd" clip-rule="evenodd" d="M564.69 298.918C562.717 300.833 559.561 302.226 556.404 302.226H555.615C552.655 302.226 549.893 303.27 547.92 305.011C545.75 306.926 544.566 309.364 544.566 311.975C544.566 317.546 539.634 321.898 533.518 321.898H366.409C363.45 321.898 360.688 320.854 358.715 318.939C356.545 317.198 355.361 314.761 355.361 311.975C355.361 306.578 350.428 302.226 344.312 302.226H302.091C298.934 302.226 296.172 301.181 294.199 299.266C294.002 299.266 293.805 299.092 293.608 298.918C295.778 296.829 298.737 295.436 302.091 295.436H320.834C323.794 295.436 326.556 294.392 328.726 292.651C330.699 290.91 331.883 288.473 331.883 285.687C331.883 280.29 336.815 275.938 343.128 275.938H484.786C487.943 275.938 490.705 276.982 492.678 278.723C494.651 280.464 496.032 282.902 496.032 285.687C496.032 291.084 500.964 295.436 507.08 295.436H556.404C559.561 295.436 562.717 296.829 564.69 298.918Z" fill="#0091C2"/>
<path fill-rule="evenodd" clip-rule="evenodd" d="M489.324 277.853H488.732C488.732 277.853 488.732 278.027 488.535 278.201C488.14 278.549 487.351 279.072 486.167 279.42C482.813 280.638 476.5 281.509 469.397 281.509C463.873 281.509 458.941 280.987 455.389 280.29C453.614 279.768 452.035 279.42 451.246 278.897C450.654 278.723 450.457 278.375 450.26 278.201C450.062 278.027 450.062 277.853 450.062 277.853C450.062 277.679 450.062 277.505 450.26 277.331C450.654 276.982 451.246 276.46 452.43 276.112C455.784 274.893 462.097 274.197 469.397 274.197C474.922 274.197 479.854 274.545 483.405 275.416C485.181 275.764 486.562 276.286 487.548 276.634C487.943 276.982 488.338 277.156 488.535 277.331C488.732 277.505 488.732 277.679 488.732 277.853H489.324H490.113C490.113 277.331 489.916 276.808 489.521 276.46C488.93 275.938 487.943 275.416 486.759 275.067C483.011 273.675 476.697 272.978 469.397 272.978C463.676 272.978 458.743 273.326 454.995 274.197C453.219 274.545 451.641 275.067 450.457 275.59C450.062 275.938 449.471 276.112 449.076 276.46C448.879 276.808 448.681 277.331 448.681 277.853C448.681 278.201 448.879 278.723 449.076 279.072C449.865 279.594 450.654 280.116 451.838 280.638C455.587 281.857 462.097 282.727 469.397 282.727C474.922 282.727 480.051 282.205 483.8 281.335C485.576 280.987 487.154 280.464 488.14 279.942C488.732 279.768 489.127 279.42 489.521 279.072C489.916 278.723 490.113 278.201 490.113 277.853H489.324Z" fill="#FEFEFE"/>
<path fill-rule="evenodd" clip-rule="evenodd" d="M498.005 282.553C490.705 283.946 480.643 284.817 469.397 284.817C458.349 284.817 448.287 283.946 441.184 282.553C437.436 281.857 434.674 281.161 432.701 280.29C431.714 279.768 430.925 279.246 430.53 278.897C430.136 278.549 429.938 278.201 429.938 277.853C429.938 277.505 430.136 277.157 430.53 276.634C431.319 275.938 432.898 275.067 435.265 274.371C442.171 272.282 454.798 270.715 469.397 270.715C477.684 270.715 485.378 271.237 491.692 272.108C492.086 272.108 492.481 271.934 492.481 271.586C492.678 271.237 492.284 270.889 491.889 270.889C485.576 270.019 477.684 269.496 469.397 269.496C458.152 269.496 448.09 270.367 440.79 271.76C437.041 272.456 434.082 273.326 432.109 274.197C430.925 274.719 430.136 275.241 429.544 275.764C428.952 276.46 428.557 276.982 428.557 277.853C428.557 278.549 428.952 279.246 429.544 279.768C430.53 280.812 432.306 281.509 434.674 282.379C441.973 284.643 454.798 286.035 469.397 286.035C480.643 286.035 490.902 285.165 498.4 283.772C498.794 283.598 498.992 283.25 498.794 282.902C498.794 282.727 498.4 282.379 498.005 282.553Z" fill="#FEFEFE"/>
<path fill-rule="evenodd" clip-rule="evenodd" d="M445.722 288.124C433.095 287.428 422.441 286.035 414.747 284.12C410.998 283.25 407.841 282.031 405.868 280.987C404.882 280.464 404.093 279.942 403.698 279.246C403.304 278.723 403.106 278.201 403.106 277.853C403.106 277.331 403.106 276.808 403.698 276.286C404.29 275.416 405.868 274.545 408.039 273.675C414.549 270.889 426.782 268.626 441.776 267.581C442.171 267.581 442.565 267.407 442.565 267.059C442.368 266.711 442.171 266.363 441.776 266.363C430.136 267.233 420.271 268.626 413.168 270.541C409.617 271.586 406.855 272.63 404.882 273.675C403.896 274.371 403.106 274.893 402.514 275.59C401.923 276.286 401.528 276.982 401.528 277.853C401.528 278.549 401.923 279.42 402.514 280.116C403.698 281.335 405.474 282.379 408.039 283.424C415.536 286.209 429.149 288.473 445.525 289.343C445.919 289.343 446.314 289.169 446.314 288.821C446.314 288.473 446.117 288.124 445.722 288.124Z" fill="#FEFEFE"/>
<path fill-rule="evenodd" clip-rule="evenodd" d="M342.142 289.343H374.696C375.091 289.343 375.288 289.169 375.288 288.821C375.288 288.473 375.091 288.124 374.696 288.124H342.142C341.748 288.124 341.55 288.473 341.55 288.821C341.55 289.169 341.748 289.343 342.142 289.343Z" fill="#FEFEFE"/>
<path fill-rule="evenodd" clip-rule="evenodd" d="M380.615 289.343H390.282C390.677 289.343 390.874 289.169 390.874 288.821C390.874 288.473 390.677 288.124 390.282 288.124H380.615C380.22 288.124 379.826 288.473 379.826 288.821C379.826 289.169 380.22 289.343 380.615 289.343Z" fill="#FEFEFE"/>
<path fill-rule="evenodd" clip-rule="evenodd" d="M511.618 292.999C512.013 292.999 532.532 292.999 532.532 292.999C532.926 292.999 533.321 292.651 533.321 292.477C533.321 292.128 532.926 291.78 532.532 291.78C532.532 291.78 512.013 291.78 511.618 291.78C511.224 291.78 511.027 292.128 511.027 292.477C511.027 292.651 511.224 292.999 511.618 292.999Z" fill="#FEFEFE"/>
<path fill-rule="evenodd" clip-rule="evenodd" d="M625.063 302.922H572.385C572.78 299.963 573.766 297.003 575.345 294.566L586.59 299.092L576.528 292.651C578.501 289.691 581.263 287.428 584.42 285.513L591.72 294.566L586.59 284.468C589.944 282.902 593.693 282.031 597.639 281.857L598.823 292.825L600.006 281.857C603.952 282.031 607.701 282.902 610.858 284.468L605.728 294.566L613.028 285.513C616.382 287.428 618.947 289.691 621.117 292.651L610.858 299.092L622.301 294.566C623.879 297.003 624.866 299.963 625.063 302.922Z" fill="#00AC5A"/>
<path fill-rule="evenodd" clip-rule="evenodd" d="M415.339 108.982H410.406L409.814 135.967C411.787 134.052 413.958 132.137 415.93 130.222L415.339 108.982Z" fill="#BEE6F4"/>
<path fill-rule="evenodd" clip-rule="evenodd" d="M409.814 135.967L408.433 198.64H417.312L415.931 130.222C413.958 132.137 411.787 134.052 409.814 135.967Z" fill="#FEFEFE"/>
<path fill-rule="evenodd" clip-rule="evenodd" d="M439.803 104.978C429.938 104.282 420.666 105.675 412.774 108.982L465.846 112.987C458.743 108.808 449.865 105.849 439.803 104.978Z" fill="#FEFEFE"/>
<path fill-rule="evenodd" clip-rule="evenodd" d="M395.215 90.1803C399.555 98.0145 405.671 104.456 412.774 108.982L390.282 66.1554C389.493 73.8155 391.071 82.172 395.215 90.1803Z" fill="#FEFEFE"/>
<path fill-rule="evenodd" clip-rule="evenodd" d="M402.909 131.615C408.631 124.477 411.985 116.468 412.774 108.982L381.996 147.457C389.888 144.149 397.188 138.752 402.909 131.615Z" fill="#FEFEFE"/>
<path fill-rule="evenodd" clip-rule="evenodd" d="M412.379 112.987C409.814 112.812 407.841 110.723 408.039 108.634C408.433 106.371 410.604 104.63 413.168 104.804C415.733 105.152 417.509 107.067 417.312 109.331C417.114 111.594 414.747 113.161 412.379 112.987Z" fill="#FEFEFE"/>
<path fill-rule="evenodd" clip-rule="evenodd" d="M412.577 110.897C411.195 110.723 410.406 109.853 410.406 108.808C410.604 107.59 411.59 106.893 412.971 106.893C414.155 107.067 415.141 107.938 414.944 109.156C414.747 110.201 413.76 110.897 412.577 110.897Z" fill="#0076BC"/>
<path fill-rule="evenodd" clip-rule="evenodd" d="M363.647 96.0995C367.791 83.3907 378.05 73.2933 391.071 67.8964L390.48 66.8518C377.063 72.4228 366.607 82.6943 362.266 95.7513L363.647 96.0995Z" fill="#FEFEFE"/>
<path fill-rule="evenodd" clip-rule="evenodd" d="M361.675 104.978C361.872 103.411 362.069 101.845 362.464 100.278L361.083 100.104C360.688 101.67 360.491 103.237 360.293 104.804L361.675 104.978Z" fill="#FEFEFE"/>
<path fill-rule="evenodd" clip-rule="evenodd" d="M432.898 150.417C426.584 152.854 419.876 154.073 412.774 154.073C411.195 154.073 409.814 154.073 408.236 153.898C399.16 153.202 390.874 150.417 383.969 146.238L383.18 147.283C390.282 151.635 398.766 154.421 408.039 155.117C409.617 155.291 411.195 155.291 412.774 155.291C420.074 155.291 426.979 154.073 433.292 151.635L432.898 150.417Z" fill="#FEFEFE"/>
<path fill-rule="evenodd" clip-rule="evenodd" d="M440.395 146.935C439.014 147.631 437.83 148.327 436.449 149.024L437.041 150.068C438.422 149.372 439.803 148.676 441.184 147.979L440.395 146.935Z" fill="#FEFEFE"/>
<path fill-rule="evenodd" clip-rule="evenodd" d="M449.076 77.1233C458.349 85.3057 463.873 96.6218 463.873 108.808C463.873 110.201 463.873 111.594 463.676 112.987H465.057C465.254 111.594 465.254 110.201 465.254 108.808C465.254 96.2736 459.533 84.6093 450.062 76.2528L449.076 77.1233Z" fill="#FEFEFE"/>
<path fill-rule="evenodd" clip-rule="evenodd" d="M441.973 71.7264C443.157 72.5969 444.538 73.4674 445.722 74.3378L446.511 73.4674C445.327 72.4228 443.946 71.5523 442.763 70.856L441.973 71.7264Z" fill="#FEFEFE"/>
<path fill-rule="evenodd" clip-rule="evenodd" d="M117.226 157.729C117.226 157.729 90.986 233.111 117.226 233.111C143.664 233.111 117.226 157.729 117.226 157.729Z" fill="#70C066"/>
<path fill-rule="evenodd" clip-rule="evenodd" d="M116.437 174.964V242.338H118.213V174.964H116.437Z" fill="#FEFEFE"/>
<path fill-rule="evenodd" clip-rule="evenodd" d="M563.901 148.85L568.045 151.809L572.188 154.595L567.65 153.376L563.901 152.332V148.85Z" fill="#58BA66"/>
<path fill-rule="evenodd" clip-rule="evenodd" d="M575.936 241.467C559.758 241.467 556.404 222.839 558.377 200.73L569.82 201.948L558.772 197.596C560.35 182.798 564.099 166.607 567.65 153.376L572.188 154.595L568.045 151.809C572.188 136.837 575.936 126.218 575.936 126.218C575.936 126.218 583.828 149.198 589.155 174.616L581.263 178.272H589.944C591.72 187.324 593.101 196.551 593.496 205.082L583.039 210.653L593.693 209.434C594.088 227.54 589.747 241.467 575.936 241.467Z" fill="#58BA66"/>
<path fill-rule="evenodd" clip-rule="evenodd" d="M574.358 153.724V255.743H577.318V153.724C577.318 153.028 576.726 152.332 575.937 152.332C574.95 152.332 574.358 153.028 574.358 153.724Z" fill="#FEFEFE"/>
<path fill-rule="evenodd" clip-rule="evenodd" d="M475.316 165.389C475.316 165.389 455.192 223.013 475.316 223.013C495.44 223.013 475.316 165.389 475.316 165.389Z" fill="#70C066"/>
<path fill-rule="evenodd" clip-rule="evenodd" d="M474.527 178.446V230.325H476.105V178.446H474.527Z" fill="#FEFEFE"/>
<path fill-rule="evenodd" clip-rule="evenodd" d="M374.696 157.729C374.696 157.729 354.572 215.527 374.696 215.527C394.82 215.527 374.696 157.729 374.696 157.729Z" fill="#70C066"/>
<path fill-rule="evenodd" clip-rule="evenodd" d="M373.907 170.96V222.665H375.485V170.96H373.907Z" fill="#FEFEFE"/>
<path fill-rule="evenodd" clip-rule="evenodd" d="M361.477 153.202C361.477 153.202 346.68 194.984 361.477 194.984C376.077 194.984 361.477 153.202 361.477 153.202Z" fill="#70C066"/>
<path fill-rule="evenodd" clip-rule="evenodd" d="M360.885 162.603V200.033H361.872V162.603H360.885Z" fill="#FEFEFE"/>
<path fill-rule="evenodd" clip-rule="evenodd" d="M624.274 221.447L632.955 219.88C632.363 240.945 626.049 256.439 608.885 256.439C593.693 256.439 586.788 244.427 585.012 227.192L599.02 229.803L584.617 222.491C584.026 211.349 585.012 198.466 587.182 185.235L605.136 188.717L587.971 180.012C590.536 164.344 594.482 148.676 598.033 135.27L606.714 135.793L599.02 131.615C604.347 113.161 608.885 100.104 608.885 100.104C608.885 100.104 618.355 127.262 625.457 158.947C620.328 161.733 614.606 165.04 614.606 165.04L626.444 163.474C629.009 176.008 631.376 188.891 632.363 201.078L619.341 209.086L632.757 206.823C632.955 209.956 633.152 213.09 633.152 216.224L624.274 221.447Z" fill="#00AC5A"/>
<path fill-rule="evenodd" clip-rule="evenodd" d="M606.714 137.534V275.938H610.858V137.534C610.858 136.489 609.871 135.793 608.885 135.793C607.701 135.793 606.714 136.489 606.714 137.534Z" fill="#FEFEFE"/>
<path fill-rule="evenodd" clip-rule="evenodd" d="M94.9318 240.249C94.3399 240.249 93.9453 240.249 93.3534 240.249C92.7616 240.249 92.367 240.249 91.7751 240.249C81.3185 239.552 76.5834 230.499 75.3996 217.791L86.8427 218.835L75.2023 213.612C74.6104 202.819 76.1888 190.11 78.5563 177.575L89.013 182.45L79.1482 175.138C84.4752 147.979 93.3534 122.562 93.3534 122.562C93.3534 122.562 104.599 154.421 109.532 185.061L100.259 197.77L110.518 192.721C113.477 217.094 111.505 239.03 94.9318 240.249Z" fill="#00AC5A"/>
<path fill-rule="evenodd" clip-rule="evenodd" d="M91.7751 150.591V255.047H94.9318V150.591C94.9318 149.894 94.1426 149.372 93.3534 149.372C92.5643 149.372 91.7751 149.894 91.7751 150.591Z" fill="#FEFEFE"/>
<path fill-rule="evenodd" clip-rule="evenodd" d="M562.915 274.893C562.52 276.112 562.323 276.808 562.323 276.808H557.983C557.983 276.808 558.18 276.112 558.575 274.893C559.956 270.019 563.112 257.832 562.718 256.091C562.52 255.047 558.575 251.043 554.431 247.387C550.288 243.557 546.342 240.075 546.342 240.075L559.956 236.419C558.575 239.552 565.48 248.605 567.256 250.346C568.637 251.913 564.296 268.974 562.915 274.893Z" fill="#5CC1EE"/>
<path fill-rule="evenodd" clip-rule="evenodd" d="M568.439 223.536C569.426 228.933 574.95 230.499 575.542 233.633C576.134 236.941 573.963 237.289 568.834 234.504C563.901 231.544 565.874 224.058 565.874 224.058L568.439 223.536Z" fill="#5CC1EE"/>
<path fill-rule="evenodd" clip-rule="evenodd" d="M513.394 241.467L513.197 242.86L506.489 274.893L506.094 276.808H503.529V274.893L504.516 247.038L504.713 241.467H513.394Z" fill="#5CC1EE"/>
<path fill-rule="evenodd" clip-rule="evenodd" d="M467.819 278.897H468.411C470.384 278.897 471.962 278.201 473.146 277.156C471.37 276.982 469.595 276.982 467.819 276.634V278.897Z" fill="#05668A"/>
<path fill-rule="evenodd" clip-rule="evenodd" d="M568.834 226.147C568.834 229.455 564.099 232.937 559.956 236.419C556.799 239.204 554.234 241.816 554.234 244.601C554.234 245.646 554.234 246.516 554.431 247.387C555.221 251.913 557.588 254.176 557.588 256.265C557.588 258.006 551.077 269.845 548.118 274.893C547.329 276.286 546.737 277.157 546.737 277.157H541.805C541.805 277.157 542.396 276.286 543.186 274.893C546.342 270.019 553.05 259.051 553.248 258.006C553.445 256.962 543.777 241.99 543.777 241.99H521.878V277.157H518.721L518.524 274.893L513.591 242.686L513.197 242.86L504.516 247.038L494.257 252.087L473.541 276.634C473.541 276.808 473.343 276.982 473.146 277.157C472.751 277.157 472.357 276.982 471.962 276.982C470.581 276.982 469.2 276.808 467.819 276.634V262.533L465.452 255.395C465.452 255.395 470.384 255.743 470.384 258.877C470.384 258.877 494.257 223.71 497.019 219.88C499.583 215.876 505.897 215.005 514.578 213.787C523.851 212.742 550.88 212.394 556.799 212.742C562.718 212.916 568.834 220.402 568.834 226.147Z" fill="#75D1F6"/>
<path fill-rule="evenodd" clip-rule="evenodd" d="M543.777 241.99C541.607 238.856 546.934 231.022 546.934 231.022H521.878V241.99H543.777Z" fill="#5CC1EE"/>
<path fill-rule="evenodd" clip-rule="evenodd" d="M513.591 242.686L494.257 252.087L473.541 276.634C473.541 276.808 473.343 276.982 473.146 277.156C472.751 277.156 472.357 276.982 471.962 276.982C477.684 268.626 492.875 246.342 492.875 245.82C492.875 245.123 512.013 233.111 512.013 233.111L513.591 242.686Z" fill="#5CC1EE"/>
<path fill-rule="evenodd" clip-rule="evenodd" d="M471.765 266.537C471.765 267.059 471.37 267.407 470.778 267.407C470.384 267.407 469.792 267.059 469.792 266.537C469.792 266.189 470.384 265.666 470.778 265.666C471.37 265.666 471.765 266.189 471.765 266.537Z" fill="#05668A"/>
<path fill-rule="evenodd" clip-rule="evenodd" d="M472.357 259.573C472.16 258.528 471.765 257.31 470.976 256.265C470.187 254.524 468.806 252.783 467.03 251.391C466.635 250.868 466.043 250.52 465.452 250.172C465.452 249.127 465.057 248.083 464.662 247.038C463.281 243.556 460.914 240.075 460.914 240.075C460.519 239.552 459.73 239.378 458.941 239.726C458.349 240.075 458.152 240.771 458.546 241.293H458.743C458.743 241.467 459.73 243.034 460.914 244.949C461.308 245.82 461.9 246.864 462.295 247.909C462.295 248.083 462.295 248.257 462.492 248.605C462.097 248.431 461.9 248.257 461.506 248.257C460.125 247.735 458.546 247.561 456.968 247.561C456.179 246.516 455.192 245.646 454.403 244.949C453.417 244.427 452.627 244.079 452.627 243.905C451.838 243.731 451.049 243.905 450.852 244.427C450.457 245.123 450.654 245.82 451.444 245.994C451.444 245.994 452.035 246.342 452.825 246.864C453.022 247.038 453.417 247.387 453.614 247.561C452.825 247.735 451.838 247.735 451.049 247.909C450.457 248.083 449.668 248.257 449.076 248.431C448.484 248.779 448.09 248.953 447.498 249.302C447.103 249.824 447.103 250.52 447.498 251.042C448.09 251.565 448.879 251.565 449.471 251.042C449.471 250.868 449.865 250.868 450.26 250.694C450.852 250.346 451.641 250.172 452.627 249.998C453.614 249.998 454.798 249.824 455.784 249.824C457.56 249.824 459.335 249.998 460.716 250.52C462.689 251.042 464.86 252.609 466.635 254.35C467.424 255.221 468.214 256.265 468.608 257.136C469.2 258.18 469.595 259.051 469.595 259.921C469.792 260.618 470.384 260.966 471.173 260.966C471.962 260.792 472.357 260.269 472.357 259.573Z" fill="#05668A"/>
<path fill-rule="evenodd" clip-rule="evenodd" d="M503.529 274.893H506.489L506.094 276.808H503.529V274.893Z" fill="#05668A"/>
<path fill-rule="evenodd" clip-rule="evenodd" d="M518.524 274.893H521.878V277.156H518.721L518.524 274.893Z" fill="#05668A"/>
<path fill-rule="evenodd" clip-rule="evenodd" d="M543.186 274.893H548.118C547.329 276.286 546.737 277.156 546.737 277.156H541.804C541.804 277.156 542.396 276.286 543.186 274.893Z" fill="#05668A"/>
<path fill-rule="evenodd" clip-rule="evenodd" d="M562.915 274.893C562.52 276.112 562.323 276.808 562.323 276.808H557.983C557.983 276.808 558.18 276.112 558.575 274.893H562.915Z" fill="#05668A"/>
<path fill-rule="evenodd" clip-rule="evenodd" d="M359.899 214.135C377.853 224.232 394.031 236.941 407.644 252.087H429.149C411.393 233.633 387.323 220.054 359.899 214.135Z" fill="#00AC5A"/>
<path fill-rule="evenodd" clip-rule="evenodd" d="M301.499 212.742C322.018 222.317 340.169 235.722 355.163 252.087H381.404C365.62 234.852 346.68 220.75 325.175 210.653C317.086 210.653 309.194 211.523 301.499 212.742Z" fill="#00AC5A"/>
<path fill-rule="evenodd" clip-rule="evenodd" d="M266.578 223.536C280.191 231.022 292.226 240.771 302.683 252.087H328.923C315.902 237.811 300.316 225.973 282.756 217.268C277.232 219.009 271.708 221.098 266.578 223.536Z" fill="#00AC5A"/>
<path fill-rule="evenodd" clip-rule="evenodd" d="M238.168 240.771C242.508 244.253 246.454 248.083 250.203 252.087H276.443C269.143 244.079 261.054 237.115 251.978 231.196C247.243 234.155 242.508 237.289 238.168 240.771Z" fill="#00AC5A"/>
<path fill-rule="evenodd" clip-rule="evenodd" d="M325.175 210.653C346.68 220.75 365.62 234.852 381.404 252.087H407.644C394.031 236.941 377.852 224.232 359.899 214.135C349.442 211.872 338.591 210.653 327.345 210.653C326.753 210.653 325.964 210.653 325.175 210.653Z" fill="#58BA66"/>
<path fill-rule="evenodd" clip-rule="evenodd" d="M282.756 217.268C300.316 225.973 315.902 237.811 328.923 252.087H355.163C340.169 235.722 322.018 222.317 301.499 212.742C294.989 213.961 288.872 215.353 282.756 217.268Z" fill="#58BA66"/>
<path fill-rule="evenodd" clip-rule="evenodd" d="M251.978 231.196C261.054 237.115 269.143 244.079 276.443 252.087H302.683C292.226 240.771 280.191 231.022 266.578 223.536C261.646 225.799 256.713 228.41 251.978 231.196Z" fill="#58BA66"/>
<path fill-rule="evenodd" clip-rule="evenodd" d="M225.738 252.087H250.203C246.454 248.083 242.508 244.253 238.168 240.771C233.827 244.253 229.684 248.083 225.738 252.087Z" fill="#58BA66"/>
<path fill-rule="evenodd" clip-rule="evenodd" d="M289.859 147.457C289.859 147.457 261.448 228.759 289.859 228.759C318.467 228.759 289.859 147.457 289.859 147.457Z" fill="#70C066"/>
<path fill-rule="evenodd" clip-rule="evenodd" d="M288.872 165.911V239.03H291.043V165.911H288.872Z" fill="#FEFEFE"/>
<path fill-rule="evenodd" clip-rule="evenodd" d="M237.773 178.097C238.365 185.235 236.589 192.547 232.643 198.64C228.698 204.56 223.173 209.434 219.03 215.179C212.717 223.884 210.152 234.33 211.533 244.427C207.587 244.601 203.641 244.601 199.498 244.775C203.838 228.41 207.784 211.175 203.247 194.81C204.628 194.81 205.811 194.81 207.192 194.81C208.574 201.078 209.165 207.693 209.165 214.135C219.03 210.131 226.725 201.774 229.092 192.373C229.289 191.677 228.698 190.284 227.908 190.806L237.773 178.097Z" fill="#FEFEFE"/>
<path fill-rule="evenodd" clip-rule="evenodd" d="M182.728 196.725C204.43 200.555 227.514 200.555 247.835 192.895C254.543 189.762 260.462 185.409 263.816 180.012C260.659 176.356 254.938 175.138 250.992 172.004C243.495 165.911 243.692 155.291 235.208 149.546C228.106 144.846 218.044 144.149 209.757 146.064C200.09 148.502 193.974 154.073 188.252 161.036C182.925 167.304 175.033 169.219 169.509 174.79C166.353 177.923 165.366 182.276 165.958 186.454C169.904 191.503 176.809 195.333 182.728 196.725Z" fill="#70C066"/>
<path fill-rule="evenodd" clip-rule="evenodd" d="M263.816 180.012C260.462 185.409 254.543 189.762 247.835 192.895C227.514 200.555 204.43 200.555 182.728 196.725C176.809 195.333 169.904 191.503 165.958 186.454C166.155 188.369 166.944 190.11 167.734 191.851C170.89 197.248 176.809 201.078 183.123 203.167C192.79 206.301 204.825 206.649 215.084 206.997C226.33 207.519 237.97 206.823 248.624 203.515C254.346 201.774 259.87 199.163 263.224 194.81C266.578 190.632 267.565 184.365 263.816 180.187V180.012Z" fill="#58BA66"/>
<path fill-rule="evenodd" clip-rule="evenodd" d="M407.052 253.654H373.315C373.512 251.739 374.104 249.824 375.091 248.257L382.39 251.043L375.88 247.038C377.261 245.123 379.036 243.731 381.009 242.512L385.744 248.257L382.39 241.816C384.561 240.771 386.928 240.249 389.493 240.075L390.282 247.212L391.071 240.075C393.439 240.249 395.806 240.771 397.977 241.816L394.623 248.257L399.358 242.512C401.331 243.731 403.106 245.123 404.487 247.038L397.977 251.043L405.277 248.257C406.263 249.824 406.855 251.739 407.052 253.654Z" fill="#FEFEFE"/>
<path fill-rule="evenodd" clip-rule="evenodd" d="M436.449 256.265H393.833C394.031 253.828 394.82 251.565 396.201 249.476L405.277 253.132L397.188 247.909C398.766 245.646 400.936 243.731 403.501 242.164L409.42 249.476L405.277 241.293C408.039 240.075 410.998 239.378 414.155 239.204L415.141 248.083L416.128 239.204C419.285 239.378 422.244 240.075 425.006 241.293L420.863 249.476L426.782 242.164C429.347 243.731 431.517 245.646 433.095 247.909L425.006 253.132L434.082 249.476C435.463 251.565 436.252 253.828 436.449 256.265Z" fill="#58BA66"/>
<path fill-rule="evenodd" clip-rule="evenodd" d="M196.341 241.467H155.699C156.093 239.204 156.685 236.941 157.869 235.026L166.747 238.508L158.855 233.459C160.434 231.37 162.604 229.455 164.971 228.062L170.693 235.026L166.747 227.192C169.312 226.147 172.074 225.451 175.033 225.277L176.02 233.633L177.006 225.277C179.966 225.451 182.925 226.147 185.49 227.192L181.544 235.026L187.068 228.062C189.633 229.455 191.606 231.37 193.185 233.459L185.49 238.508L194.171 235.026C195.355 236.941 196.144 239.204 196.341 241.467Z" fill="#58BA66"/>
<path fill-rule="evenodd" clip-rule="evenodd" d="M264.802 270.541H261.054C260.067 270.541 259.278 269.845 259.278 269.148V268.974C259.278 268.104 260.067 267.407 261.054 267.407H264.802C265.789 267.407 266.578 268.104 266.578 268.974V269.148C266.578 269.845 265.789 270.541 264.802 270.541Z" fill="#58BA66"/>
<path fill-rule="evenodd" clip-rule="evenodd" d="M302.683 270.541H273.089C272.102 270.541 271.313 269.845 271.313 269.148V268.974C271.313 268.104 272.102 267.407 273.089 267.407H302.683C303.67 267.407 304.459 268.104 304.459 268.974V269.148C304.459 269.845 303.67 270.541 302.683 270.541Z" fill="#58BA66"/>
<path fill-rule="evenodd" clip-rule="evenodd" d="M342.142 321.898H259.278C259.87 317.198 261.251 312.672 263.619 308.667L281.573 315.805L265.789 305.534C268.946 301.181 273.286 297.351 278.219 294.566L289.662 308.667L281.573 292.825C286.899 290.388 292.621 288.995 298.737 288.821L300.71 306.056L302.683 288.821C308.799 288.995 314.718 290.388 319.848 292.825L311.759 308.667L323.202 294.566C328.331 297.351 332.475 301.181 335.829 305.534L319.848 315.805L337.801 308.667C340.169 312.672 341.747 317.198 342.142 321.898Z" fill="#58BA66"/>
<path fill-rule="evenodd" clip-rule="evenodd" d="M155.896 272.978H93.5508L101.443 283.772H163.788L155.896 272.978Z" fill="#58BA66"/>
<path fill-rule="evenodd" clip-rule="evenodd" d="M130.248 278.897H130.05C129.261 278.897 128.472 278.201 128.472 277.505V262.01H131.826V277.505C131.826 278.201 131.037 278.897 130.248 278.897Z" fill="#FEFEFE"/>
<path fill-rule="evenodd" clip-rule="evenodd" d="M107.164 267.407H158.658L147.61 248.779H96.1156L107.164 267.407Z" fill="#2F4262"/>
<path fill-rule="evenodd" clip-rule="evenodd" d="M107.164 267.407H158.658L147.61 248.779H96.1156L107.164 267.407Z" fill="#0077A2"/>
<path fill-rule="evenodd" clip-rule="evenodd" d="M149.977 252.609H98.4832L98.0886 252.261H149.78L149.977 252.609Z" fill="#7FD2E9"/>
<path fill-rule="evenodd" clip-rule="evenodd" d="M152.147 256.439H100.653L100.456 256.091H151.95L152.147 256.439Z" fill="#7FD2E9"/>
<path fill-rule="evenodd" clip-rule="evenodd" d="M154.318 260.095H102.824L102.626 259.747H154.12L154.318 260.095Z" fill="#7FD2E9"/>
<path fill-rule="evenodd" clip-rule="evenodd" d="M156.685 263.925H104.994L104.797 263.577H156.29L156.685 263.925Z" fill="#7FD2E9"/>
<path fill-rule="evenodd" clip-rule="evenodd" d="M137.547 248.779L148.596 267.407H148.201L137.153 248.779H137.547Z" fill="#7FD2E9"/>
<path fill-rule="evenodd" clip-rule="evenodd" d="M127.288 248.779L138.337 267.407H137.942L126.894 248.779H127.288Z" fill="#7FD2E9"/>
<path fill-rule="evenodd" clip-rule="evenodd" d="M117.029 248.779L128.077 267.407H127.683L116.437 248.779H117.029Z" fill="#7FD2E9"/>
<path fill-rule="evenodd" clip-rule="evenodd" d="M106.769 248.779L117.818 267.407H117.423L106.178 248.779H106.769Z" fill="#7FD2E9"/>
<path fill-rule="evenodd" clip-rule="evenodd" d="M142.677 248.779L153.726 267.407H153.331L142.283 248.779H142.677Z" fill="#294D6B"/>
<path fill-rule="evenodd" clip-rule="evenodd" d="M132.418 248.779L143.466 267.407H143.072L132.023 248.779H132.418Z" fill="#294D6B"/>
<path fill-rule="evenodd" clip-rule="evenodd" d="M122.159 248.779L133.207 267.407H132.812L121.764 248.779H122.159Z" fill="#294D6B"/>
<path fill-rule="evenodd" clip-rule="evenodd" d="M111.899 248.779L122.948 267.407H122.553L111.307 248.779H111.899Z" fill="#294D6B"/>
<path fill-rule="evenodd" clip-rule="evenodd" d="M101.64 248.779L112.688 267.407H112.294L101.048 248.779H101.64Z" fill="#294D6B"/>
<path fill-rule="evenodd" clip-rule="evenodd" d="M158.658 267.407L157.08 269.496H105.586L107.164 267.407H158.658Z" fill="#1A5C7E"/>
<path fill-rule="evenodd" clip-rule="evenodd" d="M105.586 269.496L107.164 267.407L96.1156 248.779L94.34 250.694L105.586 269.496Z" fill="#294D6B"/>
<path fill-rule="evenodd" clip-rule="evenodd" d="M222.976 272.978H160.434L168.523 283.772H230.868L222.976 272.978Z" fill="#58BA66"/>
<path fill-rule="evenodd" clip-rule="evenodd" d="M197.13 278.897C196.144 278.897 195.552 278.201 195.552 277.505V262.01H198.709V277.505C198.709 278.201 198.117 278.897 197.13 278.897Z" fill="#FEFEFE"/>
<path fill-rule="evenodd" clip-rule="evenodd" d="M174.244 267.407H225.738L214.492 248.779H162.998L174.244 267.407Z" fill="#2F4262"/>
<path fill-rule="evenodd" clip-rule="evenodd" d="M174.244 267.407H225.738L214.492 248.779H162.998L174.244 267.407Z" fill="#0077A2"/>
<path fill-rule="evenodd" clip-rule="evenodd" d="M216.86 252.609H165.366L165.169 252.261H216.663L216.86 252.609Z" fill="#7FD2E9"/>
<path fill-rule="evenodd" clip-rule="evenodd" d="M219.227 256.439H167.536L167.339 256.091H218.833L219.227 256.439Z" fill="#7FD2E9"/>
<path fill-rule="evenodd" clip-rule="evenodd" d="M221.398 260.095H169.904L169.509 259.747H221.2L221.398 260.095Z" fill="#7FD2E9"/>
<path fill-rule="evenodd" clip-rule="evenodd" d="M223.568 263.925H172.074L171.877 263.577H223.371L223.568 263.925Z" fill="#7FD2E9"/>
<path fill-rule="evenodd" clip-rule="evenodd" d="M204.628 248.779L215.676 267.407H215.282L204.036 248.779H204.628Z" fill="#7FD2E9"/>
<path fill-rule="evenodd" clip-rule="evenodd" d="M194.368 248.779L205.417 267.407H204.825L193.776 248.779H194.368Z" fill="#7FD2E9"/>
<path fill-rule="evenodd" clip-rule="evenodd" d="M183.912 248.779L195.158 267.407H194.566L183.517 248.779H183.912Z" fill="#7FD2E9"/>
<path fill-rule="evenodd" clip-rule="evenodd" d="M173.652 248.779L184.898 267.407H184.306L173.258 248.779H173.652Z" fill="#7FD2E9"/>
<path fill-rule="evenodd" clip-rule="evenodd" d="M209.757 248.779L220.806 267.407H220.411L209.165 248.779H209.757Z" fill="#294D6B"/>
<path fill-rule="evenodd" clip-rule="evenodd" d="M199.498 248.779L210.547 267.407H209.955L198.906 248.779H199.498Z" fill="#294D6B"/>
<path fill-rule="evenodd" clip-rule="evenodd" d="M189.041 248.779L200.287 267.407H199.695L188.647 248.779H189.041Z" fill="#294D6B"/>
<path fill-rule="evenodd" clip-rule="evenodd" d="M178.782 248.779L190.028 267.407H189.436L178.387 248.779H178.782Z" fill="#294D6B"/>
<path fill-rule="evenodd" clip-rule="evenodd" d="M168.523 248.779L179.768 267.407H179.177L168.128 248.779H168.523Z" fill="#294D6B"/>
<path fill-rule="evenodd" clip-rule="evenodd" d="M225.738 267.407L223.963 269.496H172.469L174.244 267.407H225.738Z" fill="#1A5C7E"/>
<path fill-rule="evenodd" clip-rule="evenodd" d="M172.469 269.496L174.244 267.407L162.998 248.779L161.42 250.694L172.469 269.496Z" fill="#294D6B"/>
<path fill-rule="evenodd" clip-rule="evenodd" d="M183.714 287.428H121.369L129.261 298.222H191.606L183.714 287.428Z" fill="#58BA66"/>
<path fill-rule="evenodd" clip-rule="evenodd" d="M158.066 293.347H157.869C157.08 293.347 156.29 292.651 156.29 291.954V276.46H159.644V291.954C159.644 292.651 158.855 293.347 158.066 293.347Z" fill="#FEFEFE"/>
<path fill-rule="evenodd" clip-rule="evenodd" d="M134.983 281.857H186.477L175.428 263.229H123.934L134.983 281.857Z" fill="#2F4262"/>
<path fill-rule="evenodd" clip-rule="evenodd" d="M134.983 281.857H186.477L175.428 263.229H123.934L134.983 281.857Z" fill="#0077A2"/>
<path fill-rule="evenodd" clip-rule="evenodd" d="M177.796 267.059H126.302L125.907 266.711H177.598L177.796 267.059Z" fill="#7FD2E9"/>
<path fill-rule="evenodd" clip-rule="evenodd" d="M179.966 270.889H128.472L128.275 270.541H179.768L179.966 270.889Z" fill="#7FD2E9"/>
<path fill-rule="evenodd" clip-rule="evenodd" d="M182.136 274.545H130.642L130.445 274.197H181.939L182.136 274.545Z" fill="#7FD2E9"/>
<path fill-rule="evenodd" clip-rule="evenodd" d="M184.504 278.375H132.812L132.615 278.027H184.109L184.504 278.375Z" fill="#7FD2E9"/>
<path fill-rule="evenodd" clip-rule="evenodd" d="M165.366 263.229L176.415 281.857H176.02L164.971 263.229H165.366Z" fill="#7FD2E9"/>
<path fill-rule="evenodd" clip-rule="evenodd" d="M155.107 263.229L166.155 281.857H165.761L154.712 263.229H155.107Z" fill="#7FD2E9"/>
<path fill-rule="evenodd" clip-rule="evenodd" d="M144.847 263.229L155.896 281.857H155.501L144.255 263.229H144.847Z" fill="#7FD2E9"/>
<path fill-rule="evenodd" clip-rule="evenodd" d="M134.588 263.229L145.637 281.857H145.242L133.996 263.229H134.588Z" fill="#7FD2E9"/>
<path fill-rule="evenodd" clip-rule="evenodd" d="M170.496 263.229L181.544 281.857H181.15L170.101 263.229H170.496Z" fill="#294D6B"/>
<path fill-rule="evenodd" clip-rule="evenodd" d="M160.236 263.229L171.285 281.857H170.89L159.842 263.229H160.236Z" fill="#294D6B"/>
<path fill-rule="evenodd" clip-rule="evenodd" d="M149.977 263.229L161.025 281.857H160.631L149.582 263.229H149.977Z" fill="#294D6B"/>
<path fill-rule="evenodd" clip-rule="evenodd" d="M139.718 263.229L150.766 281.857H150.372L139.126 263.229H139.718Z" fill="#294D6B"/>
<path fill-rule="evenodd" clip-rule="evenodd" d="M129.458 263.229L140.507 281.857H140.112L128.867 263.229H129.458Z" fill="#294D6B"/>
<path fill-rule="evenodd" clip-rule="evenodd" d="M186.477 281.857L184.898 283.946H133.404L134.983 281.857H186.477Z" fill="#1A5C7E"/>
<path fill-rule="evenodd" clip-rule="evenodd" d="M133.404 283.946L134.983 281.857L123.934 263.229L122.159 265.144L133.404 283.946Z" fill="#294D6B"/>
<path fill-rule="evenodd" clip-rule="evenodd" d="M250.795 287.428H188.252L196.341 298.222H258.686L250.795 287.428Z" fill="#58BA66"/>
<path fill-rule="evenodd" clip-rule="evenodd" d="M224.949 293.347C223.963 293.347 223.371 292.651 223.371 291.954V276.46H226.527V291.954C226.527 292.651 225.935 293.347 224.949 293.347Z" fill="#FEFEFE"/>
<path fill-rule="evenodd" clip-rule="evenodd" d="M202.063 281.857H253.557L242.311 263.229H190.817L202.063 281.857Z" fill="#2F4262"/>
<path fill-rule="evenodd" clip-rule="evenodd" d="M202.063 281.857H253.557L242.311 263.229H190.817L202.063 281.857Z" fill="#0077A2"/>
<path fill-rule="evenodd" clip-rule="evenodd" d="M244.678 267.059H193.185L192.987 266.711H244.481L244.678 267.059Z" fill="#7FD2E9"/>
<path fill-rule="evenodd" clip-rule="evenodd" d="M247.046 270.889H195.355L195.158 270.541H246.651L247.046 270.889Z" fill="#7FD2E9"/>
<path fill-rule="evenodd" clip-rule="evenodd" d="M249.216 274.545H197.722L197.328 274.197H249.019L249.216 274.545Z" fill="#7FD2E9"/>
<path fill-rule="evenodd" clip-rule="evenodd" d="M251.386 278.375H199.893L199.695 278.027H251.189L251.386 278.375Z" fill="#7FD2E9"/>
<path fill-rule="evenodd" clip-rule="evenodd" d="M232.446 263.229L243.495 281.857H243.1L231.854 263.229H232.446Z" fill="#7FD2E9"/>
<path fill-rule="evenodd" clip-rule="evenodd" d="M222.187 263.229L233.235 281.857H232.644L221.595 263.229H222.187Z" fill="#7FD2E9"/>
<path fill-rule="evenodd" clip-rule="evenodd" d="M211.73 263.229L222.976 281.857H222.384L211.336 263.229H211.73Z" fill="#7FD2E9"/>
<path fill-rule="evenodd" clip-rule="evenodd" d="M201.471 263.229L212.717 281.857H212.125L201.076 263.229H201.471Z" fill="#7FD2E9"/>
<path fill-rule="evenodd" clip-rule="evenodd" d="M237.576 263.229L248.624 281.857H248.23L236.984 263.229H237.576Z" fill="#294D6B"/>
<path fill-rule="evenodd" clip-rule="evenodd" d="M227.317 263.229L238.365 281.857H237.773L226.725 263.229H227.317Z" fill="#294D6B"/>
<path fill-rule="evenodd" clip-rule="evenodd" d="M216.86 263.229L228.106 281.857H227.514L216.465 263.229H216.86Z" fill="#294D6B"/>
<path fill-rule="evenodd" clip-rule="evenodd" d="M206.601 263.229L217.846 281.857H217.254L206.206 263.229H206.601Z" fill="#294D6B"/>
<path fill-rule="evenodd" clip-rule="evenodd" d="M196.341 263.229L207.587 281.857H206.995L195.947 263.229H196.341Z" fill="#294D6B"/>
<path fill-rule="evenodd" clip-rule="evenodd" d="M253.557 281.857L251.781 283.946H200.287L202.063 281.857H253.557Z" fill="#1A5C7E"/>
<path fill-rule="evenodd" clip-rule="evenodd" d="M200.287 283.946L202.063 281.857L190.817 263.229L189.239 265.144L200.287 283.946Z" fill="#294D6B"/>
</g>
<defs>
<clipPath id="clip0_6_211">
<rect width="705" height="336" fill="white"/>
</clipPath>
</defs>
</svg>
