<svg width="30" height="30" viewBox="0 0 30 30" fill="none" xmlns="http://www.w3.org/2000/svg">
<path d="M29.3226 15C29.3226 23.0204 22.9904 29.5 15.2062 29.5C7.4221 29.5 1.08984 23.0204 1.08984 15C1.08984 6.97958 7.4221 0.5 15.2062 0.5C22.9904 0.5 29.3226 6.97958 29.3226 15Z" stroke="#696969"/>
<path d="M19.7151 11.8288L16.9038 8.92995C16.6762 8.69641 16.3817 8.57277 16.0604 8.57277H11.0001C10.6787 8.57277 10.3842 8.6964 10.1566 8.92995C9.92907 9.16349 9.80859 9.46575 9.80859 9.7955V20.3879C9.80859 21.0611 10.344 21.6106 11.0001 21.6106H18.8851C19.5411 21.6106 20.0765 21.0611 20.0765 20.3879V12.6943C20.0765 12.3646 19.9427 12.0623 19.7152 11.8288H19.7151ZM16.4754 10.0153L18.6709 12.2685H16.7031C16.5692 12.2685 16.4755 12.1585 16.4755 12.0349L16.4754 10.0153ZM19.0324 20.4016C19.0324 20.4841 18.9654 20.5528 18.8851 20.5528H11.0001C10.9198 20.5528 10.8528 20.4841 10.8528 20.4016V9.79552C10.8528 9.74061 10.8796 9.69931 10.893 9.6856C10.9198 9.6581 10.9465 9.64439 11.0001 9.64439H15.4312V12.0349C15.4312 12.7631 16.0068 13.34 16.703 13.34H19.0189L19.019 20.4016L19.0324 20.4016Z" fill="#696969"/>
<path d="M15.336 16.2663C15.2021 16.1152 15.0548 15.9092 14.921 15.6618C15.2155 14.6314 15.2557 13.917 15.0147 13.5598C14.8943 13.3675 14.6934 13.2713 14.4659 13.2713C14.1981 13.2713 13.9839 13.3949 13.8903 13.6422C13.6895 14.1231 13.9974 15.0024 14.3589 15.7167C14.2651 16.0465 14.1313 16.4174 13.9707 16.8158C13.8904 17.0357 13.7833 17.2555 13.6762 17.4615C12.8729 17.7775 11.9894 18.2584 11.8823 18.8354C11.8421 19.0552 11.9091 19.2613 12.0965 19.4124C12.2036 19.5086 12.3241 19.5498 12.458 19.5498C12.5115 19.5498 12.5651 19.5361 12.6186 19.5223C13.1139 19.3987 13.636 18.6431 14.0376 17.9012C14.2652 17.8188 14.5329 17.7226 14.8141 17.6402C15.1488 17.544 15.4566 17.4615 15.7244 17.4066C16.2197 17.8188 16.6614 18.0386 17.0363 18.0386C17.304 18.0524 17.545 17.9424 17.7324 17.7364C18.0269 17.4342 17.9065 17.1594 17.8663 17.077C17.6521 16.706 16.9293 16.6236 15.8716 16.8297C15.7108 16.6647 15.5234 16.4724 15.336 16.2663H15.336ZM12.4979 19.0003C12.4577 19.014 12.4444 19.0003 12.4041 18.9316C12.4309 18.7942 12.6853 18.5332 13.2341 18.2584C12.9531 18.6706 12.6854 18.9591 12.4979 19.0003L12.4979 19.0003ZM14.3588 13.8621C14.3722 13.8346 14.3722 13.8209 14.4526 13.8209C14.5329 13.8209 14.5597 13.8484 14.573 13.8758C14.6668 14.0132 14.6668 14.3704 14.5597 14.9337C14.3855 14.4665 14.2784 14.0406 14.3588 13.8621L14.3588 13.8621ZM14.68 17.1181C14.5863 17.1456 14.4793 17.173 14.3722 17.2143C14.399 17.1456 14.4257 17.0769 14.4525 17.022C14.5462 16.7748 14.6399 16.5411 14.7069 16.3214C14.7872 16.445 14.8809 16.5549 14.9478 16.6373C15.0549 16.7472 15.162 16.8572 15.2557 16.9671C15.0817 17.0082 14.8809 17.0631 14.6801 17.1181L14.68 17.1181ZM17.3843 17.3517C17.3173 17.4753 17.2102 17.4891 17.0629 17.4891C16.9023 17.4891 16.6881 17.4067 16.4605 17.2692C17.1165 17.2005 17.4512 17.228 17.3843 17.3517L17.3843 17.3517Z" fill="#696969"/>
</svg>
