<svg width="76" height="76" viewBox="0 0 76 76" fill="none" xmlns="http://www.w3.org/2000/svg">
<circle cx="38" cy="37.998" r="36.5" transform="rotate(90 38 37.998)" fill="white" stroke="#64A70B" stroke-width="3"/>
<path d="M41.5096 40.0707C40.4384 41.7864 41.0237 43.9773 42.808 45.0397C42.8544 45.0673 42.9017 45.0941 42.9495 45.1202C42.9973 45.146 43.0456 45.1712 43.0944 45.1951C44.9657 46.1181 47.298 45.5116 48.3695 43.7961C50.4037 40.5386 49.0994 35.2721 49.0994 35.2721C49.0994 35.2721 43.4807 36.9145 41.5096 40.0707Z" fill="url(#paint0_linear_6669_4597)"/>
<path d="M42.5863 41.1088C42.5613 41.237 42.5519 41.3679 42.5479 41.4986C42.5451 41.6294 42.5501 41.7606 42.5628 41.8915C42.5882 42.1532 42.6433 42.4137 42.7297 42.6663L42.746 42.7135L42.754 42.7374L42.7631 42.7606L42.7992 42.8543C42.812 42.8855 42.8256 42.916 42.8387 42.947L42.8587 42.9933L42.8806 43.0389C42.9369 43.1613 43.0041 43.2794 43.0744 43.3958C43.199 43.5963 43.3433 43.787 43.5042 43.9651L42.8077 45.0396C42.854 45.0672 42.9013 45.094 42.9491 45.1201C42.9969 45.1459 43.0453 45.1711 43.094 45.195L43.7523 44.1C43.9981 44.1427 44.247 44.1654 44.4956 44.1678C44.639 44.1672 44.782 44.1635 44.924 44.1487L44.9773 44.1437L45.0303 44.1373C45.0657 44.1325 45.1011 44.1287 45.1362 44.1234L45.2416 44.1064L45.2677 44.1021L45.2938 44.0971L45.3461 44.0868C45.6242 44.0323 45.8943 43.9483 46.1512 43.8398C46.2793 43.7855 46.4044 43.7248 46.5249 43.6579C46.6451 43.5904 46.7622 43.518 46.8696 43.4346C46.7559 43.5103 46.6338 43.5736 46.5098 43.6324C46.3852 43.6902 46.2574 43.7414 46.1271 43.7858C45.8667 43.8746 45.5968 43.9376 45.324 43.9716L45.2728 43.9779L45.2472 43.9811L45.2214 43.9833L45.119 43.9926C45.0847 43.9951 45.0502 43.9968 45.0161 43.9986L44.9648 44.0014L44.9133 44.0025C44.7764 44.0073 44.6393 44.0012 44.5031 43.9922C44.2909 43.9753 44.0809 43.9427 43.8751 43.8956L45.0516 41.9392C45.2617 41.9452 45.4711 41.9382 45.6783 41.9178C45.7907 41.9062 45.9023 41.8916 46.0132 41.8732C46.1237 41.854 46.2339 41.833 46.3424 41.8071C46.451 41.7813 46.5585 41.7527 46.6649 41.7208C46.7712 41.6887 46.876 41.6534 46.9795 41.6152C47.0829 41.5767 47.1849 41.5355 47.285 41.4905C47.3847 41.4455 47.4836 41.398 47.5777 41.3442C47.4785 41.3894 47.3758 41.4277 47.2725 41.4635C47.1689 41.4992 47.0643 41.5309 46.9588 41.5598C46.853 41.5884 46.7466 41.6138 46.6396 41.636C46.5325 41.6581 46.4248 41.6765 46.3169 41.6921C46.2088 41.708 46.1003 41.7189 45.9919 41.728C45.8833 41.7363 45.7746 41.7409 45.6662 41.7425C45.5039 41.7441 45.342 41.7372 45.1817 41.7225L46.257 39.9343C46.3556 39.9255 46.4527 39.912 46.5481 39.8934C46.6506 39.8722 46.7515 39.8469 46.85 39.8168C46.9483 39.786 47.0449 39.7524 47.1395 39.7146C47.2338 39.6768 47.3265 39.6361 47.4173 39.5927C47.5986 39.5052 47.7733 39.4082 47.9411 39.3029C48.1087 39.1973 48.2715 39.0854 48.4241 38.9632C48.2586 39.0698 48.0853 39.1651 47.9087 39.2527C47.732 39.3403 47.5503 39.4185 47.3652 39.4862C47.2728 39.5198 47.1791 39.55 47.0849 39.5775C46.9903 39.6048 46.8953 39.6277 46.7998 39.6476C46.7042 39.6668 46.608 39.6812 46.5121 39.6915C46.4739 39.695 46.4362 39.6974 46.3982 39.6994L48.0706 36.9184L46.302 39.6473C46.285 39.6154 46.2686 39.5836 46.2533 39.551C46.2157 39.4681 46.1815 39.3832 46.1524 39.296C46.1236 39.2089 46.098 39.1203 46.0769 39.0304C46.0561 38.9405 46.038 38.8495 46.0237 38.7578C45.9953 38.5744 45.9788 38.3885 45.9733 38.2018C45.9678 38.0153 45.971 37.8277 45.9888 37.6408C45.9503 37.825 45.9258 38.0121 45.9104 38.2004C45.895 38.3884 45.8905 38.5779 45.8984 38.7682C45.9027 38.8633 45.9107 38.9584 45.9219 39.0538C45.9332 39.1488 45.9496 39.2438 45.9695 39.339C45.9901 39.4338 46.0163 39.5279 46.0472 39.6215C46.0769 39.7082 46.1122 39.7937 46.1527 39.8778L45.0157 41.6324C44.9225 41.5096 44.8362 41.3818 44.7577 41.2492C44.7057 41.1606 44.6563 41.0701 44.6105 40.9779C44.5652 40.8855 44.5219 40.7918 44.4835 40.6966C44.4446 40.6011 44.4089 40.5048 44.3764 40.407C44.3444 40.3092 44.3156 40.2102 44.2903 40.1106C44.265 40.0109 44.243 39.9102 44.2253 39.8087C44.2077 39.7072 44.1927 39.6053 44.1859 39.5023C44.1823 39.6054 44.1866 39.7088 44.1939 39.8119C44.2014 39.9152 44.2132 40.0184 44.2284 40.1212C44.2438 40.2241 44.2627 40.3265 44.2851 40.4286C44.308 40.5306 44.3342 40.632 44.3639 40.7329C44.3935 40.8337 44.428 40.9334 44.4647 41.0326C44.5022 41.1315 44.5435 41.2294 44.5882 41.3262C44.6714 41.5043 44.7682 41.6778 44.8776 41.8451L43.6335 43.7649C43.4879 43.6212 43.354 43.467 43.2336 43.3033C43.1581 43.1975 43.0849 43.0892 43.0215 42.9756L42.9972 42.9335L42.9744 42.8904C42.9595 42.8618 42.9439 42.8332 42.9294 42.804L42.8873 42.7164L42.8769 42.6944L42.8672 42.6722L42.848 42.6277C42.7449 42.3895 42.6706 42.1396 42.6249 41.8846C42.6021 41.757 42.5866 41.628 42.5791 41.4986C42.5725 41.369 42.5714 41.2385 42.586 41.1092L42.5863 41.1088Z" fill="url(#paint1_linear_6669_4597)"/>
<path d="M52.4134 20.0348C52.3958 19.0163 53.2455 18.1756 54.3278 18.1211C54.356 18.1198 54.3843 18.1189 54.4126 18.1185C54.4409 18.1182 54.4692 18.1183 54.4974 18.1192C55.5811 18.1475 56.4598 18.9673 56.4776 19.9858C56.5111 21.9195 54.5141 23.9646 54.5141 23.9646C54.5141 23.9646 52.4457 21.9085 52.4133 20.0349L52.4134 20.0348Z" fill="url(#paint2_linear_6669_4597)"/>
<path d="M53.1741 19.8264C53.1974 19.7633 53.2282 19.7026 53.2616 19.6432C53.2954 19.5841 53.333 19.5268 53.3737 19.4713C53.4554 19.3604 53.55 19.2571 53.6565 19.1646L53.6765 19.1473L53.6864 19.1385L53.6967 19.1303L53.738 19.097C53.7521 19.0861 53.7664 19.0757 53.7805 19.0649L53.8018 19.0489L53.8239 19.0337C53.882 18.9922 53.9436 18.9553 54.0064 18.9199C54.1159 18.8598 54.2316 18.8085 54.3512 18.7668L54.3288 18.123C54.357 18.1216 54.3853 18.1207 54.4136 18.1204C54.4419 18.12 54.4702 18.1202 54.4984 18.121L54.4983 18.7649C54.6195 18.8037 54.7367 18.8522 54.8484 18.9097C54.9122 18.9436 54.9751 18.979 55.0346 19.0191L55.057 19.0339L55.0791 19.0491C55.0935 19.0597 55.1084 19.0697 55.1226 19.0803L55.1652 19.1127L55.1757 19.1207L55.1861 19.1292L55.2066 19.146C55.3162 19.2358 55.4144 19.337 55.4999 19.4458C55.5425 19.5002 55.582 19.5567 55.6179 19.615C55.6534 19.6735 55.6863 19.7333 55.7119 19.796C55.6815 19.7354 55.644 19.6784 55.6044 19.623C55.5643 19.5677 55.521 19.5149 55.4747 19.4644C55.3821 19.3634 55.2787 19.2717 55.1659 19.1924L55.1446 19.1777L55.1342 19.1701L55.1232 19.1631L55.08 19.1348C55.0654 19.1257 55.0504 19.1168 55.0356 19.1079L55.0134 19.0945L54.9907 19.0819C54.9308 19.0475 54.8681 19.018 54.8047 18.99C54.7055 18.9476 54.6028 18.9128 54.4982 18.8853L54.4982 20.0359C54.5935 20.0827 54.6854 20.1351 54.7723 20.193C54.8194 20.2247 54.8653 20.2574 54.9099 20.2917C54.9541 20.3264 54.9977 20.3617 55.0393 20.3988C55.0808 20.4358 55.1212 20.4739 55.1601 20.5132C55.1989 20.5526 55.2363 20.593 55.2723 20.6344C55.3082 20.676 55.3427 20.7183 55.3753 20.7619C55.4077 20.8056 55.4391 20.85 55.4668 20.8961C55.4345 20.8525 55.399 20.8112 55.3625 20.771C55.3258 20.7307 55.2876 20.6918 55.2483 20.6541C55.2088 20.6165 55.168 20.5801 55.1263 20.545C55.0844 20.5099 55.0412 20.4763 54.9972 20.4439C54.9532 20.4114 54.9077 20.3809 54.8617 20.3515C54.8154 20.3222 54.7681 20.2945 54.7202 20.2683C54.6481 20.2293 54.574 20.1943 54.4983 20.1632L54.4983 21.2151C54.5399 21.2422 54.5797 21.271 54.6173 21.3018C54.6573 21.3354 54.6956 21.3704 54.7316 21.4071C54.7672 21.4439 54.8013 21.4817 54.8334 21.5209C54.8653 21.56 54.8959 21.5999 54.9247 21.6408C54.9823 21.7225 55.0341 21.8069 55.0808 21.8935C55.1273 21.9801 55.17 22.0684 55.2054 22.1589C55.1601 22.0723 55.1084 21.989 55.0529 21.9084C54.9976 21.8276 54.9374 21.75 54.8729 21.6762C54.8407 21.6395 54.8068 21.6039 54.7722 21.5694C54.7374 21.535 54.701 21.5024 54.6637 21.4711C54.6262 21.44 54.5872 21.4109 54.5471 21.3838C54.5311 21.3733 54.5148 21.3633 54.4984 21.3534L54.4983 22.9892L54.4414 21.3541C54.4253 21.3643 54.4094 21.3748 54.3938 21.3856C54.3547 21.4137 54.3168 21.4436 54.2803 21.4756C54.244 21.5078 54.2088 21.5414 54.1753 21.5765C54.1418 21.6118 54.1093 21.6481 54.0783 21.6858C54.0163 21.7611 53.959 21.8402 53.9064 21.9221C53.8539 22.0041 53.805 22.0887 53.7628 22.1763C53.7949 22.085 53.8344 21.9956 53.8781 21.9079C53.9217 21.8202 53.9706 21.7346 54.0253 21.6515C54.0527 21.6101 54.0817 21.5694 54.1124 21.5294C54.1431 21.4897 54.1759 21.451 54.2103 21.4133C54.2449 21.3758 54.2819 21.3399 54.3209 21.3054C54.3575 21.2737 54.3962 21.2438 54.4369 21.2158L54.4003 20.1645C54.3257 20.1974 54.2529 20.2342 54.1822 20.2748C54.1352 20.3021 54.0887 20.3309 54.0435 20.3613C53.9984 20.392 53.954 20.4235 53.9113 20.4571C53.8683 20.4905 53.8264 20.5252 53.7857 20.5611C53.7451 20.5973 53.7056 20.6346 53.6676 20.6733C53.6296 20.7118 53.5927 20.7516 53.5575 20.7928C53.5223 20.834 53.4883 20.8761 53.4576 20.9204C53.4837 20.8734 53.5134 20.8282 53.5444 20.784C53.5756 20.7396 53.6085 20.6963 53.6429 20.654C53.6773 20.6117 53.7133 20.5703 53.7507 20.5301C53.7883 20.4898 53.8272 20.4508 53.8677 20.4127C53.908 20.3747 53.9501 20.3383 53.9932 20.3026C54.0366 20.2672 54.0813 20.2333 54.1273 20.2005C54.2122 20.1405 54.3021 20.0858 54.3959 20.0368L54.3559 18.8865C54.2523 18.9164 54.1511 18.9537 54.0533 18.9985C53.9912 19.0281 53.9294 19.0592 53.8705 19.0949L53.8484 19.108L53.8265 19.1219C53.8122 19.1312 53.7976 19.1403 53.7832 19.1499L53.7408 19.1791L53.7302 19.1864L53.72 19.194L53.6994 19.2094C53.5893 19.2914 53.4892 19.3856 53.4002 19.4887C53.3558 19.5403 53.3142 19.5943 53.2762 19.6504C53.2385 19.7066 53.203 19.7648 53.1747 19.8259L53.1741 19.8264Z" fill="url(#paint3_linear_6669_4597)"/>
<path d="M57.177 20.2963C57.4704 19.4639 58.4171 19.0031 59.3152 19.2424C59.3385 19.2486 59.3618 19.2553 59.3851 19.2625C59.4082 19.2696 59.4312 19.2772 59.454 19.2853C60.3283 19.5922 60.7962 20.4888 60.5028 21.3213C59.9454 22.9019 57.7003 24.041 57.7003 24.041C57.7003 24.041 56.637 21.8278 57.177 20.2963Z" fill="url(#paint4_linear_6669_4597)"/>
<path d="M57.8613 20.3252C57.8993 20.28 57.9429 20.2387 57.9879 20.1992C58.0334 20.1601 58.0812 20.1232 58.1313 20.0888C58.2314 20.0201 58.3397 19.9608 58.4545 19.9136L58.476 19.9048L58.4868 19.9003L58.4976 19.8963L58.5414 19.8801C58.5561 19.8749 58.5709 19.8702 58.5857 19.8651L58.6079 19.8578L58.6304 19.8512C58.6903 19.8328 58.7516 19.8189 58.8134 19.8064C58.9208 19.7862 59.0306 19.775 59.1407 19.7723L59.317 19.2431C59.3403 19.2492 59.3636 19.2559 59.3869 19.2631C59.41 19.2703 59.433 19.2779 59.4558 19.2859L59.261 19.8094C59.348 19.8727 59.429 19.9427 59.5026 20.0188C59.5443 20.0632 59.5849 20.1084 59.6212 20.1564L59.635 20.1742L59.6483 20.1925C59.657 20.2048 59.666 20.2169 59.6743 20.2291L59.6991 20.2666L59.7053 20.2759L59.7112 20.2855L59.7229 20.3047C59.785 20.4064 59.8343 20.5143 59.8711 20.6252C59.8894 20.6806 59.9045 20.737 59.916 20.7937C59.9272 20.8505 59.936 20.9079 59.9379 20.9654C59.9313 20.9082 59.9181 20.852 59.9026 20.7966C59.8866 20.7412 59.8672 20.6868 59.8449 20.6337C59.8001 20.5274 59.7434 20.4257 59.6755 20.3317L59.6628 20.314L59.6565 20.3052L59.6496 20.2966L59.6229 20.2623C59.6138 20.251 59.6042 20.2399 59.5949 20.2288L59.5808 20.2123L59.5661 20.196C59.5277 20.1524 59.4855 20.1118 59.4424 20.0726C59.3743 20.012 59.3013 19.9569 59.2244 19.9072L58.8766 20.8426C58.9401 20.9055 58.999 20.9721 59.0524 21.0421C59.0812 21.0801 59.1087 21.1189 59.1347 21.1584C59.1603 21.1981 59.185 21.2383 59.2078 21.2793C59.2304 21.3203 59.2518 21.3618 59.2716 21.404C59.2914 21.4461 59.3096 21.4888 59.3264 21.532C59.3431 21.5751 59.3583 21.6187 59.3717 21.6627C59.3849 21.7065 59.3972 21.751 59.4056 21.7958C59.3925 21.7519 59.3761 21.7091 59.3585 21.6668C59.3407 21.6245 59.3214 21.5828 59.3007 21.5419C59.2799 21.501 59.2577 21.4607 59.2343 21.4212C59.2107 21.3817 59.1857 21.3431 59.1597 21.3052C59.1337 21.2672 59.1058 21.2304 59.0773 21.1945C59.0485 21.1585 59.0184 21.1238 58.9872 21.0898C58.9402 21.0392 58.8905 20.9914 58.8383 20.9462L58.5202 21.8011C58.546 21.8341 58.5696 21.8679 58.5909 21.9028C58.6135 21.9406 58.6339 21.9791 58.6521 22.0183C58.6701 22.0577 58.6865 22.0973 58.7008 22.1374C58.715 22.1775 58.7277 22.2181 58.7389 22.2587C58.761 22.3403 58.7779 22.4225 58.7898 22.5051C58.8014 22.5878 58.8095 22.6707 58.8109 22.7535C58.8003 22.6712 58.7832 22.5899 58.7625 22.5099C58.7418 22.4298 58.7162 22.3509 58.686 22.274C58.6708 22.2356 58.6541 22.198 58.6363 22.1608C58.6183 22.1236 58.5985 22.0876 58.5776 22.0524C58.5565 22.0173 58.5334 21.9834 58.509 21.9509C58.4991 21.9381 58.4889 21.9257 58.4785 21.9136L57.9839 23.243L58.4319 21.899C58.4157 21.9031 58.3996 21.9073 58.3835 21.9121C58.3431 21.9248 58.3032 21.939 58.2638 21.9555C58.2245 21.9721 58.1857 21.9901 58.1476 22.01C58.1097 22.0299 58.0723 22.0509 58.0355 22.0733C57.9623 22.1183 57.8917 22.1675 57.8241 22.2204C57.7564 22.2733 57.691 22.3293 57.6301 22.3894C57.684 22.3236 57.7431 22.2614 57.8052 22.2014C57.8671 22.1416 57.9329 22.0848 58.0025 22.0316C58.0373 22.0051 58.0734 21.9796 58.1105 21.9553C58.1475 21.931 58.1859 21.9083 58.2252 21.8866C58.2648 21.8652 58.3059 21.8458 58.348 21.8279C58.3873 21.8117 58.428 21.7975 58.4696 21.7853L58.7577 20.9211C58.687 20.9283 58.6165 20.9392 58.5467 20.9537C58.5001 20.9635 58.4537 20.9748 58.4077 20.9877C58.3617 21.0007 58.3158 21.0148 58.271 21.0309C58.2259 21.0468 58.1813 21.0639 58.1372 21.0825C58.0933 21.1013 58.0498 21.1214 58.0071 21.1428C57.9644 21.1642 57.9223 21.1868 57.8813 21.2111C57.8403 21.2353 57.7997 21.2606 57.7615 21.2886C57.7969 21.2574 57.8347 21.2284 57.8734 21.2005C57.9122 21.1726 57.9522 21.146 57.9929 21.1207C58.0338 21.0954 58.0756 21.0711 58.1183 21.0482C58.1611 21.0254 58.2046 21.0038 58.2489 20.9835C58.2932 20.9632 58.3386 20.9446 58.3846 20.9268C58.4305 20.9095 58.4772 20.8936 58.5247 20.879C58.612 20.8525 58.7018 20.8317 58.793 20.8165L59.1082 19.8709C59.0148 19.8682 58.9209 19.8719 58.8278 19.8827C58.7682 19.8904 58.7085 19.8995 58.6498 19.9132L58.6277 19.918L58.6058 19.9235C58.5913 19.9273 58.5766 19.9308 58.5619 19.9349L58.5186 19.9476L58.5077 19.9508L58.497 19.9543L58.4756 19.9614C58.3611 19.9993 58.2511 20.0496 58.1474 20.1101C58.0956 20.1404 58.0454 20.1734 57.9975 20.2089C57.9496 20.2447 57.9032 20.2826 57.8616 20.3251L57.8613 20.3252Z" fill="url(#paint5_linear_6669_4597)"/>
<path d="M61.0445 21.8589C61.5585 21.2483 62.4972 21.13 63.1691 21.5808C63.1866 21.5925 63.2037 21.6047 63.2209 21.617C63.2379 21.6295 63.2547 21.6423 63.271 21.6552C63.9012 22.1557 64.0016 23.033 63.4876 23.6436C62.5116 24.803 60.2702 25.1219 60.2702 25.1219C60.2702 25.1219 60.0989 22.9821 61.0445 21.8587L61.0445 21.8589Z" fill="url(#paint6_linear_6669_4597)"/>
<path d="M61.6057 22.0748C61.6521 22.0478 61.7016 22.0258 61.7522 22.0056C61.8028 21.9857 61.8547 21.9685 61.9075 21.9539C62.0132 21.9247 62.1226 21.9057 62.2337 21.8985L62.2545 21.8972L62.265 21.8965L62.2753 21.8962L62.3171 21.8949C62.3311 21.8948 62.3449 21.8949 62.3589 21.8948L62.3799 21.8949L62.4008 21.8957C62.4567 21.8971 62.5124 21.9028 62.5679 21.9098C62.6641 21.9231 62.7592 21.9444 62.8519 21.9731L63.17 21.582C63.1875 21.5938 63.2046 21.606 63.2219 21.6183C63.2388 21.6307 63.2557 21.6435 63.272 21.6564L62.9403 22.0376C62.9924 22.1146 63.0372 22.1956 63.074 22.2795C63.0946 22.328 63.1137 22.3771 63.1285 22.4272L63.1342 22.4459L63.1394 22.4648C63.1426 22.4776 63.1463 22.4901 63.1494 22.5028L63.158 22.5408L63.1602 22.5503L63.162 22.5598L63.1655 22.5791C63.1844 22.6811 63.1907 22.7848 63.1855 22.8874C63.1829 22.9386 63.1773 22.9897 63.1685 23.0402C63.1595 23.0906 63.1482 23.1408 63.1313 23.1892C63.1444 23.1398 63.1515 23.0893 63.1565 23.0388C63.161 22.9882 63.1624 22.9375 63.1609 22.887C63.1579 22.786 63.1435 22.6855 63.1173 22.5882L63.1123 22.57L63.1098 22.5609L63.1069 22.5518L63.0957 22.5158C63.0917 22.5038 63.0873 22.4919 63.0831 22.4802L63.0768 22.4623L63.0698 22.4447C63.0519 22.3976 63.0297 22.352 63.0065 22.3073C62.9694 22.2379 62.9262 22.1715 62.8781 22.1086L62.2854 22.7896C62.3181 22.8599 62.3456 22.9319 62.3674 23.005C62.3792 23.0447 62.3897 23.0847 62.3984 23.1249C62.4069 23.1651 62.4145 23.2054 62.4202 23.2459C62.4259 23.2864 62.4303 23.3269 62.4333 23.3676C62.4361 23.4081 62.4375 23.4488 62.4376 23.4895C62.4375 23.53 62.4362 23.5705 62.433 23.6109C62.4298 23.6512 62.4257 23.6915 62.4183 23.7313C62.4215 23.691 62.4217 23.6509 62.4207 23.6107C62.4197 23.5705 62.4168 23.5305 62.413 23.4906C62.4089 23.4506 62.4034 23.411 62.3966 23.3714C62.3897 23.3319 62.3815 23.2928 62.3719 23.254C62.3624 23.2152 62.351 23.1768 62.3389 23.1387C62.3264 23.1007 62.3125 23.0632 62.2975 23.0262C62.2747 22.971 62.2485 22.9172 62.2197 22.8651L61.6778 23.4875C61.6886 23.5221 61.6974 23.557 61.7039 23.592C61.7104 23.6297 61.7153 23.6676 61.7177 23.7053C61.7198 23.7429 61.7206 23.7806 61.7197 23.818C61.7185 23.8554 61.7161 23.8927 61.7122 23.9297C61.7043 24.0038 61.6917 24.0769 61.6749 24.1489C61.6579 24.2209 61.6379 24.2922 61.6123 24.3615C61.63 24.2901 61.6421 24.2176 61.6507 24.1451C61.6594 24.0726 61.6636 23.9999 61.6632 23.9273C61.6629 23.8912 61.6613 23.8551 61.6582 23.8192C61.6552 23.7834 61.6504 23.7477 61.6444 23.7126C61.6381 23.6774 61.6298 23.6428 61.6199 23.6088C61.6157 23.5954 61.6113 23.5822 61.6066 23.5692L60.7639 24.5372L61.5723 23.5441C61.5574 23.5431 61.5425 23.542 61.5276 23.5415C61.4899 23.5407 61.4519 23.5415 61.4138 23.5442C61.3756 23.5469 61.3374 23.5512 61.2994 23.557C61.2612 23.5629 61.2232 23.57 61.1853 23.5783C61.1096 23.5952 61.0349 23.6164 60.9613 23.6416C60.8879 23.6667 60.8151 23.6948 60.7449 23.7279C60.8111 23.6882 60.8805 23.6529 60.9517 23.6205C61.0228 23.5882 61.0959 23.5593 61.1713 23.5345C61.209 23.5222 61.2472 23.5111 61.2861 23.5013C61.3247 23.4914 61.3642 23.4833 61.4041 23.4762C61.4441 23.4695 61.4846 23.4648 61.5254 23.4617C61.5635 23.4592 61.6019 23.4588 61.6406 23.4603L62.1603 22.8218C62.0989 22.808 62.0367 22.7973 61.9736 22.7898C61.9316 22.785 61.8891 22.7814 61.8466 22.7791C61.804 22.7772 61.7613 22.7761 61.7186 22.7768C61.6757 22.7775 61.633 22.7792 61.5903 22.7824C61.5475 22.7857 61.5047 22.7902 61.4622 22.7961C61.4198 22.802 61.3774 22.8091 61.3351 22.8177C61.293 22.8264 61.2511 22.836 61.2101 22.8486C61.2498 22.8325 61.2907 22.8191 61.332 22.8066C61.3734 22.7943 61.4153 22.7834 61.4575 22.7736C61.4998 22.764 61.5424 22.7556 61.5855 22.7485C61.6285 22.7414 61.6719 22.7356 61.7155 22.7313C61.7591 22.7267 61.803 22.7241 61.8469 22.7221C61.8909 22.7206 61.9349 22.7204 61.9792 22.7215C62.0607 22.724 62.1423 22.7317 62.2233 22.7445L62.7919 22.0459C62.7148 22.0173 62.6355 21.9942 62.5542 21.9771C62.502 21.9668 62.4492 21.9577 62.3958 21.9526L62.3758 21.9505L62.3558 21.949C62.3424 21.948 62.329 21.9469 62.3157 21.9461L62.2754 21.9445L62.2653 21.9442L62.2553 21.9441L62.2351 21.944C62.1273 21.9434 62.0192 21.9543 61.9132 21.9757C61.8601 21.9864 61.8076 21.9998 61.756 22.016C61.7045 22.0324 61.6536 22.0509 61.6052 22.0745L61.6057 22.0748Z" fill="url(#paint7_linear_6669_4597)"/>
<path d="M63.6636 24.2657C64.3148 23.8691 65.1841 24.0256 65.6344 24.6107C65.6462 24.6259 65.6575 24.6414 65.6686 24.6571C65.6797 24.6729 65.6903 24.6887 65.7008 24.7048C66.0982 25.3222 65.9057 26.1255 65.2544 26.5221C64.0181 27.2752 61.9307 26.9339 61.9307 26.9339C61.9307 26.9339 62.4655 24.9952 63.6636 24.2655L63.6636 24.2657Z" fill="url(#paint8_linear_6669_4597)"/>
<path d="M64.0919 24.612C64.1417 24.601 64.1927 24.5953 64.2438 24.5915C64.295 24.588 64.3465 24.5872 64.3979 24.589C64.5008 24.5926 64.604 24.6064 64.7047 24.6308L64.7235 24.6353L64.733 24.6376L64.7422 24.6403L64.7796 24.6507C64.7921 24.6545 64.8042 24.6585 64.8167 24.6623L64.8352 24.6683L64.8535 24.6748C64.9025 24.6916 64.95 24.7121 64.9969 24.7338C65.0779 24.7723 65.1553 24.8175 65.2282 24.8687L65.6356 24.6117C65.6474 24.6269 65.6587 24.6425 65.6698 24.6581C65.6809 24.6739 65.6915 24.6898 65.702 24.7058L65.2859 24.9503C65.3074 25.0329 65.3211 25.117 65.3267 25.2012C65.3293 25.2499 65.3306 25.2985 65.3276 25.3469L65.3266 25.3651L65.3251 25.3832C65.3238 25.3953 65.323 25.4075 65.3217 25.4195L65.317 25.4556L65.3158 25.4645L65.3144 25.4735L65.3113 25.4916C65.2953 25.587 65.2677 25.6803 65.2302 25.7696C65.2114 25.8142 65.19 25.8577 65.1661 25.8999C65.142 25.9419 65.1159 25.9832 65.0853 26.0213C65.1127 25.9812 65.1351 25.9385 65.1558 25.8954C65.1761 25.852 65.1935 25.8076 65.2085 25.7626C65.2382 25.6725 65.2578 25.5797 65.2657 25.4864L65.2671 25.4689L65.2679 25.4602L65.2683 25.4515L65.2699 25.4165C65.2703 25.4048 65.2703 25.3932 65.2702 25.3815L65.2702 25.364L65.2697 25.3464C65.269 25.2999 65.264 25.2535 65.2578 25.2075C65.2471 25.1358 65.2303 25.0651 65.2078 24.9962L64.4644 25.4332C64.4707 25.5044 64.472 25.5755 64.4679 25.6463C64.4655 25.6847 64.462 25.7229 64.4569 25.7609C64.4516 25.7988 64.4454 25.8365 64.4374 25.874C64.4293 25.9113 64.4202 25.9484 64.4098 25.9852C64.3993 26.0218 64.3875 26.0581 64.3746 26.0941C64.3615 26.1299 64.3473 26.1653 64.3315 26.2002C64.3158 26.2349 64.2991 26.2694 64.2799 26.3024C64.2958 26.2678 64.3088 26.2323 64.3208 26.1965C64.3328 26.1607 64.3432 26.1244 64.3524 26.0882C64.3615 26.0518 64.3694 26.0152 64.3761 25.9784C64.3827 25.9416 64.3878 25.9048 64.3918 25.8678C64.3959 25.8308 64.3981 25.7937 64.3995 25.7568C64.4008 25.7198 64.4004 25.6829 64.3989 25.646C64.3965 25.591 64.3906 25.5361 64.3817 25.482L63.7022 25.8814C63.7007 25.915 63.6972 25.9483 63.6919 25.9809C63.6856 26.0161 63.6776 26.0508 63.6677 26.0849C63.6575 26.1189 63.6461 26.1524 63.6332 26.1851C63.6202 26.2179 63.606 26.2502 63.5908 26.2817C63.56 26.345 63.5254 26.4062 63.4874 26.4652C63.4492 26.5241 63.4086 26.5815 63.3636 26.6357C63.4023 26.5775 63.4361 26.5167 63.4671 26.4552C63.498 26.3935 63.5252 26.3304 63.5481 26.2662C63.5594 26.2342 63.5695 26.2019 63.5784 26.1692C63.5873 26.1366 63.5945 26.1039 63.6004 26.0711C63.606 26.0383 63.6098 26.0054 63.612 25.9726C63.6127 25.9596 63.613 25.9467 63.613 25.9337L62.5561 26.5549L63.5906 25.9022C63.5778 25.897 63.565 25.8921 63.552 25.8875C63.5188 25.8763 63.4849 25.8664 63.4503 25.8582C63.4156 25.85 63.3804 25.843 63.3448 25.8376C63.3091 25.8323 63.2732 25.8279 63.2371 25.8248C63.1648 25.8187 63.0917 25.8167 63.0184 25.8183C62.9453 25.8199 62.8719 25.8247 62.7991 25.8343C62.8704 25.8176 62.9433 25.8058 63.0167 25.797C63.0901 25.788 63.1641 25.7829 63.2388 25.782C63.2761 25.7816 63.3135 25.7825 63.3511 25.7845C63.3885 25.7866 63.4261 25.7902 63.4637 25.7952C63.5012 25.8003 63.5386 25.8075 63.5759 25.8161C63.6104 25.8245 63.6445 25.8348 63.6783 25.8471L64.3435 25.4274C64.2936 25.3981 64.2418 25.3713 64.1885 25.3472C64.1528 25.3312 64.1164 25.3162 64.0794 25.3024C64.0424 25.2888 64.0049 25.2759 63.9669 25.2648C63.9288 25.2534 63.8903 25.243 63.8514 25.234C63.8125 25.225 63.7731 25.2172 63.7336 25.2105C63.6941 25.2039 63.6542 25.1983 63.6141 25.1942C63.5741 25.1901 63.5339 25.187 63.4934 25.1867C63.5337 25.1836 63.5743 25.183 63.6148 25.1836C63.6555 25.1842 63.696 25.1862 63.7367 25.1894C63.7772 25.1927 63.8177 25.197 63.8581 25.2027C63.8984 25.2084 63.9386 25.2154 63.9788 25.2236C64.0189 25.2317 64.0586 25.2415 64.0981 25.252C64.1376 25.2629 64.1767 25.2749 64.2155 25.2883C64.2868 25.3131 64.3566 25.3428 64.4243 25.3766L65.1521 24.9174C65.093 24.8708 65.0301 24.8282 64.9637 24.7906C64.9208 24.767 64.8769 24.7442 64.8313 24.7249L64.8144 24.7174L64.7971 24.7104C64.7855 24.7059 64.7741 24.7011 64.7624 24.6968L64.7273 24.6841L64.7185 24.681L64.7096 24.6782L64.6919 24.6725C64.5966 24.6421 64.4973 24.6218 64.3966 24.6112C64.3462 24.6058 64.2955 24.6031 64.2445 24.6031C64.1937 24.6034 64.1426 24.6055 64.0922 24.6129L64.0919 24.612Z" fill="url(#paint9_linear_6669_4597)"/>
<path d="M64.4726 27.6052C65.123 27.3865 65.8406 27.687 66.1018 28.2782C66.1086 28.2936 66.1151 28.3091 66.1213 28.3249C66.1274 28.3406 66.1332 28.3563 66.1386 28.3723C66.3468 28.9812 66.0039 29.6384 65.3534 29.8572C64.1185 30.2725 62.3876 29.5807 62.3876 29.5807C62.3876 29.5807 63.276 28.0078 64.4727 27.6054L64.4726 27.6052Z" fill="url(#paint10_linear_6669_4597)"/>
<path d="M64.7672 27.985C64.8125 27.9849 64.858 27.9898 64.9031 27.9961C64.948 28.0028 64.9929 28.0118 65.0369 28.0233C65.1252 28.0459 65.2114 28.0773 65.2929 28.1176L65.3082 28.1252L65.3159 28.1289L65.3234 28.133L65.3535 28.1492C65.3634 28.1547 65.3731 28.1605 65.383 28.1663L65.3978 28.1749L65.4122 28.1841C65.4509 28.2079 65.4875 28.2347 65.5234 28.2623C65.5849 28.3109 65.642 28.3648 65.6938 28.4228L66.1026 28.2782C66.1095 28.2936 66.1159 28.3092 66.1221 28.3249C66.1283 28.3406 66.134 28.3564 66.1394 28.3723L65.7258 28.5044C65.7261 28.5798 65.7197 28.6551 65.7061 28.729C65.6977 28.7715 65.6881 28.8137 65.6748 28.8551L65.67 28.8706L65.6648 28.8859C65.661 28.8961 65.6577 28.9065 65.6538 28.9166L65.6418 28.9469L65.6388 28.9544L65.6356 28.9619L65.6291 28.9768C65.5943 29.0562 65.5498 29.1315 65.4978 29.2015C65.4717 29.2365 65.4438 29.27 65.4138 29.3019C65.3837 29.3337 65.3521 29.3642 65.3173 29.3913C65.3499 29.362 65.3786 29.3294 65.406 29.296C65.4331 29.2622 65.458 29.2272 65.4807 29.1912C65.5263 29.1191 65.5635 29.0426 65.591 28.9636L65.596 28.9488L65.5986 28.9413L65.6008 28.9338L65.6099 28.9039C65.6127 28.8939 65.6152 28.8838 65.6178 28.8737L65.6216 28.8587L65.625 28.8435C65.6345 28.8031 65.6404 28.762 65.6451 28.7211C65.6516 28.6571 65.6526 28.593 65.6484 28.5292L64.9094 28.7652C64.8993 28.8278 64.8848 28.8896 64.8658 28.9499C64.8553 28.9825 64.8439 29.0149 64.8312 29.0467C64.8183 29.0784 64.8047 29.11 64.7895 29.1407C64.7744 29.1714 64.7584 29.2017 64.7413 29.2314C64.7242 29.2611 64.706 29.2902 64.6868 29.3187C64.6677 29.3472 64.6477 29.3751 64.6264 29.4023C64.6051 29.4293 64.5833 29.4559 64.5593 29.4807C64.5807 29.454 64.5997 29.4256 64.6179 29.397C64.6361 29.3684 64.6531 29.3391 64.6692 29.3095C64.685 29.2798 64.6999 29.2497 64.7137 29.2192C64.7275 29.1886 64.74 29.1577 64.7516 29.1267C64.7633 29.0955 64.7734 29.0638 64.7827 29.0322C64.7919 29.0005 64.7997 28.9685 64.8065 28.9364C64.8165 28.8883 64.8234 28.8399 64.8277 28.7914L64.1522 29.0071C64.1436 29.0358 64.1332 29.0639 64.1212 29.0911C64.1081 29.1204 64.0936 29.1488 64.0776 29.1763C64.0614 29.2037 64.0442 29.2304 64.0258 29.2562C64.0074 29.2821 63.988 29.3072 63.968 29.3316C63.9275 29.3804 63.8841 29.4267 63.8383 29.4703C63.7924 29.5141 63.7446 29.5558 63.6939 29.594C63.7401 29.551 63.7827 29.5052 63.823 29.4577C63.8633 29.4103 63.9007 29.3609 63.9345 29.3097C63.9514 29.2843 63.9671 29.2583 63.982 29.2319C63.9968 29.2053 64.0103 29.1785 64.0226 29.1513C64.0347 29.1241 64.0452 29.0962 64.0542 29.0685C64.0575 29.0573 64.0606 29.0462 64.0634 29.0352L63.0128 29.3706L64.051 29.0035C64.0412 28.9967 64.0311 28.9899 64.0208 28.9836C63.9946 28.9676 63.9674 28.9525 63.9392 28.939C63.9111 28.9254 63.8821 28.9126 63.8525 28.9011C63.8229 28.8897 63.7927 28.8791 63.7621 28.8696C63.7008 28.8507 63.638 28.8349 63.5744 28.8225C63.5107 28.81 63.4463 28.8001 63.381 28.7947C63.4464 28.7939 63.512 28.7974 63.5775 28.8038C63.6429 28.8101 63.7082 28.8197 63.7729 28.8331C63.8052 28.84 63.8374 28.8477 63.8695 28.8566C63.9014 28.8655 63.9331 28.8758 63.9646 28.8872C63.9958 28.8989 64.0267 28.9121 64.057 28.9266C64.085 28.9405 64.1123 28.9558 64.1388 28.9727L64.8064 28.7368C64.7697 28.702 64.7308 28.6689 64.6899 28.6381C64.6626 28.6175 64.6343 28.5976 64.6054 28.5787C64.5763 28.5599 64.5467 28.5416 64.5162 28.5248C64.4857 28.5077 64.4548 28.4915 64.4231 28.4762C64.3914 28.4611 64.3591 28.4467 64.3263 28.4335C64.2935 28.4202 64.2603 28.4078 64.2265 28.3968C64.1928 28.3856 64.1587 28.3753 64.1237 28.3674C64.1594 28.3723 64.1945 28.3796 64.2294 28.3877C64.2644 28.3958 64.2991 28.4054 64.3335 28.4157C64.3679 28.4262 64.402 28.4378 64.4356 28.4503C64.4693 28.4629 64.5025 28.4767 64.5353 28.4913C64.5682 28.5059 64.6004 28.5219 64.6323 28.5386C64.664 28.5554 64.6952 28.5734 64.7259 28.5923C64.7821 28.6273 64.8361 28.6661 64.8872 28.7083L65.6176 28.4501C65.5767 28.3985 65.5316 28.3498 65.4824 28.3046C65.4504 28.2761 65.4174 28.2481 65.3823 28.2226L65.3692 28.2131L65.3557 28.2038C65.3468 28.1975 65.3379 28.1914 65.3286 28.1854L65.301 28.1677L65.2941 28.1633L65.2871 28.1592L65.2729 28.1508C65.1971 28.1064 65.1157 28.07 65.0308 28.0416C64.9885 28.0274 64.9452 28.0154 64.9011 28.0058C64.857 27.9963 64.8123 27.9885 64.7671 27.9853L64.7672 27.985Z" fill="url(#paint11_linear_6669_4597)"/>
<path d="M50.2999 28.0333C48.6401 32.3387 51.1817 37.7694 50.2081 40.7972C50.2081 40.7972 58.9416 37.1014 61.0883 31.9752C62.219 29.2755 60.8464 26.2361 58.0176 25.076C57.9443 25.0458 57.8694 25.0169 57.7944 24.9893C57.7191 24.9618 57.6433 24.9356 57.5674 24.9114C54.6468 23.9708 51.3515 25.3057 50.3 28.0334L50.2999 28.0333Z" fill="url(#paint12_linear_6669_4597)"/>
<path d="M52.5487 28.2399C52.6942 28.107 52.8549 27.9896 53.0197 27.8793C53.1851 27.7696 53.3575 27.6693 53.5341 27.5778C53.8884 27.3953 54.2619 27.2478 54.6472 27.1421L54.7194 27.1223L54.7556 27.1123L54.792 27.1036L54.9377 27.0689C54.9865 27.0578 55.0358 27.0487 55.0846 27.0387L55.1578 27.024L55.2316 27.0117C55.4283 26.9762 55.6273 26.9564 55.8258 26.9408C56.1358 26.9208 56.446 26.9239 56.754 26.9491L55.5302 30.0184C55.2257 30.0534 54.9257 30.1075 54.6316 30.1802C54.4725 30.2202 54.3151 30.2648 54.1597 30.3146C54.0047 30.3653 53.8513 30.4191 53.7012 30.479C53.5506 30.5388 53.4023 30.6026 53.2566 30.6709C53.1112 30.7396 52.9687 30.8124 52.8286 30.8892C52.6888 30.9663 52.5518 31.0472 52.4182 31.133C52.2852 31.2188 52.1545 31.308 52.0315 31.4055C52.1636 31.3193 52.3023 31.2425 52.4426 31.1693C52.5832 31.0961 52.7266 31.0284 52.8718 30.965C53.0169 30.9015 53.1644 30.8425 53.3133 30.788C53.4626 30.7338 53.6132 30.6845 53.7651 30.6393C53.9168 30.594 54.071 30.5554 54.225 30.5195C54.3797 30.4849 54.5351 30.4556 54.6911 30.4307C54.9246 30.3944 55.1596 30.3704 55.3944 30.3585L54.2758 33.1637C54.1357 33.197 53.999 33.2368 53.866 33.2837C53.7231 33.3355 53.584 33.3931 53.4492 33.4573C53.3145 33.5222 53.1832 33.5909 53.0564 33.6651C52.9293 33.7395 52.8056 33.8173 52.6851 33.8992C52.4447 34.0632 52.2166 34.2399 52.0001 34.427C51.7836 34.6144 51.5763 34.8099 51.3856 35.0183C51.5985 34.8295 51.8254 34.656 52.059 34.4926C52.2927 34.3293 52.5358 34.1785 52.7861 34.0422C52.9113 33.9744 53.0394 33.9112 53.1685 33.8517C53.2978 33.7928 53.4295 33.7397 53.5625 33.6911C53.6957 33.6435 53.8308 33.6027 53.9665 33.5679C54.0204 33.5548 54.0746 33.5432 54.1287 33.5324L52.3886 37.8957L54.2799 33.5877C54.3117 33.6299 54.3431 33.6726 54.3733 33.7166C54.4478 33.8281 54.5175 33.9438 54.5805 34.0632C54.6429 34.183 54.7012 34.3054 54.7532 34.4308C54.805 34.5564 54.8528 34.6838 54.8954 34.813C54.9808 35.0718 55.0496 35.3366 55.1027 35.6048C55.1556 35.8729 55.1961 36.1441 55.2155 36.4177C55.2267 36.1437 55.2163 35.8686 55.1937 35.5937C55.1705 35.319 55.1312 35.0446 55.0736 34.7717C55.0445 34.6353 55.0102 34.4997 54.9712 34.3645C54.9316 34.2296 54.8853 34.0958 54.8338 33.9631C54.7812 33.8304 54.7208 33.6999 54.6536 33.5713C54.5899 33.4527 54.5185 33.3368 54.4398 33.2236L55.6558 30.4539C55.8195 30.6115 55.9749 30.778 56.1199 30.9529C56.2165 31.0699 56.3093 31.1901 56.3977 31.3134C56.4848 31.4374 56.5698 31.5632 56.6486 31.6929C56.7273 31.8223 56.8024 31.954 56.8726 32.0883C56.9423 32.2229 57.0076 32.3595 57.0683 32.4982C57.1288 32.6368 57.1848 32.7774 57.235 32.9203C57.2849 33.063 57.3308 33.2073 57.3656 33.3545C57.3462 33.205 57.3147 33.0563 57.2794 32.909C57.2434 32.7615 57.2018 32.6151 57.1548 32.47C57.1079 32.3249 57.0559 32.1811 56.9991 32.0384C56.9418 31.8959 56.8791 31.755 56.8122 31.6159C56.7453 31.4765 56.6714 31.3397 56.5945 31.2044C56.5166 31.0693 56.4333 30.9369 56.3455 30.8065C56.1826 30.5668 56.001 30.3367 55.8031 30.1182L57.1334 27.0878C57.3778 27.2646 57.6084 27.4588 57.8213 27.6702C57.9559 27.8074 58.0877 27.9482 58.206 28.0987L58.2514 28.1545L58.2948 28.2119C58.3233 28.2501 58.3527 28.2881 58.3806 28.3272L58.4622 28.4449L58.4828 28.4745L58.502 28.5048L58.5406 28.5651C58.7465 28.8871 58.9139 29.2323 59.0412 29.5907C59.105 29.7699 59.1584 29.9527 59.2004 30.1382C59.241 30.3238 59.274 30.5118 59.2845 30.7017C59.2893 30.5115 59.2715 30.3205 59.2455 30.131C59.2182 29.9417 59.1791 29.7535 59.1292 29.5673C59.0292 29.195 58.8871 28.8304 58.7017 28.4839L58.6667 28.4191L58.6494 28.3863L58.6308 28.3546L58.5559 28.2269C58.5305 28.1848 58.503 28.1434 58.4768 28.1013L58.4366 28.0388L58.3944 27.9776C58.2837 27.8126 58.1585 27.6566 58.0292 27.5031C57.8009 27.2397 57.5468 26.9949 57.2719 26.7713L58.0166 25.0753C57.9433 25.045 57.8685 25.0162 57.7934 24.9886C57.7181 24.9611 57.6423 24.9349 57.5664 24.9106L56.8815 26.6286C56.5171 26.6186 56.1528 26.6377 55.7939 26.6863C55.5874 26.717 55.3818 26.7524 55.1807 26.8034L55.105 26.8215L55.0302 26.8421C54.9804 26.8562 54.9304 26.8692 54.881 26.884L54.7334 26.9305L54.6966 26.942L54.6602 26.9551L54.5874 26.9806C54.1994 27.1176 53.8302 27.295 53.4862 27.5052C53.3145 27.6104 53.1489 27.724 52.9913 27.8456C52.8346 27.9684 52.6829 28.0974 52.5484 28.2403L52.5487 28.2399Z" fill="url(#paint13_linear_6669_4597)"/>
<path d="M17.4095 51.2975C15.8409 52.6408 13.4181 52.5792 11.9207 51.1843C11.8818 51.1481 11.8435 51.1108 11.8059 51.0729C11.7686 51.035 11.7318 50.9964 11.6962 50.9572C10.3263 49.4532 10.4609 47.201 12.0292 45.8575C15.0073 43.3068 20.8092 43.3615 20.8092 43.3615C20.8092 43.3615 20.295 48.826 17.4095 51.2975Z" fill="url(#paint14_linear_6669_4597)"/>
<path d="M16.0892 50.5414C15.9601 50.5917 15.825 50.6284 15.6887 50.6602C15.5522 50.6908 15.4136 50.7145 15.2737 50.7311C14.9938 50.7641 14.7088 50.7701 14.4254 50.7457L14.3724 50.7411L14.3457 50.7389L14.3193 50.7356L14.2134 50.7229C14.178 50.718 14.143 50.7121 14.1077 50.7069L14.0549 50.6987L14.0023 50.6886C13.8619 50.6636 13.7236 50.6279 13.5865 50.589C13.3495 50.5187 13.1186 50.4284 12.8973 50.3203L11.9204 51.1849C11.8815 51.1487 11.8432 51.1114 11.8056 51.0735C11.7683 51.0356 11.7315 50.997 11.6959 50.9578L12.7025 50.1236C12.6049 49.9091 12.5276 49.6876 12.4717 49.4619C12.4414 49.3314 12.4146 49.2005 12.3996 49.0681L12.3934 49.0186L12.3887 48.969C12.3861 48.9357 12.3825 48.9027 12.3805 48.8697L12.3757 48.7701L12.3746 48.7454L12.3742 48.7206L12.3738 48.6708C12.3712 48.4061 12.4012 48.1423 12.4597 47.8853C12.4891 47.7571 12.5258 47.6303 12.5701 47.5063C12.615 47.3824 12.6657 47.2603 12.7301 47.1446C12.6752 47.2644 12.6351 47.389 12.6001 47.5145C12.5662 47.6402 12.5401 47.7675 12.5215 47.8956C12.4844 48.1515 12.4763 48.4107 12.4993 48.6662L12.5037 48.7141L12.5059 48.738L12.5091 48.762L12.5214 48.8572C12.5261 48.8889 12.5318 48.9206 12.5371 48.9521L12.5453 48.9993L12.5552 49.0465C12.5796 49.172 12.6154 49.2955 12.6542 49.4174C12.7174 49.6068 12.7968 49.7909 12.8904 49.968L14.6887 48.4772C14.6373 48.2873 14.5996 48.0953 14.5765 47.9024C14.5645 47.7977 14.5558 47.693 14.5512 47.5882C14.5476 47.4835 14.546 47.3787 14.5498 47.2744C14.5534 47.1701 14.5603 47.0661 14.5709 46.9626C14.5817 46.859 14.5962 46.756 14.6141 46.6536C14.6322 46.5513 14.6534 46.4496 14.6791 46.3489C14.7049 46.2486 14.7334 46.1484 14.7696 46.0511C14.7435 46.1512 14.7254 46.2528 14.7101 46.3545C14.695 46.4564 14.6842 46.5584 14.6765 46.6606C14.6693 46.7629 14.6656 46.8652 14.6653 46.9673C14.6651 47.0695 14.669 47.1714 14.6758 47.2729C14.6824 47.3747 14.6942 47.4758 14.7081 47.5763C14.7227 47.6769 14.7412 47.7768 14.7628 47.8758C14.796 48.0238 14.8381 48.1696 14.8879 48.3122L16.5317 46.9496C16.5196 46.858 16.513 46.7668 16.512 46.676C16.5121 46.5782 16.517 46.481 16.5273 46.3849C16.5385 46.2888 16.553 46.1937 16.5723 46.0996C16.5917 46.0057 16.6144 45.9126 16.6404 45.8207C16.6932 45.637 16.7573 45.4572 16.8316 45.2819C16.9063 45.1067 16.9887 44.9345 17.084 44.7694C17.0078 44.9429 16.9452 45.121 16.8913 45.3005C16.8374 45.4801 16.7944 45.6622 16.7633 45.8451C16.7479 45.9364 16.7363 46.0281 16.7278 46.1198C16.7195 46.2117 16.7159 46.303 16.7156 46.3943C16.716 46.4853 16.7216 46.5759 16.7314 46.6653C16.736 46.7008 16.7415 46.7357 16.7475 46.7707L19.3039 44.6516L16.8229 46.847C16.86 46.8556 16.8969 46.8637 16.9343 46.8707C17.0293 46.887 17.1257 46.8998 17.2233 46.9076C17.3209 46.9151 17.4193 46.9193 17.518 46.9192C17.6168 46.9188 17.7161 46.9157 17.8153 46.909C18.0137 46.8954 18.2121 46.8705 18.409 46.8354C18.6058 46.8003 18.8018 46.7571 18.9939 46.7006C18.8091 46.7753 18.6182 46.8378 18.424 46.8923C18.2302 46.9467 18.0325 46.9915 17.8313 47.0253C17.7307 47.0418 17.6293 47.055 17.5268 47.0653C17.4247 47.0753 17.3216 47.0809 17.2176 47.0833C17.1138 47.0848 17.0094 47.0813 16.9047 47.0733C16.8075 47.0649 16.7102 47.0512 16.6133 47.0324L15.0181 48.4439C15.1669 48.5023 15.3194 48.5533 15.4753 48.5962C15.5794 48.6245 15.6848 48.65 15.7914 48.6718C15.898 48.6931 16.0055 48.7124 16.1136 48.7269C16.222 48.7417 16.3308 48.7536 16.4402 48.7621C16.5497 48.7701 16.6597 48.7751 16.7695 48.7767C16.8795 48.7783 16.9898 48.7766 17.1 48.771C17.2102 48.7651 17.3203 48.7569 17.4297 48.741C17.3224 48.7664 17.213 48.7847 17.1034 48.8002C16.9935 48.8155 16.8827 48.827 16.7717 48.8353C16.6605 48.8434 16.5491 48.8482 16.4373 48.8498C16.3254 48.8509 16.2134 48.8489 16.1012 48.8435C15.9892 48.8382 15.8772 48.8283 15.7653 48.8163C15.6536 48.8034 15.5421 48.7868 15.431 48.7669C15.2264 48.7296 15.0237 48.6788 14.8248 48.6152L13.0794 50.1597C13.2614 50.2612 13.4517 50.3499 13.6493 50.4242C13.7765 50.4702 13.9057 50.5135 14.0384 50.5467L14.0878 50.5598L14.1379 50.5713C14.1711 50.5787 14.2044 50.5868 14.2381 50.5937L14.3391 50.6132L14.3643 50.6179L14.3897 50.6219L14.4405 50.6299C14.7124 50.6724 14.9903 50.6863 15.2675 50.6731C15.4062 50.6663 15.5448 50.6528 15.682 50.6318C15.8194 50.61 15.9564 50.5828 16.0889 50.5418L16.0892 50.5414Z" fill="url(#paint15_linear_6669_4597)"/>
<path d="M36.0736 37.0701C37.1452 36.8672 37.8439 35.9134 37.6684 34.9171C37.6638 34.8912 37.6587 34.8653 37.653 34.8394C37.6472 34.8136 37.641 34.7879 37.6341 34.7625C37.3715 33.7826 36.3231 33.1594 35.2514 33.3622C33.2169 33.7473 31.5018 36.0036 31.5018 36.0036C31.5018 36.0036 34.1021 37.4434 36.0735 37.0702L36.0736 37.0701Z" fill="url(#paint16_linear_6669_4597)"/>
<path d="M36.1291 36.3326C36.1903 36.2979 36.2473 36.2568 36.3024 36.2137C36.3571 36.1702 36.4092 36.1237 36.4585 36.0747C36.5573 35.9766 36.6453 35.8683 36.7194 35.7515L36.7332 35.7297L36.7402 35.7187L36.7466 35.7076L36.7727 35.6629C36.7811 35.6477 36.789 35.6325 36.7972 35.6173L36.8094 35.5945L36.8206 35.5711C36.8516 35.5094 36.8771 35.4454 36.9007 35.3806C36.9402 35.2681 36.9691 35.1519 36.9871 35.034L37.6669 34.9161C37.6623 34.8901 37.6572 34.8642 37.6514 34.8383C37.6457 34.8125 37.6395 34.7868 37.6325 34.7614L36.9574 34.8999C36.8907 34.7979 36.8147 34.7017 36.7304 34.6124C36.6811 34.5617 36.6305 34.5121 36.5757 34.4666L36.5554 34.4493L36.5347 34.4326C36.5205 34.4217 36.5067 34.4103 36.4926 34.3997L36.4495 34.3679L36.4388 34.3601L36.4277 34.3525L36.4056 34.3373C36.2879 34.257 36.1608 34.1894 36.0283 34.135C35.9621 34.1079 35.8943 34.0841 35.8256 34.064C35.7566 34.0443 35.6868 34.0272 35.6156 34.0174C35.6857 34.032 35.7535 34.0539 35.8201 34.078C35.8866 34.1026 35.9514 34.1307 36.0142 34.1619C36.14 34.2244 36.2584 34.2988 36.3657 34.3844L36.3857 34.4006L36.396 34.4085L36.4056 34.4169L36.4446 34.4502C36.4573 34.4615 36.4699 34.4732 36.4824 34.4847L36.5011 34.502L36.5192 34.52C36.5682 34.5671 36.6126 34.6178 36.6556 34.6695C36.7214 34.7506 36.78 34.8366 36.8313 34.9258L35.6249 35.1731C35.5554 35.0964 35.4807 35.0242 35.4013 34.9576C35.358 34.9215 35.3138 34.8867 35.2682 34.8535C35.2224 34.8208 35.176 34.7887 35.1281 34.7588C35.0804 34.729 35.0318 34.7005 34.9822 34.6735C34.9326 34.6467 34.8822 34.6214 34.8311 34.5975C34.7797 34.5738 34.728 34.5515 34.6752 34.5312C34.6225 34.5111 34.5691 34.4921 34.5149 34.4768C34.5675 34.4968 34.6184 34.5202 34.6685 34.5448C34.7186 34.5695 34.7675 34.596 34.8156 34.6236C34.8635 34.6514 34.9104 34.6807 34.9562 34.7112C35.0019 34.7417 35.0465 34.7738 35.0899 34.8068C35.1335 34.8399 35.1752 34.8747 35.2159 34.9102C35.2566 34.946 35.2958 34.9831 35.3335 35.0211C35.3899 35.0783 35.4425 35.1382 35.4914 35.2003L34.3886 35.4265C34.3512 35.3944 34.3124 35.3644 34.2721 35.3369C34.2283 35.3077 34.1834 35.2803 34.1371 35.2555C34.0908 35.231 34.0439 35.2081 33.996 35.1874C33.9481 35.1667 33.8997 35.1475 33.8506 35.13C33.7526 35.0952 33.6529 35.0662 33.5521 35.0423C33.4513 35.0186 33.3496 34.9988 33.247 34.9861C33.3477 35.0086 33.4461 35.0378 33.5425 35.0709C33.6391 35.1039 33.7334 35.142 33.8247 35.1848C33.87 35.2062 33.9146 35.2294 33.9582 35.2534C34.0018 35.2777 34.0438 35.3038 34.0846 35.331C34.1253 35.3584 34.1641 35.3877 34.2012 35.4183C34.2157 35.4306 34.2297 35.4433 34.2435 35.4561L32.5285 35.8078L34.2551 35.5081C34.2478 35.525 34.2403 35.5417 34.2323 35.5582C34.2112 35.5998 34.188 35.6407 34.1623 35.6808C34.1364 35.7207 34.1087 35.7599 34.0791 35.798C34.0493 35.836 34.0182 35.8734 33.9854 35.9097C33.9198 35.9823 33.8491 36.0514 33.7745 36.1169C33.6998 36.1823 33.6217 36.2449 33.5389 36.3022C33.6277 36.2533 33.7129 36.1982 33.7956 36.1396C33.8781 36.0811 33.9573 36.0182 34.0327 35.9506C34.0702 35.9167 34.1066 35.8816 34.142 35.845C34.1771 35.8086 34.2105 35.7705 34.2426 35.7311C34.2745 35.6915 34.3042 35.6502 34.332 35.6073C34.3574 35.5671 34.3804 35.5255 34.4011 35.4825L35.5112 35.2898C35.4926 35.3647 35.4697 35.4389 35.4423 35.512C35.4238 35.5606 35.4036 35.609 35.3815 35.6567C35.359 35.7044 35.3355 35.7515 35.3095 35.7976C35.2837 35.8438 35.2563 35.8894 35.2274 35.9342C35.1982 35.9789 35.1676 36.0228 35.1352 36.0657C35.103 36.1086 35.0691 36.1507 35.0335 36.1916C34.9979 36.2325 34.9611 36.2724 34.9212 36.3099C34.9649 36.276 35.0059 36.2393 35.0456 36.2016C35.0854 36.1637 35.1237 36.1244 35.1607 36.0841C35.1976 36.0436 35.2333 36.002 35.2674 35.9593C35.3016 35.9164 35.3341 35.8727 35.3654 35.8277C35.3966 35.7829 35.4257 35.7367 35.4539 35.6898C35.4817 35.6428 35.5076 35.5948 35.5321 35.5459C35.5767 35.4558 35.6147 35.3622 35.646 35.2664L36.8606 35.0555C36.8515 35.1562 36.8342 35.2563 36.8082 35.3549C36.7905 35.4177 36.7712 35.4806 36.7464 35.5419L36.7374 35.5649L36.7276 35.5877C36.7209 35.6027 36.7145 35.618 36.7075 35.6332L36.686 35.678L36.6807 35.6892L36.6748 35.7002L36.6632 35.7221C36.6008 35.84 36.5236 35.9513 36.4346 36.0544C36.3901 36.1059 36.3424 36.1553 36.2918 36.2019C36.2409 36.2483 36.1876 36.2931 36.1295 36.332L36.1291 36.3326Z" fill="url(#paint17_linear_6669_4597)"/>
<path d="M34.7729 32.7938C35.5826 32.3479 35.8622 31.3876 35.4183 30.622C35.4068 30.6021 35.3948 30.5824 35.3822 30.5627C35.3697 30.5432 35.3568 30.524 35.3435 30.5049C34.8338 29.7756 33.7931 29.5426 32.9835 29.9885C31.4461 30.8352 30.7344 33.1225 30.7344 33.1225C30.7344 33.1225 33.2832 33.6142 34.7729 32.7938Z" fill="url(#paint18_linear_6669_4597)"/>
<path d="M34.5974 32.179C34.6366 32.1348 34.6705 32.0862 34.7023 32.0367C34.7335 31.987 34.7619 31.9355 34.7872 31.8825C34.8377 31.7767 34.8766 31.6655 34.9015 31.5509L34.9061 31.5294L34.9085 31.5186L34.9103 31.5079L34.9179 31.4646C34.9202 31.4501 34.9219 31.4356 34.9241 31.4211L34.927 31.3993L34.9291 31.3774C34.9355 31.319 34.9369 31.2602 34.9367 31.2013C34.9348 31.0993 34.923 30.997 34.9021 30.8963L35.4191 30.6221C35.4076 30.6022 35.3956 30.5825 35.383 30.5628C35.3706 30.5433 35.3577 30.524 35.3443 30.505L34.8374 30.7947C34.7523 30.7292 34.6615 30.6706 34.5659 30.62C34.5104 30.5915 34.4543 30.5644 34.3962 30.5417L34.3745 30.533L34.3525 30.5248C34.3377 30.5195 34.3231 30.5139 34.3084 30.509L34.2638 30.4944L34.2528 30.4908L34.2415 30.4876L34.2188 30.481C34.0989 30.4463 33.9752 30.4247 33.8509 30.4151C33.7889 30.4103 33.7265 30.4087 33.6646 30.4104C33.6026 30.4125 33.5406 30.4168 33.4799 30.4274C33.5413 30.4211 33.6031 30.4211 33.6645 30.4233C33.7259 30.4259 33.7872 30.4319 33.8477 30.4408C33.9687 30.4586 34.0875 30.4884 34.2007 30.5299L34.2219 30.5377L34.2325 30.5416L34.243 30.546L34.2848 30.5629C34.2986 30.5687 34.3123 30.5751 34.3259 30.5812L34.3462 30.5904L34.3664 30.6003C34.4204 30.6259 34.4721 30.6555 34.5225 30.6863C34.6006 30.7352 34.674 30.7898 34.7427 30.8491L33.8368 31.3665C33.7571 31.3223 33.6746 31.283 33.5898 31.2495C33.5438 31.2315 33.4972 31.2147 33.4501 31.1996C33.403 31.1849 33.3556 31.171 33.3077 31.1591C33.2599 31.1474 33.2117 31.1368 33.1632 31.1278C33.1148 31.1189 33.0661 31.1115 33.0173 31.1056C32.9685 31.0996 32.9195 31.0952 32.8705 31.0924C32.8217 31.0898 32.7724 31.0882 32.7236 31.0902C32.7725 31.0926 32.8209 31.0984 32.869 31.1053C32.9172 31.1123 32.965 31.121 33.0124 31.131C33.0598 31.1411 33.1068 31.1527 33.1532 31.1655C33.1998 31.1784 33.2455 31.1929 33.2909 31.2084C33.3363 31.2239 33.3809 31.2414 33.4247 31.2596C33.4686 31.278 33.5115 31.298 33.5538 31.3191C33.6169 31.351 33.6778 31.3859 33.7363 31.4236L32.9084 31.8968C32.8682 31.8804 32.8277 31.8663 32.7866 31.8543C32.7421 31.8419 32.6974 31.8316 32.6523 31.8234C32.6072 31.8156 32.5622 31.8092 32.517 31.8048C32.4719 31.8005 32.4266 31.7976 32.3816 31.7962C32.2913 31.7936 32.2015 31.7959 32.1124 31.8029C32.0232 31.81 31.9345 31.8205 31.8474 31.837C31.9359 31.8289 32.0248 31.8271 32.1132 31.8287C32.2016 31.8303 32.2899 31.8366 32.377 31.8476C32.4204 31.8531 32.4635 31.8603 32.5064 31.8685C32.5492 31.8768 32.5912 31.8871 32.6325 31.8986C32.6739 31.9102 32.7144 31.924 32.7538 31.9391C32.7693 31.9454 32.7845 31.952 32.7995 31.9589L31.5119 32.6946L32.8248 31.9982C32.8239 32.0138 32.823 32.0293 32.8215 32.045C32.8168 32.0844 32.8105 32.1239 32.8016 32.1633C32.7927 32.2026 32.7821 32.2417 32.7695 32.2806C32.7568 32.3194 32.7428 32.358 32.7272 32.3962C32.6958 32.4725 32.6594 32.5473 32.6184 32.6202C32.5775 32.6931 32.5329 32.7646 32.4829 32.833C32.5403 32.7699 32.5929 32.7026 32.6424 32.6333C32.6917 32.5641 32.7372 32.4921 32.778 32.4173C32.7983 32.3799 32.8173 32.3417 32.8348 32.3027C32.8523 32.2638 32.8679 32.224 32.8822 32.1835C32.8961 32.1429 32.9076 32.1014 32.9174 32.0592C32.9259 32.0199 32.9319 31.9799 32.9358 31.9394L33.78 31.4916C33.7876 31.5575 33.7914 31.6239 33.7912 31.6906C33.7909 31.7351 33.789 31.7797 33.7854 31.8243C33.7816 31.869 33.7767 31.9137 33.7695 31.9579C33.7625 32.0024 33.7541 32.0467 33.7441 32.0908C33.7339 32.1348 33.7221 32.1786 33.7089 32.2221C33.6956 32.2656 33.6809 32.3087 33.6643 32.3512C33.6477 32.3937 33.6299 32.4361 33.6088 32.4769C33.6339 32.4379 33.6562 32.3973 33.6771 32.3561C33.698 32.3149 33.7173 32.2727 33.7351 32.2302C33.7529 32.1876 33.7693 32.1444 33.7842 32.1006C33.7989 32.0568 33.8122 32.0126 33.8239 31.9678C33.8357 31.9232 33.8455 31.8779 33.8542 31.8323C33.8624 31.7867 33.8691 31.7408 33.8742 31.6945C33.8833 31.6094 33.8858 31.5232 33.8821 31.437L34.8057 30.947C34.8287 31.0314 34.8449 31.1176 34.8536 31.2046C34.8584 31.2605 34.8617 31.3168 34.8599 31.3731L34.8596 31.3942L34.8585 31.4153C34.8577 31.4294 34.8572 31.4435 34.856 31.4577L34.852 31.4998L34.851 31.5104L34.8497 31.5209L34.8468 31.5419C34.8317 31.6542 34.8026 31.7652 34.7615 31.8725C34.7408 31.9261 34.717 31.9789 34.6901 32.0301C34.6628 32.0813 34.6331 32.1317 34.5975 32.1787L34.5974 32.179Z" fill="url(#paint19_linear_6669_4597)"/>
<path d="M32.3049 29.611C32.8346 29.0121 32.7569 28.1328 32.1398 27.6184C32.1238 27.605 32.1073 27.5921 32.0907 27.579C32.074 27.5663 32.057 27.5537 32.0399 27.5417C31.3797 27.076 30.4384 27.1731 29.9086 27.772C28.9029 28.9091 29.0502 31.0168 29.0502 31.0168C29.0502 31.0168 31.3306 30.7126 32.3051 29.6109L32.3049 29.611Z" fill="url(#paint20_linear_6669_4597)"/>
<path d="M31.9599 29.1463C31.9782 29.0983 31.9906 29.0484 32.001 28.9981C32.0109 28.9478 32.0179 28.8969 32.0218 28.8457C32.0297 28.7432 32.0261 28.6396 32.0098 28.537L32.0067 28.5179L32.0052 28.5082L32.0032 28.4987L31.9956 28.4604C31.9927 28.4476 31.9896 28.4351 31.9867 28.4223L31.9821 28.4033L31.9768 28.3844C31.9633 28.3339 31.9454 28.2844 31.9261 28.2354C31.8915 28.1508 31.8487 28.0688 31.7987 27.9907L32.1403 27.6172C32.1243 27.6038 32.1078 27.5909 32.0912 27.5778C32.0745 27.5651 32.0575 27.5525 32.0404 27.5404L31.7121 27.9241C31.6201 27.8933 31.5255 27.8699 31.4297 27.8544C31.3744 27.8462 31.3189 27.8393 31.2632 27.8366L31.2423 27.8354L31.2213 27.8348C31.2073 27.8346 31.1933 27.8339 31.1794 27.8339L31.1376 27.8342L31.1273 27.8342L31.1169 27.8347L31.0959 27.8356C30.9849 27.8404 30.8748 27.8569 30.7684 27.8837C30.7153 27.8971 30.6629 27.9131 30.6119 27.932C30.5609 27.951 30.5108 27.9721 30.4636 27.9979C30.5126 27.9753 30.564 27.958 30.6159 27.9426C30.6679 27.9277 30.7208 27.9155 30.7741 27.906C30.8806 27.887 30.9891 27.8785 31.0967 27.8814L31.1169 27.882L31.127 27.8823L31.1371 27.8831L31.1773 27.8856C31.1907 27.8866 31.2042 27.8881 31.2174 27.8893L31.2374 27.8912L31.2574 27.8938C31.3106 27.9 31.3632 27.9103 31.415 27.9219C31.4958 27.9407 31.5747 27.9657 31.6509 27.996L31.0644 28.6816C30.9837 28.6669 30.9022 28.6574 30.8209 28.6532C30.7768 28.6511 30.7326 28.6501 30.6886 28.6508C30.6446 28.6517 30.6007 28.6534 30.557 28.6569C30.5133 28.6605 30.4699 28.6652 30.4266 28.6712C30.3835 28.6773 30.3405 28.6848 30.2979 28.6935C30.2554 28.7023 30.2133 28.7122 30.1715 28.7238C30.1301 28.7354 30.0886 28.7478 30.0486 28.7631C30.09 28.7515 30.1321 28.7427 30.1744 28.7349C30.2168 28.7272 30.2594 28.7212 30.302 28.7161C30.3448 28.7113 30.3875 28.7077 30.4305 28.7054C30.4734 28.7032 30.5161 28.7023 30.5589 28.7027C30.6016 28.7029 30.6443 28.705 30.6869 28.7079C30.7294 28.7111 30.7717 28.7157 30.8137 28.7214C30.8765 28.7302 30.9385 28.7425 30.9993 28.7576L30.4633 29.3843C30.4247 29.3819 30.3862 29.3814 30.3481 29.383C30.3071 29.3852 30.2664 29.3889 30.2264 29.3948C30.1864 29.401 30.1468 29.4083 30.1078 29.4172C30.0688 29.4263 30.0303 29.4366 29.9923 29.448C29.9163 29.4712 29.8423 29.4983 29.7704 29.5291C29.6986 29.5601 29.6282 29.5936 29.561 29.6317C29.6321 29.6003 29.7055 29.5737 29.7796 29.5503C29.8538 29.5268 29.9291 29.5073 30.0053 29.4921C30.0432 29.4846 30.0814 29.4783 30.1197 29.4734C30.1579 29.4684 30.1963 29.4651 30.2345 29.463C30.2728 29.4612 30.3107 29.4613 30.3485 29.463C30.3635 29.464 30.3783 29.4651 30.393 29.4666L29.5592 30.4413L30.4266 29.4925C30.4309 29.5058 30.4352 29.5191 30.4389 29.5325C30.4479 29.5667 30.4552 29.6014 30.4606 29.6367C30.4659 29.672 30.4697 29.7076 30.4718 29.7435C30.4737 29.7794 30.4745 29.8156 30.4739 29.8518C30.4725 29.9243 30.4663 29.9969 30.4557 30.0692C30.4452 30.1414 30.4313 30.2137 30.4118 30.2847C30.4392 30.2159 30.4612 30.1451 30.4799 30.0735C30.4985 30.0018 30.5131 29.9291 30.5228 29.8551C30.5277 29.8182 30.5311 29.7811 30.533 29.7436C30.535 29.7063 30.5351 29.6686 30.534 29.6308C30.5324 29.5931 30.5286 29.5552 30.5231 29.5174C30.5175 29.4822 30.5097 29.4472 30.4998 29.4123L31.0575 28.8023C31.0852 28.8551 31.1098 28.9094 31.1311 28.9652C31.1453 29.0024 31.1582 29.0403 31.1697 29.0785C31.1809 29.1168 31.1912 29.1554 31.1996 29.1944C31.2082 29.2336 31.2155 29.2729 31.2213 29.3124C31.2271 29.352 31.2315 29.3919 31.2345 29.4318C31.2374 29.4717 31.2392 29.5118 31.2392 29.5521C31.2391 29.5923 31.238 29.6324 31.2337 29.6725C31.242 29.6329 31.2473 29.5928 31.2514 29.5526C31.2555 29.5122 31.2579 29.4718 31.2591 29.4313C31.2601 29.3907 31.2597 29.3501 31.2579 29.3094C31.2561 29.2688 31.2528 29.2281 31.248 29.1875C31.2434 29.1468 31.2368 29.1063 31.2294 29.066C31.2216 29.0256 31.2123 28.9855 31.2016 28.9455C31.1815 28.8718 31.1559 28.7993 31.125 28.7283L31.7353 28.0609C31.7818 28.1249 31.8231 28.1921 31.8585 28.2623C31.8805 28.3077 31.9014 28.3537 31.9182 28.4012L31.9247 28.4189L31.9306 28.4368C31.9345 28.4488 31.9386 28.4607 31.9422 28.4727L31.9526 28.509L31.9551 28.5181L31.9574 28.5272L31.9618 28.5455C31.9855 28.6435 31.9973 28.7441 31.9977 28.8452C31.9979 28.8958 31.9951 28.9464 31.9893 28.9969C31.9831 29.0472 31.9746 29.0975 31.9603 29.1466L31.9599 29.1463Z" fill="url(#paint21_linear_6669_4597)"/>
<path d="M29.2178 27.7452C29.4937 27.0675 29.1428 26.3104 28.4325 26.0265C28.4141 26.019 28.3954 26.0121 28.3765 26.0053C28.3576 25.9986 28.3387 25.9924 28.3196 25.9863C27.5869 25.7575 26.786 26.1053 26.5102 26.783C25.9863 28.0696 26.7928 29.8952 26.7928 29.8952C26.7928 29.8952 28.7104 28.992 29.2181 27.7452L29.2178 27.7452Z" fill="url(#paint22_linear_6669_4597)"/>
<path d="M28.7637 27.4306C28.7645 27.383 28.7595 27.3353 28.7525 27.288C28.7452 27.2407 28.7349 27.1937 28.722 27.1472C28.6961 27.0544 28.6595 26.9635 28.6123 26.8772L28.6035 26.861L28.599 26.8529L28.5942 26.8451L28.5753 26.8132C28.5686 26.8027 28.5618 26.7925 28.5551 26.782L28.5449 26.7665L28.5341 26.7513C28.506 26.7102 28.4743 26.6714 28.4414 26.6334C28.3837 26.5681 28.3196 26.5073 28.2503 26.452L28.4322 26.0262C28.4137 26.0187 28.395 26.0118 28.3762 26.005C28.3572 25.9983 28.3383 25.992 28.3192 25.986L28.1523 26.4171C28.0611 26.4153 27.97 26.4209 27.8805 26.4338C27.8289 26.442 27.7777 26.4512 27.7275 26.4644L27.7087 26.4692L27.69 26.4745C27.6776 26.4782 27.665 26.4815 27.6528 26.4854L27.6159 26.4974L27.6068 26.5004L27.5977 26.5036L27.5794 26.5102C27.4828 26.5453 27.3909 26.5905 27.3054 26.6439C27.2627 26.6706 27.2216 26.6994 27.1825 26.7302C27.1436 26.7612 27.106 26.7937 27.0726 26.8298C27.1088 26.7962 27.1487 26.7666 27.1895 26.7386C27.2306 26.7108 27.2734 26.6853 27.3174 26.662C27.4055 26.6157 27.4985 26.5779 27.5946 26.5506L27.6126 26.5456L27.6216 26.543L27.6307 26.5408L27.667 26.5318C27.6792 26.5289 27.6914 26.5265 27.7037 26.524L27.722 26.5202L27.7405 26.5169C27.7894 26.5076 27.8392 26.5021 27.8888 26.4979C27.9662 26.4923 28.044 26.4924 28.121 26.498L27.8227 27.2682C27.7467 27.2778 27.6718 27.2918 27.5985 27.3108C27.5587 27.3212 27.5195 27.3327 27.4807 27.3454C27.4421 27.3584 27.4038 27.3722 27.3663 27.3876C27.3289 27.4029 27.2919 27.4191 27.2557 27.4365C27.2195 27.4539 27.1839 27.4725 27.1491 27.492C27.1143 27.5115 27.0803 27.5321 27.047 27.5539C27.014 27.5757 26.9815 27.5983 26.951 27.6228C26.9839 27.601 27.0183 27.5815 27.0533 27.5629C27.0882 27.5442 27.124 27.527 27.16 27.5108C27.1962 27.4948 27.2329 27.4797 27.27 27.4658C27.3071 27.4518 27.3447 27.4392 27.3826 27.4277C27.4205 27.416 27.4589 27.406 27.4973 27.3968C27.5358 27.3877 27.5746 27.3801 27.6136 27.3735C27.6718 27.3639 27.7305 27.3574 27.7893 27.3539L27.5166 28.0579C27.4816 28.0666 27.4475 28.0768 27.4144 28.0887C27.3789 28.102 27.3442 28.1168 27.3106 28.1331C27.2771 28.1496 27.2445 28.1672 27.2129 28.186C27.1814 28.2049 27.1506 28.2247 27.1207 28.2454C27.061 28.2869 27.0043 28.3316 26.9506 28.3789C26.8971 28.4263 26.8456 28.4755 26.7985 28.5281C26.8512 28.4804 26.9076 28.4365 26.9655 28.3952C27.0235 28.3538 27.0839 28.3155 27.1462 28.2809C27.1773 28.2636 27.2091 28.2475 27.2414 28.2324C27.2736 28.2173 27.3064 28.2038 27.3396 28.1913C27.3728 28.1791 27.4064 28.1687 27.4403 28.1596C27.4538 28.1562 27.4673 28.1531 27.4808 28.1504L27.0567 29.2453L27.5187 28.1639C27.5269 28.1745 27.5348 28.185 27.5424 28.1959C27.5613 28.2237 27.579 28.2524 27.595 28.2821C27.611 28.3119 27.6259 28.3424 27.6393 28.3737C27.6525 28.405 27.6648 28.4367 27.6759 28.4689C27.6978 28.5333 27.7156 28.5994 27.7297 28.6664C27.7437 28.7333 27.7544 28.8011 27.76 28.8694C27.7622 28.8009 27.7589 28.7321 27.7524 28.6634C27.746 28.5948 27.7354 28.5263 27.7204 28.4581C27.7128 28.4241 27.7037 28.3903 27.6936 28.3565C27.6834 28.323 27.6715 28.2895 27.6582 28.2564C27.6448 28.2234 27.6292 28.1909 27.6121 28.1588C27.596 28.1292 27.5778 28.1004 27.5577 28.0723L27.8547 27.377C27.8961 27.416 27.9353 27.4574 27.9721 27.5007C27.9966 27.5298 28.0201 27.5596 28.0425 27.5903C28.0648 27.6211 28.0863 27.6524 28.1061 27.6846C28.1262 27.7168 28.1454 27.7496 28.1632 27.7831C28.181 27.8166 28.1977 27.8506 28.2132 27.8852C28.2286 27.9197 28.2431 27.9548 28.256 27.9903C28.2689 28.0259 28.2807 28.0618 28.2897 28.0986C28.2844 28.0612 28.2762 28.0242 28.267 27.9874C28.2576 27.9506 28.2467 27.9141 28.2347 27.8778C28.2225 27.8417 28.2093 27.8058 28.1947 27.7702C28.18 27.7348 28.164 27.6997 28.1468 27.6649C28.1296 27.6302 28.1109 27.5962 28.0913 27.5625C28.0715 27.5289 28.0504 27.496 28.028 27.4635C27.9867 27.4039 27.9406 27.3468 27.8906 27.2925L28.2156 26.5317C28.2772 26.5755 28.3353 26.6235 28.3891 26.6759C28.423 26.7098 28.4563 26.7448 28.4864 26.7822L28.4979 26.796L28.5089 26.8102C28.5161 26.8197 28.5236 26.8292 28.5307 26.8388L28.5515 26.868L28.5567 26.8753L28.5615 26.8828L28.5713 26.8978C28.6236 26.9779 28.6663 27.0639 28.699 27.1532C28.7155 27.1979 28.7293 27.2435 28.7402 27.2898C28.7509 27.3362 28.7595 27.3831 28.7626 27.4305L28.7637 27.4306Z" fill="url(#paint23_linear_6669_4597)"/>
<path d="M25.5428 27.7286C25.6322 27.0899 25.163 26.5018 24.4871 26.3912C24.4695 26.3883 24.4517 26.3857 24.4339 26.3835C24.4161 26.3813 24.3984 26.3794 24.3805 26.3779C23.6973 26.3194 23.082 26.7726 22.9924 27.4114C22.8224 28.6241 23.9198 30.05 23.9198 30.05C23.9198 30.05 25.3779 28.9038 25.5426 27.7287L25.5428 27.7286Z" fill="url(#paint24_linear_6669_4597)"/>
<path d="M25.0815 27.5426C25.0718 27.5014 25.0569 27.4611 25.0407 27.4214C25.0239 27.3819 25.0048 27.3431 24.9834 27.3055C24.9406 27.23 24.8892 27.1584 24.8294 27.0929L24.8182 27.0806L24.8126 27.0744L24.8067 27.0684L24.7833 27.0446C24.7753 27.0367 24.7672 27.0292 24.759 27.0214L24.7468 27.0097L24.7341 26.9987C24.7008 26.9686 24.6648 26.941 24.6282 26.9143C24.564 26.8688 24.4952 26.8285 24.4233 26.7938L24.487 26.3907C24.4694 26.3879 24.4517 26.3853 24.4339 26.3831C24.4161 26.3808 24.3983 26.379 24.3804 26.3775L24.3309 26.7822C24.2517 26.7981 24.1742 26.8202 24.0996 26.8484C24.0569 26.8652 24.0147 26.8829 23.9742 26.9039L23.9589 26.9116L23.944 26.9197C23.9341 26.9253 23.9239 26.9306 23.9142 26.9363L23.885 26.9537L23.8778 26.958L23.8705 26.9626L23.8563 26.9717C23.7806 27.0204 23.7112 27.0771 23.649 27.1395C23.6179 27.1707 23.5888 27.2033 23.5618 27.2374C23.5349 27.2716 23.5097 27.307 23.4888 27.3444C23.5126 27.3085 23.5405 27.2754 23.5697 27.2432C23.5992 27.2113 23.6306 27.1812 23.6634 27.1528C23.7292 27.0959 23.8014 27.0455 23.8784 27.0036L23.8929 26.9958L23.9001 26.9919L23.9075 26.9882L23.9369 26.9735C23.9468 26.9688 23.9569 26.9644 23.9668 26.9598L23.9818 26.9531L23.997 26.9468C24.0373 26.9295 24.0791 26.9152 24.121 26.9022C24.1867 26.8825 24.2537 26.8678 24.3215 26.8579L24.2329 27.581C24.1695 27.6036 24.1078 27.6301 24.0486 27.6603C24.0166 27.6769 23.9852 27.6943 23.9545 27.7126C23.9241 27.7312 23.8939 27.7504 23.865 27.7707C23.836 27.7911 23.8077 27.8121 23.7802 27.8341C23.7528 27.856 23.7261 27.8789 23.7004 27.9024C23.6746 27.9259 23.6497 27.9501 23.6258 27.9753C23.602 28.0005 23.5788 28.0261 23.5579 28.0532C23.5814 28.028 23.6071 28.0046 23.6332 27.9819C23.6592 27.9592 23.6862 27.9375 23.7139 27.9165C23.7416 27.8957 23.77 27.8757 23.799 27.8566C23.8281 27.8375 23.8578 27.8195 23.8878 27.8022C23.918 27.7848 23.949 27.7688 23.9802 27.7536C24.0114 27.7385 24.0434 27.7244 24.0755 27.7113C24.1238 27.692 24.173 27.6753 24.223 27.6609L24.1421 28.3218C24.1138 28.3358 24.0866 28.3513 24.0606 28.368C24.0328 28.3863 24.0061 28.4056 23.9807 28.426C23.9555 28.4467 23.9311 28.468 23.908 28.4903C23.8848 28.5126 23.8626 28.5357 23.8414 28.5592C23.7989 28.6065 23.7598 28.6559 23.7238 28.7069C23.6879 28.7581 23.6544 28.8105 23.6252 28.8649C23.6604 28.8136 23.6992 28.765 23.7404 28.7181C23.7814 28.6712 23.8251 28.6267 23.8715 28.5849C23.8945 28.5641 23.9184 28.5441 23.943 28.5249C23.9676 28.5058 23.9929 28.4877 24.0187 28.4707C24.0446 28.4538 24.0716 28.4383 24.0987 28.4242C24.1097 28.4188 24.1207 28.4135 24.1317 28.4086L24.0058 29.4365L24.1675 28.4131C24.1768 28.4206 24.1861 28.4283 24.1949 28.4363C24.2173 28.4567 24.239 28.4782 24.2592 28.5009C24.2795 28.5236 24.2992 28.5472 24.3176 28.5717C24.3359 28.5962 24.3535 28.6214 24.37 28.6471C24.4031 28.6988 24.4331 28.7526 24.4598 28.8078C24.4865 28.863 24.5108 28.9195 24.5305 28.9777C24.5172 28.9181 24.4995 28.8591 24.4787 28.8009C24.4581 28.7428 24.4339 28.6855 24.406 28.6295C24.3918 28.6016 24.3768 28.5739 24.3606 28.5466C24.3444 28.5196 24.3268 28.4929 24.308 28.4667C24.2891 28.4408 24.2686 28.4156 24.2468 28.3911C24.2263 28.3686 24.2043 28.3471 24.181 28.3266L24.2849 27.6686C24.3292 27.6945 24.3722 27.7228 24.4133 27.7533C24.4408 27.7737 24.4677 27.7952 24.4937 27.8174C24.5198 27.8398 24.5453 27.8628 24.5695 27.887C24.5939 27.9111 24.6175 27.9357 24.6404 27.9613C24.6631 27.9869 24.6851 28.0131 24.706 28.0401C24.727 28.0671 24.7472 28.0946 24.766 28.123C24.7849 28.1513 24.803 28.1801 24.8189 28.2102C24.8061 28.1788 24.7909 28.1485 24.7749 28.1184C24.7588 28.0883 24.7412 28.0588 24.7231 28.0298C24.7047 28.0007 24.6852 27.9722 24.6649 27.9443C24.6444 27.9164 24.6229 27.8892 24.6005 27.8624C24.5781 27.8356 24.5544 27.8098 24.5301 27.7844C24.5056 27.7591 24.48 27.7346 24.4537 27.7107C24.4049 27.6671 24.3526 27.6264 24.2974 27.5889L24.4111 26.869C24.4739 26.8951 24.5347 26.9256 24.5926 26.9607C24.6294 26.9836 24.6659 27.0076 24.7001 27.0342L24.713 27.044L24.7256 27.0542C24.734 27.0611 24.7424 27.0678 24.7507 27.0749L24.7752 27.0963L24.7812 27.1016L24.7871 27.1071L24.7989 27.1183C24.8618 27.1776 24.9174 27.2438 24.9655 27.3149C24.9894 27.3505 25.0114 27.3873 25.0309 27.4253C25.0503 27.4634 25.0681 27.5023 25.0812 27.5427L25.0815 27.5426Z" fill="url(#paint25_linear_6669_4597)"/>
<path d="M28.1414 40.7132C23.9842 43.1485 17.7441 42.0036 14.779 43.5401C14.779 43.5401 16.7766 34.8005 21.6898 31.7458C24.2772 30.1369 27.7589 30.7324 29.5832 33.0565C29.6306 33.1167 29.677 33.1786 29.722 33.241C29.7671 33.3035 29.8108 33.3668 29.8525 33.4307C31.4664 35.8855 30.7751 39.1703 28.1412 40.7131L28.1414 40.7132Z" fill="url(#paint26_linear_6669_4597)"/>
<path d="M27.4401 38.7105C27.5481 38.5496 27.6367 38.3781 27.7169 38.2044C27.7964 38.0304 27.8645 37.852 27.9224 37.6717C28.0377 37.3102 28.112 36.9387 28.14 36.5655L28.1453 36.4955L28.148 36.4604L28.1492 36.4255L28.1543 36.2854C28.1555 36.2386 28.1545 36.1919 28.1544 36.1452L28.1541 36.0755L28.1511 36.0057C28.146 35.8192 28.1241 35.6339 28.0978 35.45C28.0521 35.1636 27.9821 34.8821 27.8896 34.6073L24.9346 36.3804C24.9634 36.6648 24.9711 36.9494 24.9581 37.2326C24.9503 37.386 24.9374 37.5387 24.9186 37.6908C24.8988 37.8427 24.8753 37.9938 24.8448 38.1432C24.8145 38.2931 24.7795 38.4417 24.7391 38.5889C24.6984 38.736 24.6527 38.8813 24.6023 39.0252C24.5515 39.1689 24.4961 39.311 24.4349 39.451C24.3735 39.5904 24.308 39.7285 24.2323 39.8614C24.2943 39.7227 24.345 39.5799 24.3916 39.4366C24.4381 39.293 24.4782 39.1479 24.5135 39.0023C24.549 38.8566 24.579 38.7097 24.6042 38.5626C24.6289 38.4151 24.6482 38.2675 24.6629 38.1196C24.6779 37.9718 24.6853 37.8232 24.6897 37.6754C24.6928 37.5273 24.6901 37.3796 24.6827 37.2324C24.6706 37.0121 24.6452 36.7931 24.6072 36.577L21.9065 38.1976C21.9017 38.3321 21.8893 38.4651 21.8688 38.5961C21.8452 38.7372 21.8147 38.8762 21.7764 39.0127C21.7373 39.1491 21.6935 39.2833 21.643 39.4147C21.5923 39.5463 21.5373 39.6755 21.4773 39.8027C21.357 40.0567 21.2208 40.3022 21.0712 40.5393C20.9212 40.7766 20.7608 41.0072 20.5833 41.2255C20.7355 40.9913 20.8686 40.7475 20.9897 40.4999C21.1107 40.2522 21.2166 39.9986 21.3057 39.7416C21.3498 39.6131 21.3885 39.483 21.4232 39.3528C21.4572 39.2225 21.4845 39.0912 21.5069 38.9598C21.5282 38.8284 21.5419 38.6968 21.5492 38.5658C21.5514 38.5139 21.5519 38.4621 21.5516 38.4106L17.351 40.9314L21.4611 38.2849C21.4101 38.265 21.3585 38.2457 21.3059 38.2277C21.1729 38.1838 21.0367 38.1453 20.898 38.1137C20.759 38.0827 20.6181 38.056 20.4755 38.0356C20.3326 38.0154 20.1888 37.9993 20.0442 37.9883C19.7544 37.9663 19.4621 37.9606 19.1694 37.9699C18.877 37.9795 18.5839 38.0009 18.2929 38.042C18.5778 37.973 18.8685 37.9233 19.1615 37.8848C19.4546 37.8469 19.7507 37.8236 20.0491 37.8173C20.1984 37.8145 20.348 37.8165 20.4981 37.823C20.648 37.83 20.7982 37.8434 20.9485 37.8617C21.0989 37.881 21.2487 37.908 21.398 37.9414C21.5361 37.9739 21.6729 38.014 21.8085 38.0612L24.451 36.3597C24.2506 36.2446 24.0426 36.139 23.8281 36.0447C23.6846 35.982 23.5387 35.9234 23.3904 35.8695C23.2417 35.8169 23.0915 35.7666 22.9386 35.7228C22.786 35.679 22.6318 35.639 22.4759 35.604C22.3198 35.5695 22.1626 35.5394 22.0041 35.5141C21.8458 35.4888 21.6863 35.4681 21.5257 35.4532C21.3653 35.4384 21.2042 35.4276 21.0424 35.4276C21.2034 35.4132 21.366 35.4099 21.528 35.4103C21.6904 35.4113 21.8528 35.4177 22.0151 35.4293C22.1773 35.4407 22.3392 35.4572 22.5011 35.4782C22.6628 35.4997 22.8239 35.5265 22.9842 35.5574C23.1447 35.5883 23.304 35.6262 23.4624 35.667C23.6208 35.7088 23.7775 35.7562 23.9331 35.8081C24.2194 35.9047 24.4996 36.0204 24.7713 36.1535L27.6626 34.292C27.4247 34.1076 27.1715 33.9396 26.9041 33.7913C26.7313 33.6984 26.5553 33.6088 26.3721 33.5335L26.3039 33.5042L26.2344 33.477C26.1882 33.4592 26.142 33.4407 26.0951 33.4237L25.9541 33.3748L25.9187 33.3625L25.8828 33.3515L25.8113 33.3293C25.4294 33.2112 25.0316 33.1331 24.6284 33.0943C24.4268 33.0748 24.2237 33.0656 24.0201 33.0671C23.8168 33.0701 23.6126 33.0806 23.4113 33.1118C23.6096 33.0665 23.8137 33.0417 24.018 33.0246C24.2223 33.0087 24.4281 33.0038 24.634 33.0092C25.0458 33.0202 25.4586 33.0711 25.8617 33.1653L25.9372 33.1832L25.9753 33.1919L26.0126 33.202L26.1625 33.2427C26.2122 33.2568 26.2615 33.2729 26.3113 33.2877L26.3854 33.3108L26.4587 33.3361C26.6555 33.4013 26.846 33.4817 27.0346 33.5663C27.3598 33.7174 27.6711 33.8959 27.9647 34.098L29.5828 33.0559C29.6302 33.1161 29.6766 33.178 29.7216 33.2404C29.7666 33.3029 29.8104 33.3662 29.8521 33.4301L28.1981 34.4225C28.2869 34.7518 28.3453 35.0873 28.3714 35.4243C28.3837 35.6188 28.3907 35.8134 28.3804 36.0073L28.3778 36.08L28.3723 36.1525C28.3682 36.2009 28.3652 36.2491 28.3603 36.2972L28.3433 36.4415L28.3391 36.4774L28.3333 36.5134L28.3222 36.5851C28.2619 36.9675 28.1553 37.3415 28.0089 37.6996C27.9355 37.8785 27.852 38.0536 27.7583 38.2231C27.6633 38.392 27.5606 38.5577 27.4397 38.7108L27.4401 38.7105Z" fill="url(#paint27_linear_6669_4597)"/>
<defs>
<linearGradient id="paint0_linear_6669_4597" x1="51.0393" y1="37.842" x2="43.7281" y2="43.2374" gradientUnits="userSpaceOnUse">
<stop stop-color="#91C73D"/>
<stop offset="1" stop-color="#4FB043"/>
</linearGradient>
<linearGradient id="paint1_linear_6669_4597" x1="46.6419" y1="37.0677" x2="44.334" y2="44.2506" gradientUnits="userSpaceOnUse">
<stop stop-color="#4FB043"/>
<stop offset="1" stop-color="#39942E"/>
</linearGradient>
<linearGradient id="paint2_linear_6669_4597" x1="54.6576" y1="23.7581" x2="54.4489" y2="19.2352" gradientUnits="userSpaceOnUse">
<stop stop-color="#91C73D"/>
<stop offset="1" stop-color="#4FB043"/>
</linearGradient>
<linearGradient id="paint3_linear_6669_4597" x1="54.45" y1="22.5976" x2="54.4531" y2="18.7625" gradientUnits="userSpaceOnUse">
<stop stop-color="#4FB043"/>
<stop offset="1" stop-color="#39942E"/>
</linearGradient>
<linearGradient id="paint4_linear_6669_4597" x1="57.8548" y1="23.9069" x2="58.9401" y2="20.0049" gradientUnits="userSpaceOnUse">
<stop stop-color="#91C73D"/>
<stop offset="1" stop-color="#4FB043"/>
</linearGradient>
<linearGradient id="paint5_linear_6669_4597" x1="58.1447" y1="23.14" x2="59.1358" y2="19.3985" gradientUnits="userSpaceOnUse">
<stop stop-color="#4FB043"/>
<stop offset="1" stop-color="#39942E"/>
</linearGradient>
<linearGradient id="paint6_linear_6669_4597" x1="60" y1="24.1757" x2="63.483" y2="21.7088" gradientUnits="userSpaceOnUse">
<stop stop-color="#91C73D"/>
<stop offset="1" stop-color="#4FB043"/>
</linearGradient>
<linearGradient id="paint7_linear_6669_4597" x1="60.5977" y1="23.8373" x2="63.4622" y2="21.8085" gradientUnits="userSpaceOnUse">
<stop stop-color="#4FB043"/>
<stop offset="1" stop-color="#39942E"/>
</linearGradient>
<linearGradient id="paint8_linear_6669_4597" x1="62.2044" y1="26.7739" x2="65.5745" y2="24.387" gradientUnits="userSpaceOnUse">
<stop stop-color="#91C73D"/>
<stop offset="1" stop-color="#4FB043"/>
</linearGradient>
<linearGradient id="paint9_linear_6669_4597" x1="62.7845" y1="26.4206" x2="65.5912" y2="24.4328" gradientUnits="userSpaceOnUse">
<stop stop-color="#4FB043"/>
<stop offset="1" stop-color="#39942E"/>
</linearGradient>
<linearGradient id="paint10_linear_6669_4597" x1="62.9608" y1="29.9131" x2="65.8992" y2="27.8319" gradientUnits="userSpaceOnUse">
<stop stop-color="#91C73D"/>
<stop offset="1" stop-color="#4FB043"/>
</linearGradient>
<linearGradient id="paint11_linear_6669_4597" x1="63.2621" y1="29.1363" x2="65.8331" y2="28.3808" gradientUnits="userSpaceOnUse">
<stop stop-color="#4FB043"/>
<stop offset="1" stop-color="#39942E"/>
</linearGradient>
<linearGradient id="paint12_linear_6669_4597" x1="60.8034" y1="27.3378" x2="50.0245" y2="35.2921" gradientUnits="userSpaceOnUse">
<stop stop-color="#91C73D"/>
<stop offset="1" stop-color="#4FB043"/>
</linearGradient>
<linearGradient id="paint13_linear_6669_4597" x1="57.2943" y1="25.725" x2="53.8712" y2="36.3795" gradientUnits="userSpaceOnUse">
<stop stop-color="#4FB043"/>
<stop offset="1" stop-color="#39942E"/>
</linearGradient>
<linearGradient id="paint14_linear_6669_4597" x1="17.6978" y1="42.149" x2="14.6028" y2="50.3343" gradientUnits="userSpaceOnUse">
<stop stop-color="#91C73D"/>
<stop offset="1" stop-color="#4FB043"/>
</linearGradient>
<linearGradient id="paint15_linear_6669_4597" x1="19.4544" y1="45.9833" x2="12.8664" y2="50.3075" gradientUnits="userSpaceOnUse">
<stop stop-color="#4FB043"/>
<stop offset="1" stop-color="#39942E"/>
</linearGradient>
<linearGradient id="paint16_linear_6669_4597" x1="31.6875" y1="35.8287" x2="36.4596" y2="34.9644" gradientUnits="userSpaceOnUse">
<stop stop-color="#91C73D"/>
<stop offset="1" stop-color="#4FB043"/>
</linearGradient>
<linearGradient id="paint17_linear_6669_4597" x1="32.9494" y1="35.7675" x2="36.9412" y2="34.8206" gradientUnits="userSpaceOnUse">
<stop stop-color="#4FB043"/>
<stop offset="1" stop-color="#39942E"/>
</linearGradient>
<linearGradient id="paint18_linear_6669_4597" x1="30.8417" y1="32.9532" x2="34.4914" y2="30.778" gradientUnits="userSpaceOnUse">
<stop stop-color="#91C73D"/>
<stop offset="1" stop-color="#4FB043"/>
</linearGradient>
<linearGradient id="paint19_linear_6669_4597" x1="31.5854" y1="32.5261" x2="35.1057" y2="30.4925" gradientUnits="userSpaceOnUse">
<stop stop-color="#4FB043"/>
<stop offset="1" stop-color="#39942E"/>
</linearGradient>
<linearGradient id="paint20_linear_6669_4597" x1="30.1004" y1="31.0591" x2="31.4817" y2="27.1971" gradientUnits="userSpaceOnUse">
<stop stop-color="#91C73D"/>
<stop offset="1" stop-color="#4FB043"/>
</linearGradient>
<linearGradient id="paint21_linear_6669_4597" x1="30.3287" y1="30.4421" x2="31.4647" y2="27.2658" gradientUnits="userSpaceOnUse">
<stop stop-color="#4FB043"/>
<stop offset="1" stop-color="#39942E"/>
</linearGradient>
<linearGradient id="paint22_linear_6669_4597" x1="26.9017" y1="29.6118" x2="28.2382" y2="25.8749" gradientUnits="userSpaceOnUse">
<stop stop-color="#91C73D"/>
<stop offset="1" stop-color="#4FB043"/>
</linearGradient>
<linearGradient id="paint23_linear_6669_4597" x1="27.1485" y1="29.0087" x2="28.2614" y2="25.8966" gradientUnits="userSpaceOnUse">
<stop stop-color="#4FB043"/>
<stop offset="1" stop-color="#39942E"/>
</linearGradient>
<linearGradient id="paint24_linear_6669_4597" x1="23.4481" y1="29.6001" x2="24.6134" y2="26.3418" gradientUnits="userSpaceOnUse">
<stop stop-color="#91C73D"/>
<stop offset="1" stop-color="#4FB043"/>
</linearGradient>
<linearGradient id="paint25_linear_6669_4597" x1="24.1979" y1="29.1594" x2="24.3161" y2="26.6523" gradientUnits="userSpaceOnUse">
<stop stop-color="#4FB043"/>
<stop offset="1" stop-color="#39942E"/>
</linearGradient>
<linearGradient id="paint26_linear_6669_4597" x1="26.613" y1="31.0083" x2="22.05" y2="43.0759" gradientUnits="userSpaceOnUse">
<stop stop-color="#91C73D"/>
<stop offset="1" stop-color="#4FB043"/>
</linearGradient>
<linearGradient id="paint27_linear_6669_4597" x1="29.0568" y1="33.8526" x2="19.2847" y2="40.2666" gradientUnits="userSpaceOnUse">
<stop stop-color="#4FB043"/>
<stop offset="1" stop-color="#39942E"/>
</linearGradient>
</defs>
</svg>
