<svg width="76" height="49" viewBox="0 0 76 49" fill="none" xmlns="http://www.w3.org/2000/svg">
<path d="M42.5992 30.2332C41.1956 32.4814 41.9625 35.3522 44.3006 36.7443C44.3614 36.7805 44.4233 36.8156 44.486 36.8498C44.5486 36.8837 44.6119 36.9166 44.6758 36.948C47.1279 38.1574 50.184 37.3627 51.5881 35.1147C54.2536 30.8464 52.5445 23.9455 52.5445 23.9455C52.5445 23.9455 45.182 26.0975 42.5992 30.2332Z" fill="url(#paint0_linear_0_1)"/>
<path d="M44.0096 31.5938C43.9769 31.7617 43.9645 31.9332 43.9593 32.1045C43.9556 32.2759 43.9622 32.4479 43.9788 32.6193C44.0122 32.9622 44.0843 33.3036 44.1976 33.6346L44.2188 33.6965L44.2294 33.7277L44.2413 33.7582L44.2886 33.8809C44.3053 33.9218 44.3232 33.9617 44.3404 34.0024L44.3665 34.0631L44.3952 34.1228C44.469 34.2833 44.557 34.438 44.6492 34.5905C44.8124 34.8532 45.0015 35.103 45.2123 35.3364L44.2997 36.7444C44.3604 36.7806 44.4224 36.8157 44.485 36.8499C44.5476 36.8837 44.611 36.9167 44.6749 36.948L45.5375 35.5132C45.8596 35.5691 46.1857 35.599 46.5115 35.602C46.6994 35.6013 46.8867 35.5964 47.0728 35.577L47.1426 35.5704L47.2121 35.5621C47.2585 35.5558 47.3049 35.5509 47.3508 35.5439L47.489 35.5216L47.5232 35.516L47.5573 35.5094L47.6259 35.4959C47.9903 35.4245 48.3442 35.3144 48.6808 35.1722C48.8487 35.1011 49.0126 35.0216 49.1705 34.9339C49.328 34.8455 49.4815 34.7506 49.6222 34.6413C49.4732 34.7405 49.3133 34.8234 49.1508 34.9005C48.9875 34.9762 48.82 35.0433 48.6493 35.1015C48.3081 35.2178 47.9544 35.3004 47.5969 35.3449L47.5299 35.3532L47.4963 35.3574L47.4625 35.3603L47.3283 35.3725C47.2834 35.3758 47.2382 35.3779 47.1935 35.3804L47.1263 35.384L47.0587 35.3854C46.8794 35.3917 46.6997 35.3838 46.5213 35.3719C46.2432 35.3499 45.968 35.3071 45.6983 35.2454L47.24 32.6818C47.5154 32.6896 47.7897 32.6805 48.0611 32.6537C48.2085 32.6385 48.3547 32.6195 48.5 32.5954C48.6448 32.5702 48.7892 32.5426 48.9315 32.5087C49.0737 32.475 49.2146 32.4374 49.3539 32.3957C49.4932 32.3536 49.6306 32.3074 49.7662 32.2572C49.9017 32.2068 50.0354 32.1529 50.1665 32.0938C50.2971 32.0349 50.4267 31.9726 50.5501 31.9022C50.42 31.9614 50.2855 32.0116 50.1501 32.0585C50.0144 32.1052 49.8773 32.1468 49.739 32.1847C49.6005 32.2222 49.461 32.2554 49.3209 32.2845C49.1805 32.3135 49.0394 32.3375 48.898 32.358C48.7564 32.3789 48.6142 32.3932 48.4721 32.405C48.3298 32.4159 48.1874 32.422 48.0453 32.4241C47.8326 32.4262 47.6205 32.4171 47.4105 32.3979L48.8195 30.0547C48.9487 30.0432 49.0759 30.0255 49.2009 30.0011C49.3353 29.9733 49.4675 29.9402 49.5966 29.9008C49.7254 29.8604 49.8519 29.8164 49.9758 29.7668C50.0994 29.7173 50.2209 29.6639 50.3399 29.6071C50.5774 29.4925 50.8063 29.3654 51.0262 29.2274C51.2459 29.089 51.4591 28.9424 51.6592 28.7822C51.4423 28.922 51.2152 29.0468 50.9838 29.1616C50.7522 29.2764 50.5142 29.3789 50.2716 29.4675C50.1506 29.5115 50.0278 29.5512 49.9043 29.5872C49.7804 29.623 49.6559 29.653 49.5307 29.6791C49.4054 29.7042 49.2794 29.723 49.1538 29.7365C49.1038 29.7411 49.0543 29.7444 49.0045 29.747L51.1959 26.1028L48.8784 29.6786C48.8562 29.6369 48.8347 29.5951 48.8146 29.5524C48.7654 29.4439 48.7206 29.3326 48.6824 29.2183C48.6447 29.1042 48.6111 28.9881 48.5836 28.8703C48.5563 28.7525 48.5325 28.6332 48.5138 28.5131C48.4766 28.2727 48.455 28.0292 48.4477 27.7846C48.4406 27.5401 48.4447 27.2943 48.4681 27.0494C48.4176 27.2908 48.3855 27.536 48.3653 27.7827C48.3451 28.0291 48.3393 28.2774 48.3496 28.5267C48.3552 28.6514 48.3657 28.7759 48.3804 28.901C48.3953 29.0255 48.4167 29.15 48.4427 29.2746C48.4698 29.3989 48.5041 29.5222 48.5445 29.6448C48.5835 29.7584 48.6297 29.8704 48.6828 29.9807L47.1929 32.2798C47.0708 32.1189 46.9578 31.9514 46.8549 31.7777C46.7867 31.6616 46.722 31.543 46.662 31.4222C46.6027 31.3011 46.546 31.1784 46.4956 31.0535C46.4447 30.9285 46.3978 30.8022 46.3553 30.6741C46.3134 30.5459 46.2755 30.4162 46.2425 30.2857C46.2093 30.155 46.1805 30.0231 46.1572 29.8902C46.1342 29.7572 46.1146 29.6236 46.1056 29.4887C46.1009 29.6238 46.1065 29.7593 46.1161 29.8944C46.126 30.0297 46.1415 30.165 46.1613 30.2997C46.1816 30.4344 46.2062 30.5686 46.2356 30.7024C46.2656 30.8361 46.2999 30.9689 46.3389 31.1011C46.3777 31.2332 46.4229 31.3639 46.4709 31.4939C46.5201 31.6235 46.5742 31.7517 46.6328 31.8786C46.7418 32.112 46.8686 32.3393 47.012 32.5585L45.3818 35.0741C45.191 34.8858 45.0156 34.6838 44.8578 34.4692C44.7588 34.3306 44.6629 34.1887 44.5799 34.0398L44.548 33.9847L44.5182 33.9282C44.4986 33.8907 44.4781 33.8533 44.4591 33.815L44.404 33.7002L44.3904 33.6714L44.3777 33.6423L44.3525 33.584C44.2174 33.2719 44.1201 32.9444 44.0602 32.6103C44.0304 32.443 44.01 32.2741 44.0002 32.1045C43.9915 31.9347 43.9902 31.7637 44.0092 31.5942L44.0096 31.5938Z" fill="url(#paint1_linear_0_1)"/>
<path d="M56.8873 3.97953C56.8642 2.64502 57.9778 1.54344 59.3959 1.47203C59.4328 1.4702 59.4699 1.46904 59.507 1.46858C59.5441 1.46811 59.5812 1.46835 59.6181 1.46944C61.0382 1.50651 62.1896 2.58075 62.2128 3.91537C62.2568 6.4491 59.64 9.12901 59.64 9.12901C59.64 9.12901 56.9297 6.43477 56.8872 3.97968L56.8873 3.97953Z" fill="url(#paint2_linear_0_1)"/>
<path d="M57.8838 3.7061C57.9142 3.62339 57.9546 3.54392 57.9984 3.46607C58.0427 3.38856 58.0919 3.31346 58.1453 3.24083C58.2523 3.09542 58.3763 2.96006 58.5159 2.83886L58.542 2.81626L58.5551 2.80475L58.5686 2.79401L58.6226 2.75036C58.6411 2.73603 58.6598 2.72236 58.6783 2.7083L58.7063 2.68724L58.7352 2.66732C58.8113 2.61302 58.892 2.56462 58.9743 2.51824C59.1179 2.43946 59.2694 2.37225 59.4262 2.31767L59.3968 1.47403C59.4337 1.47221 59.4708 1.47104 59.5079 1.47058C59.545 1.47012 59.5821 1.47035 59.619 1.47145L59.6189 2.31521C59.7777 2.36604 59.9313 2.42952 60.0777 2.50485C60.1612 2.54936 60.2436 2.59571 60.3216 2.64822L60.351 2.66758L60.3799 2.68756C60.3989 2.70139 60.4183 2.7146 60.4369 2.72846L60.4927 2.77093L60.5065 2.78143L60.5201 2.79251L60.5471 2.81456C60.6906 2.93225 60.8192 3.06478 60.9313 3.20735C60.9872 3.27871 61.039 3.35273 61.086 3.42906C61.1325 3.50574 61.1755 3.58414 61.2092 3.66619C61.1692 3.58681 61.1201 3.51216 61.0683 3.43954C61.0157 3.36715 60.9589 3.29785 60.8983 3.23172C60.777 3.09945 60.6414 2.97928 60.4937 2.87536L60.4658 2.85608L60.4521 2.84612L60.4378 2.83695L60.3811 2.79989C60.362 2.78789 60.3423 2.77625 60.323 2.76456L60.2939 2.7471L60.2641 2.73058C60.1856 2.68551 60.1034 2.64678 60.0203 2.61012C59.8903 2.55454 59.7558 2.5089 59.6188 2.47291L59.6187 3.98062C59.7437 4.04189 59.864 4.1106 59.9779 4.18646C60.0396 4.22797 60.0998 4.27081 60.1582 4.31583C60.2161 4.3612 60.2733 4.40751 60.3278 4.45612C60.3822 4.50462 60.4351 4.55456 60.4861 4.60602C60.5369 4.65764 60.5859 4.71062 60.6331 4.76482C60.6801 4.81933 60.7253 4.87477 60.768 4.93194C60.8105 4.98914 60.8517 5.04737 60.8879 5.10778C60.8456 5.05069 60.7992 4.99653 60.7513 4.94381C60.7032 4.89098 60.6531 4.8401 60.6016 4.79066C60.5499 4.74138 60.4964 4.69374 60.4417 4.64766C60.3869 4.60173 60.3302 4.55771 60.2727 4.51522C60.2149 4.47261 60.1553 4.43261 60.0951 4.39409C60.0344 4.35576 59.9725 4.31943 59.9096 4.28515C59.8151 4.23406 59.718 4.18818 59.6189 4.14745L59.6189 5.5257C59.6734 5.56125 59.7256 5.59905 59.7748 5.63936C59.8272 5.68338 59.8774 5.72925 59.9246 5.77734C59.9713 5.82562 60.016 5.87516 60.0579 5.92645C60.0998 5.97763 60.1398 6.03002 60.1777 6.08355C60.2531 6.19064 60.321 6.30125 60.3822 6.41472C60.4431 6.52823 60.499 6.64382 60.5454 6.76251C60.4861 6.64892 60.4183 6.53982 60.3456 6.43416C60.2731 6.32835 60.1942 6.2266 60.1097 6.12993C60.0675 6.08186 60.0231 6.0352 59.9778 5.99006C59.9322 5.94496 59.8844 5.90224 59.8356 5.8612C59.7865 5.82047 59.7353 5.78239 59.6829 5.74684C59.6618 5.73301 59.6405 5.71993 59.619 5.70701L59.6189 7.85046L59.5443 5.70785C59.5232 5.7213 59.5024 5.73498 59.482 5.74916C59.4307 5.78603 59.381 5.8252 59.3332 5.86716C59.2857 5.90924 59.2396 5.95333 59.1956 5.99936C59.1518 6.04551 59.1091 6.09318 59.0685 6.1425C58.9873 6.24116 58.9123 6.34482 58.8434 6.45223C58.7744 6.55964 58.7104 6.67042 58.6551 6.7853C58.6973 6.66568 58.7489 6.54852 58.8062 6.43352C58.8633 6.31867 58.9274 6.20649 58.9991 6.09759C59.035 6.04334 59.073 5.99005 59.1133 5.93757C59.1534 5.88552 59.1964 5.8349 59.2415 5.78552C59.2869 5.73637 59.3353 5.68931 59.3864 5.64412C59.4344 5.60254 59.4852 5.56338 59.5384 5.52665L59.4905 4.14908C59.3928 4.19228 59.2973 4.24046 59.2046 4.29368C59.143 4.32946 59.0822 4.36722 59.0229 4.40699C58.9638 4.44716 58.9056 4.48845 58.8497 4.5325C58.7934 4.57631 58.7384 4.62176 58.6851 4.66879C58.6319 4.71621 58.5802 4.76511 58.5304 4.81583C58.4806 4.86627 58.4322 4.91847 58.3861 4.97244C58.3399 5.02641 58.2955 5.08155 58.2552 5.13959C58.2894 5.07807 58.3283 5.01883 58.369 4.96086C58.4098 4.90274 58.453 4.84597 58.498 4.79049C58.5431 4.73512 58.5903 4.68087 58.6393 4.62817C58.6886 4.57543 58.7395 4.52428 58.7926 4.47436C58.8453 4.42449 58.9005 4.37679 58.9571 4.33002C59.0138 4.28364 59.0724 4.23923 59.1327 4.19626C59.244 4.1177 59.3618 4.04604 59.4847 3.98176L59.4323 2.47452C59.2966 2.51372 59.1639 2.56251 59.0358 2.62124C58.9544 2.66 58.8734 2.70078 58.7963 2.74757L58.7672 2.76474L58.7387 2.78295C58.7199 2.79511 58.7007 2.80703 58.6818 2.81961L58.6263 2.8579L58.6125 2.86743L58.599 2.87747L58.5721 2.89754C58.4278 3.00507 58.2966 3.12846 58.1801 3.26363C58.1218 3.33122 58.0673 3.40191 58.0176 3.47542C57.9682 3.54917 57.9216 3.62531 57.8846 3.70544L57.8838 3.7061Z" fill="url(#paint3_linear_0_1)"/>
<path d="M63.1287 4.32215C63.5132 3.23138 64.7537 2.62769 65.9305 2.9412C65.9611 2.94928 65.9916 2.95805 66.0221 2.96753C66.0524 2.97689 66.0825 2.98683 66.1125 2.99736C67.258 3.39954 67.8712 4.57444 67.4866 5.66521C66.7563 7.73636 63.8144 9.22897 63.8144 9.22897C63.8144 9.22897 62.4212 6.329 63.1287 4.32215Z" fill="url(#paint4_linear_0_1)"/>
<path d="M64.0252 4.35948C64.0749 4.30028 64.1321 4.2462 64.1911 4.19436C64.2507 4.14315 64.3134 4.09484 64.379 4.04975C64.5102 3.95974 64.6521 3.88201 64.8025 3.8201L64.8307 3.80862L64.8448 3.80266L64.859 3.79752L64.9164 3.77623C64.9356 3.76944 64.9551 3.76331 64.9745 3.75664L65.0035 3.74698L65.033 3.73837C65.1114 3.71421 65.1918 3.69604 65.2728 3.67973C65.4135 3.6532 65.5574 3.63849 65.7016 3.63497L65.9327 2.94151C65.9632 2.94958 65.9938 2.95836 66.0243 2.96783C66.0546 2.97719 66.0847 2.98714 66.1146 2.99766L65.8593 3.68358C65.9733 3.76652 66.0794 3.8583 66.1758 3.95794C66.2306 4.01612 66.2837 4.07535 66.3312 4.13826L66.3493 4.16166L66.3668 4.18557C66.3782 4.20168 66.39 4.21759 66.4009 4.23362L66.4334 4.28273L66.4415 4.29484L66.4492 4.30742L66.4646 4.33258C66.546 4.46583 66.6105 4.60722 66.6587 4.75262C66.6828 4.82513 66.7025 4.89906 66.7176 4.97334C66.7322 5.04783 66.7437 5.12302 66.7462 5.19832C66.7377 5.12343 66.7203 5.04973 66.7 4.97713C66.6791 4.90461 66.6536 4.83327 66.6244 4.7637C66.5658 4.62443 66.4914 4.4912 66.4025 4.36801L66.3858 4.34484L66.3775 4.33331L66.3685 4.32202L66.3335 4.277C66.3216 4.26222 66.3089 4.24767 66.2968 4.2332L66.2784 4.21151L66.2591 4.19021C66.2087 4.13311 66.1535 4.07987 66.097 4.02847C66.0078 3.94911 65.9121 3.8769 65.8114 3.81178L65.3556 5.03739C65.4389 5.11991 65.516 5.20716 65.586 5.29886C65.6237 5.34865 65.6598 5.3995 65.6938 5.45132C65.7274 5.50334 65.7597 5.55595 65.7895 5.60973C65.8192 5.6634 65.8472 5.71785 65.8732 5.77312C65.8991 5.82827 65.923 5.88425 65.9449 5.94078C65.9668 5.99731 65.9868 6.05439 66.0044 6.11206C66.0217 6.1695 66.0377 6.2278 66.0488 6.2865C66.0316 6.22891 66.0101 6.17288 65.987 6.11748C65.9638 6.06197 65.9385 6.00743 65.9113 5.95384C65.8841 5.90013 65.855 5.84735 65.8243 5.79563C65.7934 5.7438 65.7607 5.69333 65.7266 5.64361C65.6925 5.59388 65.6559 5.54561 65.6186 5.49854C65.5809 5.45139 65.5414 5.40588 65.5005 5.36139C65.4389 5.2951 65.3738 5.23237 65.3054 5.17326L64.8886 6.29345C64.9224 6.33668 64.9533 6.38101 64.9812 6.4267C65.0108 6.47621 65.0376 6.52666 65.0615 6.57804C65.085 6.62963 65.1065 6.68149 65.1252 6.73414C65.1438 6.78667 65.1605 6.83987 65.1752 6.89308C65.2042 6.99996 65.2262 7.10764 65.2418 7.21592C65.2571 7.32424 65.2677 7.43293 65.2696 7.54141C65.2557 7.43359 65.2332 7.32708 65.2061 7.22218C65.1789 7.11727 65.1455 7.01379 65.1058 6.91309C65.086 6.86282 65.064 6.81352 65.0407 6.7647C65.0172 6.71603 64.9912 6.66881 64.9638 6.62276C64.9362 6.57675 64.9059 6.53235 64.874 6.48969C64.861 6.47297 64.8476 6.45671 64.834 6.44077L64.1858 8.18286L64.7729 6.4217C64.7516 6.42709 64.7306 6.4326 64.7095 6.43881C64.6566 6.45546 64.6042 6.47414 64.5526 6.49577C64.5011 6.51751 64.4503 6.54112 64.4004 6.5671C64.3507 6.5932 64.3016 6.62073 64.2535 6.65009C64.1575 6.70904 64.065 6.7735 63.9764 6.84285C63.8878 6.9122 63.8021 6.98548 63.7223 7.06433C63.7928 6.97811 63.8704 6.8965 63.9517 6.81799C64.0329 6.73964 64.119 6.6652 64.2102 6.59549C64.2559 6.56077 64.3031 6.52737 64.3517 6.49544C64.4002 6.46367 64.4505 6.43388 64.5021 6.40545C64.5539 6.3774 64.6077 6.35199 64.6629 6.32848C64.7145 6.30728 64.7678 6.28876 64.8223 6.27273L65.1998 5.14036C65.1071 5.14978 65.0148 5.16403 64.9233 5.18301C64.8622 5.19592 64.8014 5.21073 64.7411 5.22756C64.6809 5.24466 64.6208 5.26313 64.5621 5.2842C64.503 5.30503 64.4445 5.32746 64.3868 5.35187C64.3292 5.37639 64.2722 5.40278 64.2162 5.43084C64.1603 5.4589 64.1051 5.48851 64.0514 5.5203C63.9977 5.55209 63.9445 5.5852 63.8944 5.62191C63.9408 5.58097 63.9904 5.54293 64.0411 5.50641C64.0918 5.46988 64.1443 5.43507 64.1977 5.4018C64.2512 5.36865 64.306 5.33686 64.3619 5.30686C64.418 5.27697 64.475 5.24864 64.5331 5.22209C64.5911 5.19542 64.6507 5.17105 64.7108 5.14783C64.7711 5.12517 64.8323 5.10433 64.8944 5.08516C65.0089 5.05039 65.1265 5.02311 65.246 5.00322L65.6591 3.76424C65.5366 3.76061 65.4137 3.76553 65.2917 3.77964C65.2136 3.78971 65.1353 3.80162 65.0585 3.81959L65.0295 3.8259L65.0008 3.83315C64.9817 3.83811 64.9624 3.84268 64.9433 3.84807L64.8865 3.86469L64.8723 3.86886L64.8582 3.87341L64.8302 3.8828C64.6802 3.93242 64.5359 3.99836 64.4001 4.07762C64.3322 4.11731 64.2665 4.1606 64.2036 4.20712C64.141 4.25403 64.0801 4.30361 64.0256 4.35929L64.0252 4.35948Z" fill="url(#paint5_linear_0_1)"/>
<path d="M68.1966 6.36989C68.8701 5.56974 70.1 5.41481 70.9805 6.00547C71.0034 6.02084 71.0258 6.03684 71.0484 6.05295C71.0706 6.06926 71.0927 6.086 71.1141 6.10297C71.9397 6.7588 72.0714 7.90833 71.3978 8.70848C70.1189 10.2276 67.1819 10.6456 67.1819 10.6456C67.1819 10.6456 66.9575 7.84161 68.1965 6.36962L68.1966 6.36989Z" fill="url(#paint6_linear_0_1)"/>
<path d="M68.9318 6.65214C68.9926 6.61675 69.0575 6.58789 69.1237 6.56135C69.19 6.53536 69.2581 6.51275 69.3272 6.4936C69.4658 6.4554 69.6092 6.43046 69.7547 6.42107L69.7819 6.41932L69.7957 6.41842L69.8092 6.41811L69.864 6.41635C69.8823 6.41621 69.9004 6.41639 69.9188 6.41626L69.9463 6.41641L69.9736 6.41741C70.0469 6.41925 70.1199 6.42669 70.1926 6.43585C70.3186 6.45332 70.4433 6.48126 70.5647 6.51881L70.9816 6.00639C71.0045 6.02176 71.027 6.03776 71.0496 6.05387C71.0717 6.07018 71.0938 6.08692 71.1152 6.10389L70.6806 6.60329C70.7489 6.70426 70.8076 6.81043 70.8558 6.92024C70.8827 6.98388 70.9078 7.04817 70.9272 7.11381L70.9347 7.13837L70.9415 7.16317C70.9457 7.17984 70.9506 7.19628 70.9546 7.21284L70.9659 7.26275L70.9688 7.27515L70.9711 7.28763L70.9757 7.31286C71.0004 7.44659 71.0087 7.58244 71.0019 7.71685C70.9984 7.78392 70.9911 7.85096 70.9797 7.91705C70.9679 7.98317 70.953 8.04887 70.9308 8.11238C70.9481 8.0476 70.9573 7.98141 70.9638 7.9153C70.9698 7.849 70.9717 7.78256 70.9697 7.71636C70.9658 7.58397 70.9469 7.45236 70.9125 7.3248L70.906 7.30094L70.9027 7.28901L70.8989 7.27715L70.8842 7.22994C70.8789 7.21424 70.8732 7.19862 70.8677 7.18323L70.8595 7.15988L70.8502 7.1368C70.8267 7.07507 70.7978 7.01533 70.7673 6.95677C70.7187 6.86578 70.6621 6.77878 70.5991 6.69643L69.8224 7.58877C69.8652 7.68082 69.9013 7.7752 69.9299 7.87099C69.9453 7.92299 69.9591 7.97534 69.9705 8.02802C69.9817 8.08073 69.9917 8.1336 69.9991 8.18667C70.0066 8.23974 70.0123 8.29278 70.0162 8.34606C70.02 8.39922 70.0218 8.45251 70.0218 8.50576C70.0217 8.55889 70.0201 8.61195 70.0159 8.66494C70.0116 8.71766 70.0062 8.77054 69.9965 8.82261C70.0008 8.7699 70.001 8.71731 69.9997 8.66464C69.9984 8.61198 69.9946 8.55952 69.9897 8.50722C69.9842 8.45484 69.9771 8.40297 69.9682 8.35107C69.9591 8.29932 69.9484 8.24809 69.9357 8.19725C69.9234 8.14637 69.9084 8.09612 69.8925 8.04615C69.8762 7.99637 69.858 7.94726 69.8383 7.89877C69.8084 7.82636 69.7741 7.75594 69.7363 7.68767L69.0263 8.50322C69.0404 8.54857 69.0519 8.59428 69.0605 8.64011C69.069 8.68957 69.0753 8.73918 69.0785 8.78853C69.0813 8.83792 69.0824 8.88728 69.0811 8.93626C69.0796 8.98527 69.0764 9.0341 69.0713 9.08262C69.0609 9.1797 69.0445 9.27552 69.0225 9.36987C69.0002 9.46427 68.9739 9.55766 68.9404 9.64843C68.9636 9.55489 68.9794 9.45985 68.9908 9.36487C69.0021 9.26989 69.0077 9.17457 69.0071 9.07955C69.0068 9.03217 69.0046 8.98492 69.0006 8.9379C68.9967 8.89089 68.9904 8.84419 68.9825 8.79812C68.9742 8.75197 68.9634 8.70673 68.9504 8.66219C68.9449 8.64459 68.9391 8.6273 68.933 8.6102L67.8288 9.87862L68.888 8.57739C68.8685 8.57601 68.849 8.57463 68.8295 8.57395C68.7801 8.5729 68.7302 8.57398 68.6803 8.57744C68.6303 8.58105 68.5802 8.58661 68.5304 8.59423C68.4804 8.60201 68.4306 8.6113 68.381 8.62223C68.2818 8.64435 68.1838 8.67215 68.0874 8.70515C67.9912 8.738 67.8959 8.7749 67.8038 8.81816C67.8906 8.76616 67.9816 8.71998 68.0748 8.67754C68.168 8.63509 68.2638 8.5973 68.3626 8.56479C68.412 8.54862 68.4621 8.53415 68.513 8.52124C68.5637 8.50836 68.6154 8.4977 68.6676 8.48836C68.72 8.47957 68.7731 8.47346 68.8266 8.46936C68.8766 8.46618 68.9268 8.4656 68.9776 8.46758L69.6585 7.63096C69.5781 7.61285 69.4966 7.59878 69.4139 7.58904C69.3588 7.58263 69.3032 7.57798 69.2474 7.575C69.1916 7.57244 69.1357 7.57102 69.0797 7.57197C69.0236 7.5728 68.9675 7.57515 68.9116 7.57928C68.8555 7.58358 68.7995 7.58955 68.7438 7.59726C68.6882 7.60498 68.6326 7.61421 68.5772 7.6255C68.522 7.63691 68.4672 7.64952 68.4134 7.66602C68.4654 7.6449 68.519 7.62731 68.5731 7.61104C68.6274 7.59489 68.6823 7.5806 68.7376 7.56779C68.793 7.5551 68.8489 7.54416 68.9053 7.53481C68.9616 7.52561 69.0185 7.51801 69.0757 7.51231C69.1328 7.50634 69.1903 7.50282 69.2478 7.50027C69.3054 7.49827 69.3632 7.49805 69.4212 7.49947C69.528 7.50273 69.6349 7.51279 69.7411 7.52962L70.4861 6.61419C70.3852 6.57677 70.2811 6.54643 70.1747 6.52408C70.1062 6.5106 70.0371 6.49859 69.9671 6.492L69.9409 6.48916L69.9146 6.48718C69.8971 6.48595 69.8796 6.48445 69.8621 6.48349L69.8093 6.48135L69.7961 6.48093L69.783 6.48077L69.7565 6.48062C69.6153 6.47996 69.4737 6.49424 69.3347 6.5222C69.2651 6.53626 69.1964 6.55382 69.1287 6.57499C69.0613 6.59655 68.9946 6.62079 68.9311 6.65167L68.9318 6.65214Z" fill="url(#paint7_linear_0_1)"/>
<path d="M71.629 9.52307C72.4824 9.00337 73.6214 9.20844 74.2114 9.97518C74.2269 9.99505 74.2416 10.0154 74.2563 10.036C74.2708 10.0566 74.2847 10.0774 74.2984 10.0985C74.8192 10.9075 74.5669 11.9601 73.7136 12.4798C72.0935 13.4667 69.3583 13.0194 69.3583 13.0194C69.3583 13.0194 70.0592 10.479 71.629 9.5228L71.629 9.52307Z" fill="url(#paint8_linear_0_1)"/>
<path d="M72.1901 9.97667C72.2553 9.96223 72.3222 9.95479 72.3892 9.94985C72.4562 9.94517 72.5237 9.94418 72.5911 9.94655C72.726 9.95127 72.8611 9.9693 72.993 10.0013L73.0177 10.0072L73.0302 10.0102L73.0422 10.0138L73.0913 10.0274C73.1076 10.0324 73.1235 10.0376 73.1399 10.0426L73.1641 10.0504L73.188 10.059C73.2523 10.081 73.3146 10.1078 73.376 10.1363C73.4821 10.1866 73.5835 10.246 73.6791 10.313L74.2129 9.97631C74.2283 9.99618 74.2431 10.0166 74.2577 10.0371C74.2723 10.0578 74.2862 10.0785 74.2999 10.0996L73.7547 10.42C73.7828 10.5282 73.8008 10.6384 73.8082 10.7488C73.8115 10.8125 73.8132 10.8761 73.8093 10.9397L73.808 10.9635L73.806 10.9873C73.8043 11.0031 73.8033 11.019 73.8015 11.0347L73.7954 11.082L73.7938 11.0938L73.792 11.1055L73.788 11.1292C73.767 11.2542 73.7308 11.3765 73.6816 11.4935C73.657 11.5519 73.629 11.609 73.5977 11.6643C73.566 11.7193 73.5319 11.7734 73.4918 11.8233C73.5277 11.7707 73.5571 11.7149 73.5842 11.6583C73.6107 11.6015 73.6336 11.5433 73.6533 11.4843C73.6921 11.3662 73.7179 11.2447 73.7282 11.1224L73.7301 11.0995L73.7311 11.0881L73.7316 11.0766L73.7337 11.0309C73.7342 11.0155 73.7342 11.0002 73.7341 10.9849L73.7342 10.962L73.7334 10.939C73.7325 10.8781 73.726 10.8172 73.7178 10.7569C73.7038 10.663 73.6817 10.5703 73.6523 10.4801L72.6782 11.0526C72.6864 11.1459 72.6882 11.2391 72.6828 11.3319C72.6797 11.3823 72.675 11.4323 72.6684 11.4821C72.6614 11.5317 72.6533 11.5812 72.6428 11.6303C72.6323 11.6792 72.6203 11.7278 72.6067 11.776C72.5929 11.824 72.5774 11.8716 72.5605 11.9187C72.5434 11.9656 72.5247 12.012 72.5041 12.0577C72.4835 12.1032 72.4616 12.1483 72.4365 12.1917C72.4573 12.1463 72.4743 12.0998 72.4901 12.0528C72.5058 12.0059 72.5194 11.9585 72.5315 11.9109C72.5434 11.8633 72.5538 11.8153 72.5625 11.7671C72.5711 11.7189 72.5779 11.6706 72.5831 11.6222C72.5884 11.5736 72.5914 11.5251 72.5932 11.4768C72.5948 11.4283 72.5944 11.3798 72.5924 11.3316C72.5892 11.2594 72.5816 11.1876 72.5699 11.1166L71.6795 11.64C71.6775 11.684 71.673 11.7276 71.6659 11.7704C71.6577 11.8165 71.6472 11.862 71.6342 11.9067C71.6209 11.9512 71.606 11.9951 71.589 12.038C71.572 12.0809 71.5534 12.1232 71.5335 12.1646C71.4932 12.2475 71.4478 12.3277 71.398 12.405C71.3479 12.4821 71.2948 12.5574 71.2358 12.6284C71.2864 12.5521 71.3309 12.4725 71.3714 12.3919C71.4118 12.311 71.4475 12.2283 71.4775 12.1443C71.4924 12.1023 71.5056 12.0599 71.5173 12.0172C71.5289 11.9744 71.5383 11.9316 71.546 11.8885C71.5535 11.8455 71.5584 11.8025 71.5613 11.7595C71.5622 11.7424 71.5626 11.7255 71.5626 11.7086L70.1777 12.5226L71.5332 11.6672C71.5165 11.6605 71.4997 11.654 71.4827 11.648C71.4391 11.6333 71.3948 11.6203 71.3494 11.6095C71.304 11.5989 71.2579 11.5897 71.2112 11.5826C71.1644 11.5756 71.1173 11.5699 71.0701 11.5658C70.9753 11.5579 70.8795 11.5552 70.7835 11.5573C70.6877 11.5595 70.5915 11.5657 70.4961 11.5783C70.5896 11.5564 70.685 11.5409 70.7813 11.5293C70.8773 11.5177 70.9744 11.511 71.0723 11.5098C71.1212 11.5092 71.1702 11.5105 71.2194 11.5131C71.2684 11.5157 71.3177 11.5206 71.3669 11.5271C71.4161 11.5337 71.4651 11.5432 71.5139 11.5545C71.5591 11.5654 71.6039 11.5789 71.6481 11.595L72.5197 11.0452C72.4545 11.0068 72.3866 10.9717 72.3167 10.94C72.2699 10.919 72.2222 10.8993 72.1738 10.8813C72.1252 10.8635 72.0761 10.8466 72.0263 10.832C71.9764 10.8171 71.926 10.8035 71.875 10.7917C71.8239 10.7799 71.7724 10.7697 71.7206 10.7609C71.6689 10.7522 71.6166 10.7448 71.5641 10.7395C71.5116 10.7341 71.459 10.7302 71.4059 10.7297C71.4587 10.7256 71.5119 10.7249 71.565 10.7256C71.6183 10.7264 71.6714 10.729 71.7246 10.7332C71.7777 10.7375 71.8308 10.7432 71.8838 10.7506C71.9366 10.7582 71.9893 10.7672 72.0419 10.778C72.0944 10.7887 72.1465 10.8015 72.1983 10.8153C72.25 10.8295 72.3012 10.8453 72.3521 10.8629C72.4455 10.8954 72.537 10.9342 72.6257 10.9786L73.5793 10.3768C73.5019 10.3158 73.4195 10.26 73.3324 10.2106C73.2762 10.1798 73.2187 10.1499 73.159 10.1245L73.1368 10.1148L73.1141 10.1056C73.099 10.0997 73.084 10.0934 73.0687 10.0877L73.0228 10.0712L73.0112 10.0671L72.9996 10.0634L72.9763 10.056C72.8515 10.0161 72.7213 9.98944 72.5894 9.97557C72.5233 9.96858 72.4569 9.96497 72.3901 9.96501C72.3234 9.96533 72.2566 9.96818 72.1905 9.97787L72.1901 9.97667Z" fill="url(#paint9_linear_0_1)"/>
<path d="M72.6883 13.8986C73.5406 13.6121 74.4808 14.0058 74.8231 14.7805C74.832 14.8007 74.8405 14.821 74.8486 14.8416C74.8567 14.8622 74.8642 14.8829 74.8713 14.9038C75.1442 15.7017 74.6948 16.5629 73.8425 16.8495C72.2243 17.3937 69.9562 16.4872 69.9562 16.4872C69.9562 16.4872 71.1203 14.4262 72.6884 13.8989L72.6883 13.8986Z" fill="url(#paint10_linear_0_1)"/>
<path d="M73.074 14.3962C73.1334 14.3962 73.1929 14.4026 73.252 14.4108C73.3109 14.4196 73.3697 14.4315 73.4274 14.4464C73.5431 14.4761 73.656 14.5172 73.7629 14.5701L73.7828 14.58L73.793 14.5849L73.8028 14.5903L73.8422 14.6115C73.8552 14.6187 73.8679 14.6263 73.8809 14.6339L73.9003 14.6451L73.9191 14.6572C73.9698 14.6884 74.0179 14.7235 74.0649 14.7597C74.1454 14.8234 74.2202 14.894 74.2881 14.97L74.8239 14.7805C74.8328 14.8007 74.8413 14.8211 74.8494 14.8417C74.8575 14.8623 74.865 14.883 74.872 14.9038L74.3301 15.0769C74.3305 15.1757 74.322 15.2743 74.3043 15.3712C74.2932 15.4269 74.2807 15.4821 74.2633 15.5364L74.257 15.5567L74.2501 15.5768C74.2452 15.5901 74.2408 15.6038 74.2358 15.617L74.22 15.6567L74.2161 15.6665L74.2119 15.6764L74.2034 15.6959C74.1578 15.7999 74.0994 15.8986 74.0313 15.9904C73.9971 16.0362 73.9606 16.0801 73.9213 16.1219C73.8818 16.1635 73.8403 16.2035 73.7948 16.2391C73.8375 16.2006 73.8751 16.1579 73.9111 16.1141C73.9465 16.0699 73.9792 16.024 74.009 15.9769C74.0686 15.8824 74.1175 15.7822 74.1534 15.6786L74.16 15.6592L74.1633 15.6494L74.1662 15.6395L74.1782 15.6004C74.1819 15.5872 74.1851 15.574 74.1885 15.5609L74.1936 15.5411L74.198 15.5212C74.2104 15.4683 74.2182 15.4144 74.2244 15.3609C74.2329 15.277 74.2342 15.193 74.2287 15.1093L73.2603 15.4186C73.2471 15.5006 73.2281 15.5816 73.2032 15.6607C73.1894 15.7034 73.1744 15.7458 73.1578 15.7875C73.1409 15.8291 73.1231 15.8704 73.1032 15.9107C73.0834 15.9509 73.0625 15.9906 73.04 16.0295C73.0176 16.0685 72.9937 16.1066 72.9687 16.1439C72.9436 16.1813 72.9174 16.2178 72.8895 16.2535C72.8616 16.2888 72.833 16.3237 72.8016 16.3562C72.8296 16.3211 72.8545 16.2839 72.8784 16.2465C72.9022 16.209 72.9244 16.1707 72.9455 16.1318C72.9663 16.093 72.9858 16.0535 73.0039 16.0135C73.0219 15.9735 73.0383 15.933 73.0535 15.8923C73.0689 15.8514 73.0821 15.8099 73.0943 15.7685C73.1063 15.727 73.1166 15.685 73.1255 15.643C73.1385 15.5799 73.1476 15.5165 73.1532 15.4529L72.2681 15.7356C72.2569 15.7732 72.2432 15.81 72.2276 15.8456C72.2103 15.884 72.1913 15.9212 72.1704 15.9573C72.1491 15.9931 72.1267 16.0282 72.1025 16.0621C72.0784 16.0959 72.0529 16.1289 72.0267 16.1608C71.9737 16.2248 71.9168 16.2854 71.8569 16.3426C71.7966 16.3999 71.734 16.4546 71.6676 16.5046C71.7281 16.4483 71.784 16.3882 71.8367 16.326C71.8896 16.2639 71.9385 16.1992 71.9828 16.1322C72.005 16.0988 72.0256 16.0647 72.0451 16.0301C72.0645 15.9953 72.0821 15.9601 72.0982 15.9246C72.1142 15.8889 72.1279 15.8524 72.1396 15.816C72.144 15.8014 72.1481 15.7868 72.1518 15.7724L70.7751 16.2119L72.1355 15.7309C72.1226 15.722 72.1094 15.7131 72.096 15.7048C72.0615 15.6839 72.026 15.6641 71.9891 15.6463C71.9522 15.6285 71.9142 15.6117 71.8754 15.5967C71.8366 15.5817 71.797 15.5679 71.7569 15.5554C71.6767 15.5306 71.5944 15.51 71.511 15.4937C71.4276 15.4773 71.3431 15.4644 71.2576 15.4572C71.3433 15.4563 71.4293 15.4608 71.5151 15.4692C71.6008 15.4774 71.6863 15.4901 71.7711 15.5076C71.8134 15.5166 71.8557 15.5267 71.8977 15.5383C71.9394 15.55 71.981 15.5636 72.0222 15.5785C72.0632 15.5938 72.1036 15.6111 72.1434 15.6302C72.1801 15.6483 72.2158 15.6684 72.2506 15.6905L73.1253 15.3814C73.0773 15.3358 73.0263 15.2925 72.9727 15.2521C72.9369 15.2251 72.8999 15.199 72.862 15.1743C72.8239 15.1496 72.7851 15.1257 72.7451 15.1036C72.7051 15.0812 72.6647 15.06 72.6231 15.04C72.5815 15.0202 72.5392 15.0013 72.4963 14.9839C72.4533 14.9666 72.4098 14.9502 72.3655 14.9358C72.3214 14.9213 72.2767 14.9077 72.2308 14.8973C72.2775 14.9037 72.3235 14.9133 72.3693 14.9239C72.4152 14.9346 72.4607 14.9472 72.5057 14.9607C72.5507 14.9744 72.5954 14.9896 72.6394 15.006C72.6836 15.0225 72.7271 15.0405 72.7702 15.0597C72.8133 15.0789 72.8554 15.0998 72.8972 15.1217C72.9388 15.1437 72.9796 15.1673 73.0198 15.192C73.0935 15.2379 73.1642 15.2887 73.2312 15.344L74.1883 15.0057C74.1347 14.9382 74.0757 14.8743 74.0111 14.8151C73.9692 14.7777 73.926 14.741 73.8799 14.7077L73.8628 14.6951L73.8452 14.6829C73.8334 14.6748 73.8218 14.6668 73.8097 14.6588L73.7734 14.6357L73.7644 14.63L73.7552 14.6246L73.7366 14.6136C73.6373 14.5554 73.5307 14.5077 73.4194 14.4704C73.3639 14.4519 73.3072 14.4361 73.2495 14.4235C73.1916 14.4111 73.1331 14.4008 73.0739 14.3967L73.074 14.3962Z" fill="url(#paint11_linear_0_1)"/>
<path d="M54.1175 14.46C51.9426 20.1016 55.2729 27.2177 53.9972 31.185C53.9972 31.185 65.4411 26.3424 68.2539 19.6252C69.7356 16.0877 67.937 12.1051 64.2303 10.5849C64.1342 10.5453 64.0361 10.5075 63.9378 10.4714C63.8391 10.4353 63.7398 10.401 63.6404 10.3692C59.8133 9.13671 55.4954 10.8859 54.1176 14.4602L54.1175 14.46Z" fill="url(#paint12_linear_0_1)"/>
<path d="M57.064 14.7315C57.2546 14.5573 57.4652 14.4035 57.6812 14.2589C57.8979 14.1151 58.1238 13.9837 58.3552 13.8639C58.8194 13.6247 59.3089 13.4315 59.8137 13.293L59.9084 13.267L59.9558 13.2539L60.0034 13.2425L60.1944 13.1971C60.2584 13.1825 60.3229 13.1705 60.387 13.1575L60.4828 13.1382L60.5796 13.1221C60.8373 13.0756 61.098 13.0496 61.3581 13.0292C61.7643 13.0029 62.1708 13.0071 62.5744 13.04L60.9708 17.0619C60.5718 17.1077 60.1787 17.1786 59.7933 17.2739C59.5848 17.3264 59.3785 17.3848 59.1749 17.45C58.9719 17.5165 58.7709 17.5869 58.5742 17.6654C58.3768 17.7438 58.1826 17.8274 57.9916 17.9169C57.8011 18.0069 57.6144 18.1023 57.4308 18.203C57.2476 18.3039 57.068 18.41 56.893 18.5224C56.7187 18.6349 56.5474 18.7518 56.3862 18.8795C56.5594 18.7665 56.7412 18.6659 56.925 18.5699C57.1092 18.4741 57.2971 18.3854 57.4873 18.3023C57.6775 18.219 57.8708 18.1418 58.0658 18.0703C58.2615 17.9993 58.4588 17.9348 58.6579 17.8756C58.8567 17.8161 59.0588 17.7655 59.2606 17.7186C59.4632 17.6732 59.6668 17.6347 59.8712 17.6022C60.1773 17.5545 60.4852 17.5232 60.7928 17.5076L59.3271 21.1834C59.1436 21.227 58.9644 21.2792 58.7902 21.3406C58.6029 21.4085 58.4206 21.4839 58.2439 21.568C58.0675 21.6531 57.8955 21.7431 57.7292 21.8403C57.5627 21.9378 57.4007 22.0398 57.2427 22.1471C56.9277 22.362 56.6288 22.5936 56.3452 22.8387C56.0615 23.0842 55.7898 23.3405 55.5399 23.6135C55.8189 23.3661 56.1162 23.1388 56.4223 22.9247C56.7285 22.7107 57.047 22.513 57.3751 22.3344C57.5391 22.2456 57.7069 22.1629 57.8761 22.0849C58.0456 22.0076 58.2182 21.9381 58.3924 21.8744C58.5669 21.812 58.7439 21.7586 58.9217 21.713C58.9925 21.6958 59.0635 21.6806 59.1344 21.6665L56.8543 27.3838L59.3325 21.7389C59.3742 21.7942 59.4153 21.8502 59.4548 21.9078C59.5525 22.054 59.6439 22.2055 59.7263 22.3619C59.8081 22.5189 59.8845 22.6794 59.9526 22.8437C60.0206 23.0082 60.0832 23.1752 60.139 23.3444C60.2509 23.6836 60.3411 24.0305 60.4107 24.382C60.4799 24.7333 60.533 25.0887 60.5585 25.4472C60.5731 25.0881 60.5594 24.7276 60.5299 24.3675C60.4994 24.0074 60.448 23.6479 60.3725 23.2904C60.3344 23.1116 60.2895 22.9339 60.2383 22.7568C60.1864 22.58 60.1257 22.4048 60.0582 22.2308C59.9894 22.0569 59.9102 21.886 59.8222 21.7175C59.7387 21.562 59.6451 21.4101 59.542 21.2619L61.1353 17.6325C61.3499 17.839 61.5535 18.0573 61.7435 18.2864C61.8701 18.4398 61.9916 18.5972 62.1074 18.7589C62.2216 18.9213 62.333 19.0862 62.4363 19.2561C62.5394 19.4256 62.6378 19.5982 62.7298 19.7741C62.8211 19.9505 62.9067 20.1295 62.9862 20.3113C63.0656 20.4929 63.1389 20.6772 63.2046 20.8644C63.27 21.0514 63.3302 21.2404 63.3758 21.4333C63.3503 21.2374 63.3091 21.0426 63.2628 20.8495C63.2157 20.6563 63.1612 20.4645 63.0996 20.2743C63.0382 20.0842 62.97 19.8958 62.8955 19.7087C62.8205 19.5221 62.7383 19.3375 62.6506 19.1552C62.5629 18.9726 62.4661 18.7933 62.3654 18.616C62.2633 18.4389 62.1541 18.2654 62.0391 18.0946C61.8256 17.7805 61.5877 17.479 61.3284 17.1927L63.0715 13.2218C63.3918 13.4535 63.6939 13.708 63.9729 13.985C64.1493 14.1648 64.322 14.3493 64.477 14.5465L64.5365 14.6196L64.5933 14.6947C64.6308 14.7448 64.6692 14.7947 64.7058 14.8459L64.8127 15.0001L64.8397 15.0389L64.8648 15.0785L64.9154 15.1576C65.1852 15.5796 65.4045 16.0318 65.5714 16.5014C65.655 16.7363 65.7249 16.9758 65.7801 17.2189C65.8333 17.4621 65.8764 17.7084 65.8902 17.9573C65.8965 17.7081 65.8732 17.4577 65.8392 17.2095C65.8034 16.9614 65.7521 16.7147 65.6867 16.4709C65.5557 15.983 65.3695 15.5053 65.1265 15.0512L65.0806 14.9663L65.0581 14.9233L65.0336 14.8817L64.9356 14.7145C64.9022 14.6592 64.8662 14.605 64.8318 14.5498L64.7792 14.4679L64.7238 14.3878C64.5788 14.1715 64.4147 13.9671 64.2454 13.766C63.9462 13.4209 63.6132 13.1001 63.253 12.8071L64.2288 10.5847C64.1328 10.5451 64.0347 10.5073 63.9363 10.4712C63.8377 10.4351 63.7384 10.4008 63.639 10.369L62.7414 12.6202C62.2639 12.607 61.7866 12.632 61.3163 12.6957C61.0457 12.7359 60.7763 12.7823 60.5128 12.8492L60.4137 12.8728L60.3156 12.8998C60.2503 12.9183 60.1848 12.9354 60.1202 12.9548L59.9267 13.0158L59.8785 13.0308L59.8308 13.0479L59.7354 13.0813C59.227 13.2609 58.7432 13.4934 58.2925 13.7687C58.0675 13.9066 57.8504 14.0554 57.644 14.2148C57.4387 14.3757 57.2399 14.5447 57.0636 14.732L57.064 14.7315Z" fill="url(#paint13_linear_0_1)"/>
<path d="M11.0201 44.9445C8.96466 46.7047 5.78995 46.624 3.82788 44.7961C3.77684 44.7487 3.72674 44.6999 3.67746 44.6502C3.62847 44.6005 3.58031 44.5499 3.53372 44.4986C1.73864 42.5278 1.91499 39.5767 3.97008 37.8163C7.87229 34.4739 15.4748 34.5455 15.4748 34.5455C15.4748 34.5455 14.801 41.706 11.0201 44.9445Z" fill="url(#paint14_linear_0_1)"/>
<path d="M9.28952 43.9536C9.12045 44.0195 8.94334 44.0676 8.76484 44.1092C8.58593 44.1494 8.40425 44.1804 8.22097 44.2021C7.85424 44.2454 7.48079 44.2532 7.10946 44.2213L7.03999 44.2152L7.00497 44.2123L6.97043 44.208L6.83158 44.1914C6.78518 44.185 6.73943 44.1773 6.69314 44.1704L6.6239 44.1597L6.55506 44.1464C6.371 44.1137 6.18985 44.0669 6.01016 44.0159C5.69966 43.9238 5.39706 43.8055 5.10704 43.6639L3.82705 44.7968C3.77601 44.7493 3.72591 44.7005 3.67663 44.6508C3.62765 44.6011 3.57948 44.5506 3.53289 44.4992L4.85177 43.406C4.72399 43.1251 4.6226 42.8348 4.54937 42.539C4.50971 42.368 4.47461 42.1965 4.45491 42.0231L4.44681 41.9581L4.44063 41.8931C4.43727 41.8495 4.43247 41.8062 4.42988 41.763L4.42356 41.6325L4.42211 41.6002L4.42168 41.5677L4.4211 41.5024C4.41769 41.1556 4.45701 40.8099 4.53374 40.4732C4.57221 40.3052 4.6203 40.139 4.67829 39.9765C4.73719 39.8142 4.80366 39.6541 4.88797 39.5026C4.81608 39.6596 4.76347 39.8228 4.71762 39.9872C4.67328 40.152 4.63901 40.3188 4.6146 40.4867C4.56604 40.822 4.55542 41.1616 4.5856 41.4964L4.59132 41.5591L4.59417 41.5905L4.59837 41.622L4.61447 41.7467C4.62063 41.7882 4.62812 41.8298 4.63513 41.871L4.64582 41.9329L4.65886 41.9946C4.69076 42.1592 4.7377 42.3209 4.78848 42.4807C4.87139 42.7289 4.97537 42.9701 5.09805 43.2022L7.45445 41.2487C7.38705 40.9998 7.33765 40.7483 7.30741 40.4956C7.29167 40.3583 7.28024 40.2212 7.27427 40.0838C7.2695 39.9467 7.26739 39.8093 7.27243 39.6727C7.27717 39.536 7.28625 39.3998 7.3001 39.264C7.31424 39.1283 7.33319 38.9934 7.35664 38.8592C7.38039 38.7251 7.40821 38.5919 7.44189 38.4599C7.47561 38.3284 7.51305 38.1971 7.56042 38.0698C7.52622 38.2009 7.50255 38.334 7.48244 38.4673C7.46264 38.6007 7.44848 38.7344 7.43849 38.8684C7.42896 39.0024 7.42416 39.1365 7.42378 39.2702C7.42356 39.4041 7.42864 39.5377 7.43754 39.6707C7.44616 39.804 7.46167 39.9365 7.4798 40.0683C7.49897 40.2001 7.52324 40.3309 7.55157 40.4606C7.59507 40.6546 7.65018 40.8456 7.71549 41.0326L9.86935 39.2471C9.8536 39.127 9.84486 39.0075 9.84356 38.8886C9.84377 38.7604 9.85012 38.633 9.86369 38.5071C9.8783 38.3812 9.8973 38.2566 9.92262 38.1333C9.94795 38.0102 9.97782 37.8882 10.0118 37.7678C10.081 37.527 10.165 37.2914 10.2624 37.0617C10.3603 36.8322 10.4682 36.6066 10.5931 36.3902C10.4932 36.6176 10.4112 36.851 10.3406 37.0861C10.27 37.3216 10.2137 37.5601 10.1729 37.7998C10.1527 37.9194 10.1375 38.0396 10.1263 38.1597C10.1155 38.2801 10.1107 38.3998 10.1103 38.5194C10.1109 38.6387 10.1182 38.7574 10.1311 38.8746C10.137 38.9211 10.1443 38.9668 10.1522 39.0126L13.5019 36.2358L10.251 39.1126C10.2995 39.1239 10.3479 39.1345 10.397 39.1436C10.5214 39.1651 10.6477 39.1818 10.7757 39.192C10.9035 39.2018 11.0324 39.2074 11.1618 39.2072C11.2912 39.2066 11.4214 39.2026 11.5513 39.1938C11.8113 39.176 12.0713 39.1433 12.3293 39.0974C12.5871 39.0514 12.844 38.9948 13.0957 38.9208C12.8536 39.0187 12.6034 39.1005 12.349 39.172C12.095 39.2433 11.8359 39.302 11.5724 39.3462C11.4404 39.3678 11.3076 39.3851 11.1733 39.3986C11.0396 39.4118 10.9045 39.419 10.7682 39.4222C10.6321 39.4242 10.4954 39.4196 10.3582 39.4091C10.2307 39.3981 10.1033 39.3801 9.97631 39.3555L7.88602 41.2051C8.081 41.2816 8.28086 41.3484 8.4851 41.4047C8.62152 41.4418 8.75973 41.4751 8.89935 41.5038C9.03906 41.5317 9.1799 41.5569 9.32159 41.5759C9.46362 41.5954 9.60608 41.6109 9.74954 41.622C9.89296 41.6326 10.0371 41.6391 10.181 41.6411C10.3251 41.6433 10.4697 41.6411 10.6141 41.6337C10.7584 41.626 10.9027 41.6152 11.0461 41.5943C10.9055 41.6277 10.7622 41.6517 10.6185 41.672C10.4745 41.6921 10.3293 41.7071 10.1838 41.718C10.0382 41.7285 9.89224 41.7349 9.74564 41.7369C9.59901 41.7384 9.45235 41.7358 9.30536 41.7287C9.15852 41.7218 9.01181 41.7088 8.86518 41.693C8.71876 41.6761 8.57271 41.6544 8.42707 41.6284C8.15898 41.5794 7.89339 41.5129 7.63273 41.4295L5.3457 43.4533C5.58413 43.5864 5.83355 43.7026 6.09248 43.8C6.25911 43.8602 6.42844 43.917 6.60238 43.9606L6.66707 43.9777L6.73264 43.9927C6.77619 44.0024 6.8198 44.013 6.86403 44.0221L6.9963 44.0476L7.02935 44.0537L7.06263 44.0591L7.12918 44.0694C7.48546 44.1252 7.84966 44.1434 8.2129 44.1261C8.39466 44.1173 8.57618 44.0995 8.75605 44.0719C8.936 44.0434 9.11555 44.0078 9.28911 43.954L9.28952 43.9536Z" fill="url(#paint15_linear_0_1)"/>
<path d="M35.4759 26.3011C36.88 26.0353 37.7956 24.7855 37.5657 23.48C37.5597 23.4461 37.5529 23.4121 37.5454 23.3782C37.5379 23.3443 37.5297 23.3107 37.5206 23.2773C37.1766 21.9934 35.8028 21.1768 34.3986 21.4426C31.7326 21.9471 29.4853 24.9037 29.4853 24.9037C29.4853 24.9037 32.8926 26.7902 35.4758 26.3013L35.4759 26.3011Z" fill="url(#paint16_linear_0_1)"/>
<path d="M35.5492 25.3353C35.6294 25.2898 35.704 25.236 35.7762 25.1794C35.848 25.1224 35.9161 25.0616 35.9808 24.9973C36.1102 24.8687 36.2255 24.7268 36.3226 24.5738L36.3407 24.5452L36.3499 24.5308L36.3583 24.5163L36.3924 24.4577C36.4035 24.4378 36.4138 24.4179 36.4246 24.398L36.4406 24.368L36.4553 24.3375C36.4959 24.2566 36.5293 24.1727 36.5602 24.0879C36.612 23.9403 36.6499 23.7881 36.6734 23.6337L37.5642 23.4791C37.5582 23.4451 37.5514 23.4111 37.5439 23.3772C37.5364 23.3434 37.5282 23.3097 37.5191 23.2764L36.6345 23.4579C36.5471 23.3243 36.4475 23.1982 36.3371 23.0812C36.2725 23.0148 36.2062 22.9498 36.1344 22.8901L36.1077 22.8675L36.0806 22.8455C36.062 22.8313 36.044 22.8164 36.0254 22.8024L35.9689 22.7608L35.955 22.7505L35.9404 22.7406L35.9115 22.7208C35.7573 22.6155 35.5907 22.5269 35.4171 22.4557C35.3303 22.4201 35.2415 22.3889 35.1514 22.3626C35.061 22.3367 34.9696 22.3144 34.8763 22.3015C34.9681 22.3207 35.057 22.3494 35.1442 22.3809C35.2314 22.4132 35.3163 22.45 35.3986 22.4909C35.5634 22.5728 35.7185 22.6703 35.8592 22.7824L35.8854 22.8036L35.8988 22.814L35.9115 22.825L35.9626 22.8686C35.9792 22.8834 35.9957 22.8988 36.0121 22.9139L36.0366 22.9366L36.0604 22.9602C36.1245 23.0218 36.1828 23.0883 36.2391 23.156C36.3253 23.2623 36.402 23.3749 36.4692 23.4918L34.8885 23.8159C34.7974 23.7154 34.6995 23.6207 34.5955 23.5335C34.5387 23.4862 34.4808 23.4407 34.4211 23.3972C34.3611 23.3543 34.3002 23.3122 34.2375 23.2731C34.175 23.234 34.1113 23.1966 34.0464 23.1613C33.9813 23.1261 33.9152 23.093 33.8483 23.0617C33.781 23.0306 33.7132 23.0014 33.6441 22.9748C33.575 22.9485 33.5051 22.9236 33.4339 22.9035C33.5029 22.9298 33.5696 22.9604 33.6352 22.9926C33.7009 23.025 33.765 23.0596 33.828 23.0959C33.8907 23.1323 33.9522 23.1707 34.0123 23.2106C34.0722 23.2506 34.1305 23.2927 34.1874 23.3359C34.2445 23.3793 34.2993 23.4249 34.3526 23.4714C34.4058 23.5184 34.4572 23.5669 34.5067 23.6167C34.5806 23.6917 34.6495 23.7702 34.7135 23.8516L33.2685 24.1479C33.2195 24.1059 33.1687 24.0666 33.1159 24.0305C33.0584 23.9922 32.9995 23.9564 32.939 23.9239C32.8783 23.8917 32.8168 23.8617 32.754 23.8346C32.6913 23.8075 32.6278 23.7824 32.5636 23.7594C32.4351 23.7138 32.3045 23.6758 32.1724 23.6445C32.0403 23.6135 31.9071 23.5875 31.7727 23.5708C31.9045 23.6004 32.0335 23.6386 32.1599 23.682C32.2864 23.7252 32.41 23.7751 32.5295 23.8312C32.589 23.8593 32.6475 23.8896 32.7045 23.9211C32.7616 23.9529 32.8167 23.9872 32.8702 24.0228C32.9235 24.0587 32.9744 24.0971 33.0229 24.1372C33.0419 24.1534 33.0602 24.17 33.0784 24.1867L30.8312 24.6476L33.0936 24.2549C33.084 24.277 33.0741 24.2988 33.0637 24.3205C33.036 24.375 33.0056 24.4287 32.9719 24.4811C32.938 24.5335 32.9017 24.5849 32.8629 24.6348C32.8239 24.6845 32.7831 24.7336 32.7401 24.7811C32.6542 24.8762 32.5616 24.9668 32.4638 25.0525C32.366 25.1383 32.2636 25.2204 32.1551 25.2954C32.2714 25.2313 32.3831 25.1592 32.4914 25.0824C32.5995 25.0057 32.7034 24.9233 32.8022 24.8347C32.8513 24.7903 32.899 24.7443 32.9454 24.6964C32.9913 24.6486 33.0352 24.5987 33.0772 24.5471C33.119 24.4952 33.1579 24.441 33.1943 24.3848C33.2276 24.3322 33.2578 24.2776 33.2848 24.2213L34.7394 23.9688C34.7151 24.067 34.6851 24.1642 34.6493 24.2599C34.625 24.3237 34.5985 24.3871 34.5695 24.4496C34.5401 24.512 34.5093 24.5738 34.4752 24.6342C34.4413 24.6948 34.4055 24.7546 34.3677 24.8132C34.3294 24.8718 34.2892 24.9293 34.2467 24.9855C34.2046 25.0417 34.1602 25.0969 34.1136 25.1505C34.0669 25.2041 34.0186 25.2564 33.9664 25.3055C34.0236 25.2611 34.0773 25.2131 34.1294 25.1636C34.1815 25.1139 34.2318 25.0625 34.2803 25.0096C34.3286 24.9566 34.3754 24.9021 34.4201 24.8461C34.4648 24.7899 34.5075 24.7326 34.5484 24.6736C34.5893 24.6149 34.6275 24.5544 34.6644 24.4929C34.7008 24.4313 34.7348 24.3685 34.7669 24.3044C34.8253 24.1863 34.8751 24.0637 34.9161 23.9381L36.5076 23.6619C36.4957 23.7937 36.4731 23.9249 36.439 24.0541C36.4159 24.1365 36.3905 24.2189 36.358 24.2991L36.3463 24.3292L36.3333 24.3592C36.3246 24.3789 36.3162 24.3988 36.3071 24.4187L36.2789 24.4775L36.2719 24.4921L36.2642 24.5065L36.249 24.5353C36.1673 24.6897 36.0661 24.8356 35.9494 24.9706C35.8911 25.0382 35.8287 25.103 35.7623 25.164C35.6956 25.2248 35.6258 25.2835 35.5497 25.3344L35.5492 25.3353Z" fill="url(#paint17_linear_0_1)"/>
<path d="M33.7717 20.6973C34.8327 20.113 35.199 18.8548 34.6174 17.8516C34.6023 17.8255 34.5866 17.7996 34.5701 17.7739C34.5537 17.7483 34.5368 17.7231 34.5194 17.6981C33.8515 16.7424 32.4879 16.4371 31.4269 17.0214C29.4124 18.131 28.4798 21.1281 28.4798 21.1281C28.4798 21.1281 31.8197 21.7723 33.7717 20.6973Z" fill="url(#paint18_linear_0_1)"/>
<path d="M33.5419 19.8916C33.5932 19.8336 33.6377 19.77 33.6793 19.7052C33.7202 19.64 33.7574 19.5725 33.7906 19.5032C33.8567 19.3645 33.9077 19.2187 33.9403 19.0686L33.9463 19.0405L33.9495 19.0263L33.9518 19.0123L33.9618 18.9555C33.9648 18.9366 33.9671 18.9175 33.9699 18.8985L33.9738 18.87L33.9764 18.8412C33.9849 18.7647 33.9867 18.6877 33.9864 18.6105C33.984 18.4768 33.9685 18.3428 33.9412 18.2108L34.6186 17.8515C34.6035 17.8255 34.5878 17.7996 34.5713 17.7739C34.5549 17.7483 34.538 17.7231 34.5206 17.6981L33.8563 18.0778C33.7449 17.9919 33.6258 17.9151 33.5006 17.8488C33.4279 17.8115 33.3543 17.7759 33.2782 17.7462L33.2497 17.7347L33.2209 17.724C33.2016 17.7171 33.1824 17.7098 33.1632 17.7033L33.1047 17.6843L33.0903 17.6795L33.0755 17.6752L33.0458 17.6667C32.8886 17.6212 32.7265 17.593 32.5637 17.5803C32.4825 17.574 32.4007 17.5719 32.3196 17.5742C32.2384 17.5769 32.157 17.5826 32.0776 17.5965C32.1579 17.5882 32.2389 17.5881 32.3194 17.591C32.3999 17.5944 32.4802 17.6023 32.5594 17.6139C32.718 17.6373 32.8737 17.6764 33.022 17.7308L33.0499 17.741L33.0637 17.746L33.0775 17.7518L33.1322 17.7739C33.1503 17.7816 33.1683 17.79 33.186 17.7979L33.2127 17.81L33.2392 17.823C33.3099 17.8565 33.3776 17.8954 33.4436 17.9357C33.546 17.9998 33.6423 18.0713 33.7322 18.149L32.5452 18.827C32.4408 18.769 32.3327 18.7175 32.2215 18.6736C32.1612 18.65 32.1002 18.6281 32.0385 18.6083C31.9768 18.589 31.9147 18.5708 31.8519 18.5553C31.7892 18.5398 31.7261 18.526 31.6626 18.5142C31.5992 18.5025 31.5353 18.4928 31.4714 18.485C31.4074 18.4773 31.3433 18.4714 31.279 18.4678C31.2151 18.4644 31.1505 18.4623 31.0866 18.4649C31.1506 18.4681 31.214 18.4756 31.2771 18.4847C31.3403 18.4939 31.4029 18.5053 31.4649 18.5184C31.5271 18.5317 31.5886 18.5468 31.6495 18.5636C31.7105 18.5805 31.7704 18.5995 31.8299 18.6198C31.8893 18.6402 31.9478 18.663 32.0052 18.6868C32.0627 18.711 32.1189 18.7372 32.1743 18.7648C32.2571 18.8066 32.3369 18.8524 32.4135 18.9018L31.3286 19.5218C31.2761 19.5004 31.223 19.4818 31.169 19.4662C31.1108 19.4499 31.0521 19.4364 30.9931 19.4257C30.934 19.4154 30.875 19.407 30.8158 19.4013C30.7567 19.3957 30.6973 19.3919 30.6384 19.39C30.5201 19.3866 30.4025 19.3897 30.2856 19.3988C30.1687 19.4081 30.0525 19.4219 29.9384 19.4435C30.0544 19.4329 30.1709 19.4305 30.2867 19.4326C30.4025 19.4348 30.5182 19.443 30.6323 19.4574C30.6893 19.4646 30.7457 19.474 30.8019 19.4848C30.858 19.4957 30.913 19.5091 30.9672 19.5241C31.0214 19.5394 31.0745 19.5574 31.126 19.5773C31.1464 19.5855 31.1663 19.5942 31.1859 19.6032L29.4988 20.5673L31.2191 19.6547C31.218 19.6752 31.2167 19.6955 31.2147 19.716C31.2087 19.7677 31.2003 19.8194 31.1888 19.871C31.177 19.9225 31.1632 19.9738 31.1467 20.0248C31.13 20.0756 31.1117 20.1261 31.0912 20.1762C31.0501 20.2762 31.0024 20.3742 30.9487 20.4698C30.895 20.5653 30.8366 20.659 30.7711 20.7485C30.8463 20.6658 30.9152 20.5778 30.9801 20.4869C31.0448 20.3962 31.1043 20.3018 31.1578 20.2039C31.1844 20.1549 31.2092 20.1048 31.2323 20.0537C31.2552 20.0027 31.2756 19.9505 31.2943 19.8975C31.3126 19.8444 31.3276 19.7899 31.3404 19.7346C31.3516 19.6832 31.3595 19.6307 31.3646 19.5777L32.4707 18.9909C32.4807 19.0772 32.4857 19.1643 32.4854 19.2516C32.485 19.3099 32.4826 19.3684 32.4779 19.4269C32.4729 19.4854 32.4664 19.544 32.457 19.6019C32.4478 19.6602 32.4369 19.7182 32.4237 19.776C32.4104 19.8336 32.3949 19.8912 32.3776 19.9481C32.3602 20.005 32.341 20.0616 32.3192 20.1173C32.2974 20.173 32.2741 20.2285 32.2464 20.282C32.2794 20.2309 32.3086 20.1776 32.336 20.1236C32.3634 20.0696 32.3886 20.0144 32.412 19.9587C32.4352 19.9029 32.4568 19.8463 32.4762 19.7889C32.4955 19.7314 32.513 19.6735 32.5283 19.6149C32.5438 19.5564 32.5566 19.497 32.568 19.4373C32.5788 19.3776 32.5875 19.3175 32.5942 19.2568C32.6061 19.1452 32.6094 19.0323 32.6046 18.9193L33.8148 18.2773C33.8449 18.3879 33.8662 18.5008 33.8776 18.6148C33.8838 18.688 33.8882 18.7618 33.8858 18.8356L33.8854 18.8633L33.884 18.891C33.8829 18.9094 33.8823 18.9279 33.8807 18.9465L33.8755 19.0017L33.8742 19.0155L33.8724 19.0293L33.8686 19.0569C33.8488 19.204 33.8107 19.3494 33.7568 19.49C33.7298 19.5602 33.6985 19.6294 33.6633 19.6966C33.6275 19.7636 33.5886 19.8297 33.542 19.8912L33.5419 19.8916Z" fill="url(#paint19_linear_0_1)"/>
<path d="M30.5383 16.5273C31.2324 15.7426 31.1305 14.5904 30.322 13.9163C30.301 13.8988 30.2794 13.8818 30.2576 13.8647C30.2358 13.8481 30.2135 13.8316 30.1911 13.8158C29.326 13.2056 28.0925 13.3329 27.3984 14.1176C26.0805 15.6076 26.2736 18.3693 26.2736 18.3693C26.2736 18.3693 29.2616 17.9708 30.5386 16.5272L30.5383 16.5273Z" fill="url(#paint20_linear_0_1)"/>
<path d="M30.0862 15.9183C30.1102 15.8554 30.1265 15.7901 30.1401 15.7242C30.1531 15.6583 30.1622 15.5915 30.1674 15.5245C30.1776 15.3902 30.173 15.2544 30.1515 15.12L30.1475 15.0949L30.1455 15.0822L30.1429 15.0698L30.133 15.0196C30.1292 15.0028 30.1251 14.9864 30.1213 14.9697L30.1153 14.9447L30.1083 14.9201C30.0906 14.8538 30.0672 14.789 30.0419 14.7248C29.9965 14.6139 29.9404 14.5065 29.875 14.4041L30.3226 13.9147C30.3016 13.8972 30.28 13.8802 30.2582 13.8631C30.2364 13.8464 30.2141 13.8299 30.1917 13.8141L29.7615 14.3169C29.641 14.2764 29.517 14.2459 29.3915 14.2256C29.319 14.2148 29.2462 14.2057 29.1732 14.2023L29.1459 14.2007L29.1184 14.1998C29.1 14.1996 29.0817 14.1987 29.0635 14.1986L29.0088 14.1991L28.9952 14.1991L28.9816 14.1997L28.9541 14.2009C28.8086 14.2071 28.6644 14.2288 28.5249 14.2639C28.4554 14.2814 28.3866 14.3025 28.3198 14.3272C28.253 14.3521 28.1873 14.3797 28.1255 14.4136C28.1897 14.384 28.2571 14.3613 28.325 14.3412C28.3933 14.3215 28.4625 14.3055 28.5324 14.2931C28.672 14.2682 28.8141 14.2571 28.9552 14.2609L28.9816 14.2617L28.9948 14.2621L29.0081 14.2631L29.0607 14.2664C29.0783 14.2677 29.0959 14.2696 29.1132 14.2713L29.1395 14.2738L29.1657 14.2772C29.2355 14.2853 29.3043 14.2988 29.3723 14.314C29.4781 14.3386 29.5815 14.3714 29.6814 14.4111L28.9127 15.3094C28.807 15.2902 28.7003 15.2777 28.5937 15.2722C28.5359 15.2694 28.4781 15.2681 28.4204 15.2691C28.3627 15.2702 28.3051 15.2725 28.2479 15.2771C28.1906 15.2817 28.1338 15.288 28.0771 15.2959C28.0206 15.3039 27.9643 15.3137 27.9085 15.3251C27.8528 15.3366 27.7975 15.3495 27.7428 15.3647C27.6885 15.3799 27.6342 15.3962 27.5817 15.4162C27.6361 15.401 27.6911 15.3895 27.7466 15.3793C27.8021 15.3692 27.8579 15.3614 27.9138 15.3546C27.9699 15.3483 28.0258 15.3437 28.0822 15.3406C28.1384 15.3377 28.1944 15.3365 28.2504 15.3371C28.3064 15.3374 28.3623 15.3402 28.4181 15.3439C28.4738 15.3481 28.5292 15.3541 28.5843 15.3616C28.6666 15.3732 28.7478 15.3893 28.8275 15.409L28.1251 16.2302C28.0745 16.2271 28.0241 16.2264 27.9742 16.2285C27.9205 16.2314 27.8672 16.2363 27.8147 16.244C27.7623 16.252 27.7104 16.2617 27.6593 16.2734C27.6082 16.2853 27.5577 16.2987 27.5079 16.3137C27.4084 16.3441 27.3115 16.3796 27.2173 16.4199C27.1231 16.4605 27.0308 16.5044 26.9429 16.5544C27.0359 16.5132 27.1322 16.4784 27.2293 16.4477C27.3265 16.417 27.4252 16.3914 27.525 16.3715C27.5747 16.3616 27.6247 16.3535 27.6749 16.347C27.725 16.3405 27.7753 16.3362 27.8253 16.3334C27.8755 16.331 27.9252 16.3312 27.9747 16.3334C27.9944 16.3346 28.0137 16.3361 28.033 16.3381L26.9405 17.6153L28.0771 16.372C28.0827 16.3894 28.0883 16.4068 28.0932 16.4244C28.105 16.4692 28.1145 16.5148 28.1216 16.5609C28.1286 16.6072 28.1335 16.6539 28.1363 16.7009C28.1388 16.748 28.1398 16.7954 28.139 16.8429C28.1371 16.9378 28.1291 17.0329 28.1152 17.1277C28.1014 17.2223 28.0832 17.317 28.0576 17.41C28.0935 17.3199 28.1224 17.2272 28.1468 17.1333C28.1713 17.0393 28.1903 16.9441 28.2032 16.8472C28.2095 16.7988 28.2139 16.7501 28.2165 16.701C28.2191 16.6522 28.2192 16.6028 28.2178 16.5533C28.2157 16.5038 28.2107 16.4542 28.2035 16.4046C28.1961 16.3585 28.1859 16.3126 28.1729 16.2669L28.9037 15.4676C28.94 15.5368 28.9723 15.608 29.0002 15.6811C29.0188 15.7298 29.0356 15.7795 29.0507 15.8295C29.0654 15.8797 29.0789 15.9303 29.09 15.9814C29.1012 16.0327 29.1108 16.0842 29.1184 16.136C29.126 16.1879 29.1318 16.2402 29.1357 16.2925C29.1395 16.3447 29.1418 16.3973 29.1418 16.4501C29.1417 16.5027 29.1403 16.5554 29.1346 16.6078C29.1455 16.556 29.1525 16.5034 29.1579 16.4507C29.1632 16.3978 29.1663 16.3448 29.1679 16.2918C29.1693 16.2386 29.1687 16.1854 29.1664 16.1321C29.164 16.0789 29.1597 16.0255 29.1534 15.9723C29.1474 15.919 29.1387 15.866 29.129 15.8131C29.1187 15.7602 29.1065 15.7077 29.0926 15.6552C29.0662 15.5587 29.0327 15.4636 28.9922 15.3707L29.7919 14.4961C29.8528 14.5799 29.907 14.668 29.9533 14.7601C29.9821 14.8195 30.0096 14.8798 30.0315 14.9421L30.0401 14.9652L30.0479 14.9887C30.0529 15.0044 30.0583 15.02 30.063 15.0357L30.0766 15.0833L30.0799 15.0952L30.0829 15.1071L30.0887 15.1312C30.1198 15.2595 30.1352 15.3914 30.1358 15.5239C30.136 15.5902 30.1324 15.6564 30.1247 15.7225C30.1166 15.7886 30.1055 15.8545 30.0868 15.9188L30.0862 15.9183Z" fill="url(#paint21_linear_0_1)"/>
<path d="M26.4934 14.0824C26.8549 13.1944 26.3951 12.2023 25.4644 11.8303C25.4402 11.8205 25.4157 11.8114 25.391 11.8025C25.3662 11.7938 25.3414 11.7856 25.3164 11.7776C24.3563 11.4778 23.3069 11.9335 22.9455 12.8215C22.259 14.5074 23.3158 16.8997 23.3158 16.8997C23.3158 16.8997 25.8286 15.716 26.4937 14.0824L26.4934 14.0824Z" fill="url(#paint22_linear_0_1)"/>
<path d="M25.8986 13.6704C25.8997 13.608 25.8931 13.5456 25.8839 13.4836C25.8744 13.4216 25.861 13.36 25.844 13.2992C25.8101 13.1775 25.7621 13.0584 25.7002 12.9453L25.6887 12.9241L25.6828 12.9135L25.6766 12.9032L25.6518 12.8615C25.643 12.8477 25.6341 12.8344 25.6254 12.8206L25.6119 12.8002L25.5978 12.7803C25.561 12.7265 25.5194 12.6757 25.4764 12.6259C25.4008 12.5403 25.3168 12.4607 25.2259 12.3881L25.4642 11.8302C25.4401 11.8204 25.4155 11.8114 25.3909 11.8024C25.366 11.7937 25.3413 11.7855 25.3162 11.7775L25.0976 12.3424C24.978 12.3401 24.8586 12.3474 24.7413 12.3644C24.6737 12.375 24.6067 12.3872 24.5409 12.4044L24.5163 12.4107L24.4918 12.4176C24.4756 12.4225 24.459 12.4269 24.443 12.4319L24.3947 12.4477L24.3827 12.4516L24.3708 12.4558L24.3468 12.4645C24.2202 12.5105 24.0998 12.5697 23.9877 12.6396C23.9318 12.6746 23.878 12.7123 23.8267 12.7527C23.7758 12.7933 23.7265 12.836 23.6827 12.8832C23.7302 12.8392 23.7824 12.8004 23.8359 12.7637C23.8898 12.7273 23.9458 12.6939 24.0035 12.6634C24.1189 12.6027 24.2408 12.5531 24.3668 12.5174L24.3904 12.5108L24.4021 12.5074L24.414 12.5045L24.4616 12.4928C24.4776 12.489 24.4936 12.4858 24.5096 12.4825L24.5337 12.4776L24.5579 12.4733C24.622 12.461 24.6872 12.4539 24.7522 12.4483C24.8537 12.4409 24.9556 12.4411 25.0565 12.4484L24.6656 13.4577C24.566 13.4703 24.4679 13.4886 24.3718 13.5135C24.3197 13.5272 24.2683 13.5421 24.2174 13.5589C24.1669 13.5759 24.1168 13.594 24.0675 13.6141C24.0186 13.6341 23.9702 13.6554 23.9226 13.6782C23.8752 13.701 23.8286 13.7254 23.7829 13.7509C23.7374 13.7765 23.6928 13.8035 23.6492 13.8321C23.606 13.8606 23.5634 13.8902 23.5233 13.9224C23.5664 13.8937 23.6116 13.8682 23.6574 13.8438C23.7032 13.8194 23.75 13.7968 23.7973 13.7756C23.8447 13.7545 23.8927 13.7348 23.9414 13.7165C23.99 13.6983 24.0393 13.6818 24.0889 13.6666C24.1387 13.6513 24.1889 13.6382 24.2392 13.6262C24.2897 13.6143 24.3406 13.6043 24.3916 13.5957C24.4679 13.5831 24.5449 13.5746 24.6218 13.57L24.2645 14.4925C24.2187 14.5038 24.174 14.5173 24.1306 14.5328C24.0841 14.5503 24.0387 14.5696 23.9946 14.591C23.9508 14.6127 23.908 14.6357 23.8666 14.6604C23.8253 14.685 23.7849 14.711 23.7458 14.7381C23.6675 14.7926 23.5933 14.8511 23.5229 14.913C23.4528 14.9751 23.3853 15.0397 23.3235 15.1085C23.3926 15.0461 23.4666 14.9886 23.5424 14.9344C23.6184 14.8802 23.6975 14.8299 23.7792 14.7846C23.8199 14.762 23.8615 14.7409 23.9039 14.7211C23.9462 14.7013 23.9891 14.6836 24.0326 14.6673C24.076 14.6513 24.1202 14.6376 24.1646 14.6257C24.1823 14.6212 24.1999 14.6172 24.2177 14.6136L23.6619 16.0484L24.2673 14.6314C24.278 14.6452 24.2884 14.659 24.2984 14.6733C24.3231 14.7097 24.3463 14.7473 24.3673 14.7862C24.3882 14.8253 24.4078 14.8653 24.4253 14.9062C24.4426 14.9473 24.4587 14.9889 24.4732 15.031C24.5019 15.1154 24.5253 15.202 24.5438 15.2898C24.562 15.3774 24.5761 15.4663 24.5835 15.5558C24.5863 15.466 24.5821 15.3759 24.5735 15.2858C24.5651 15.1959 24.5513 15.1062 24.5315 15.0169C24.5216 14.9723 24.5097 14.928 24.4964 14.8837C24.4831 14.8398 24.4674 14.796 24.45 14.7525C24.4325 14.7093 24.412 14.6667 24.3897 14.6247C24.3685 14.5859 24.3447 14.5482 24.3184 14.5114L24.7075 13.6002C24.7618 13.6514 24.8132 13.7056 24.8614 13.7624C24.8935 13.8004 24.9243 13.8396 24.9536 13.8797C24.9828 13.9201 25.011 13.9612 25.037 14.0034C25.0634 14.0455 25.0884 14.0885 25.1118 14.1323C25.1352 14.1762 25.157 14.2209 25.1773 14.2662C25.1975 14.3113 25.2165 14.3573 25.2334 14.4039C25.2503 14.4505 25.2658 14.4975 25.2776 14.5457C25.2706 14.4968 25.2599 14.4483 25.2478 14.4001C25.2355 14.3518 25.2213 14.304 25.2055 14.2565C25.1895 14.2091 25.1721 14.1621 25.153 14.1155C25.1337 14.069 25.1129 14.0231 25.0903 13.9775C25.0678 13.932 25.0432 13.8874 25.0176 13.8433C24.9916 13.7993 24.964 13.7561 24.9346 13.7136C24.8805 13.6355 24.8201 13.5607 24.7545 13.4896L25.1805 12.4926C25.2612 12.55 25.3374 12.613 25.4078 12.6815C25.4522 12.726 25.4959 12.7719 25.5353 12.8208L25.5504 12.8389L25.5648 12.8575C25.5742 12.87 25.5841 12.8824 25.5933 12.895L25.6205 12.9333L25.6274 12.9429L25.6337 12.9527L25.6465 12.9723C25.7151 13.0773 25.771 13.1899 25.8139 13.307C25.8355 13.3656 25.8535 13.4253 25.8678 13.486C25.8818 13.5467 25.8932 13.6082 25.8973 13.6704L25.8986 13.6704Z" fill="url(#paint23_linear_0_1)"/>
<path d="M21.6776 14.0609C21.7948 13.224 21.1799 12.4532 20.2942 12.3083C20.2711 12.3045 20.2479 12.3012 20.2246 12.2983C20.2013 12.2953 20.178 12.293 20.1546 12.291C19.2593 12.2142 18.4531 12.8081 18.3357 13.6451C18.113 15.2342 19.5509 17.1027 19.5509 17.1027C19.5509 17.1027 21.4615 15.6007 21.6773 14.0609L21.6776 14.0609Z" fill="url(#paint24_linear_0_1)"/>
<path d="M21.0735 13.8176C21.0607 13.7635 21.0413 13.7107 21.0199 13.6587C20.9981 13.607 20.973 13.5561 20.9449 13.5069C20.8889 13.408 20.8215 13.3141 20.7431 13.2283L20.7284 13.2122L20.7211 13.204L20.7134 13.1962L20.6827 13.165C20.6723 13.1547 20.6616 13.1448 20.6509 13.1346L20.6349 13.1193L20.6183 13.1048C20.5747 13.0654 20.5275 13.0293 20.4795 12.9943C20.3954 12.9347 20.3053 12.8818 20.211 12.8364L20.2945 12.3083C20.2714 12.3045 20.2482 12.3011 20.2248 12.2982C20.2015 12.2953 20.1782 12.2929 20.1548 12.2909L20.0899 12.8212C19.9862 12.842 19.8846 12.8709 19.7869 12.9079C19.7308 12.9299 19.6756 12.9532 19.6225 12.9807L19.6025 12.9908L19.5829 13.0014C19.57 13.0087 19.5566 13.0156 19.5439 13.0231L19.5056 13.0459L19.4962 13.0516L19.4867 13.0576L19.4681 13.0695C19.3689 13.1333 19.2779 13.2076 19.1964 13.2893C19.1557 13.3303 19.1175 13.3729 19.0821 13.4177C19.0469 13.4625 19.0139 13.5089 18.9864 13.5579C19.0176 13.5108 19.0543 13.4674 19.0925 13.4253C19.1312 13.3835 19.1723 13.344 19.2153 13.3067C19.3015 13.2322 19.3961 13.1662 19.497 13.1112L19.516 13.1011L19.5255 13.0959L19.5352 13.0912L19.5737 13.0719C19.5867 13.0657 19.5999 13.0599 19.6129 13.054L19.6325 13.0451L19.6524 13.0368C19.7052 13.0142 19.76 12.9955 19.8148 12.9784C19.901 12.9526 19.9888 12.9334 20.0777 12.9204L19.9615 13.8678C19.8784 13.8975 19.7975 13.9322 19.72 13.9718C19.6782 13.9935 19.637 14.0163 19.5968 14.0404C19.5569 14.0647 19.5173 14.0898 19.4794 14.1165C19.4415 14.1432 19.4043 14.1708 19.3684 14.1995C19.3324 14.2283 19.2975 14.2582 19.2637 14.289C19.23 14.3199 19.1973 14.3516 19.1659 14.3846C19.1349 14.4176 19.1044 14.4511 19.0771 14.4866C19.1079 14.4537 19.1415 14.423 19.1756 14.3932C19.2098 14.3635 19.2452 14.335 19.2814 14.3075C19.3177 14.2802 19.3549 14.254 19.393 14.229C19.431 14.2039 19.4699 14.1804 19.5094 14.1577C19.5489 14.1349 19.5895 14.114 19.6303 14.0941C19.6713 14.0742 19.7131 14.0558 19.7552 14.0387C19.8186 14.0133 19.8831 13.9914 19.9486 13.9726L19.8425 14.8386C19.8054 14.8569 19.7698 14.8773 19.7358 14.8991C19.6993 14.9231 19.6643 14.9484 19.631 14.9752C19.598 15.0022 19.5661 15.0302 19.5357 15.0594C19.5054 15.0886 19.4764 15.1189 19.4485 15.1496C19.3929 15.2116 19.3416 15.2764 19.2944 15.3432C19.2473 15.4103 19.2034 15.479 19.1652 15.5502C19.2113 15.483 19.2622 15.4193 19.3161 15.3579C19.3699 15.2965 19.4272 15.2381 19.488 15.1834C19.5182 15.1561 19.5495 15.1299 19.5816 15.1047C19.6139 15.0797 19.647 15.056 19.6808 15.0338C19.7148 15.0116 19.7501 14.9913 19.7857 14.9728C19.8001 14.9656 19.8146 14.9588 19.8289 14.9524L19.6639 16.2993L19.8758 14.9582C19.888 14.968 19.9002 14.9782 19.9118 14.9886C19.9411 15.0154 19.9694 15.0435 19.996 15.0733C20.0226 15.103 20.0484 15.1339 20.0724 15.166C20.0965 15.1981 20.1195 15.2311 20.1412 15.2649C20.1845 15.3326 20.2238 15.403 20.2588 15.4754C20.2939 15.5477 20.3256 15.6218 20.3515 15.6981C20.3341 15.6199 20.3108 15.5427 20.2836 15.4664C20.2566 15.3902 20.2249 15.3151 20.1883 15.2418C20.1698 15.2052 20.1501 15.1689 20.1289 15.1332C20.1076 15.0977 20.0845 15.0628 20.06 15.0285C20.0351 14.9945 20.0083 14.9615 19.9798 14.9294C19.9529 14.8999 19.9241 14.8717 19.8935 14.8448L20.0296 13.9826C20.0877 14.0166 20.144 14.0536 20.1979 14.0936C20.2339 14.1204 20.2692 14.1485 20.3033 14.1777C20.3374 14.2071 20.3708 14.2372 20.4026 14.2688C20.4346 14.3004 20.4655 14.3326 20.4955 14.3662C20.5252 14.3997 20.554 14.4341 20.5815 14.4695C20.6089 14.5048 20.6354 14.5409 20.66 14.5781C20.6848 14.6151 20.7086 14.6529 20.7294 14.6924C20.7126 14.6513 20.6926 14.6114 20.6717 14.5721C20.6506 14.5326 20.6276 14.494 20.6038 14.4559C20.5797 14.4179 20.5542 14.3805 20.5275 14.344C20.5007 14.3074 20.4725 14.2717 20.4432 14.2366C20.4138 14.2015 20.3828 14.1676 20.3509 14.1344C20.3189 14.1012 20.2853 14.0692 20.2508 14.0379C20.1869 13.9807 20.1183 13.9273 20.046 13.8783L20.195 12.9349C20.2773 12.9691 20.3569 13.0091 20.4329 13.0551C20.4811 13.0851 20.5288 13.1166 20.5737 13.1514L20.5905 13.1642L20.6071 13.1776C20.6182 13.1866 20.6291 13.1954 20.64 13.2048L20.6721 13.2328L20.68 13.2397L20.6877 13.247L20.7032 13.2616C20.7856 13.3393 20.8584 13.4261 20.9214 13.5193C20.9528 13.5658 20.9816 13.614 21.0072 13.6638C21.0326 13.7138 21.0559 13.7648 21.073 13.8178L21.0735 13.8176Z" fill="url(#paint25_linear_0_1)"/>
<path d="M25.0825 31.0755C19.6351 34.2667 11.4585 32.7664 7.57315 34.7797C7.57315 34.7797 10.1907 23.328 16.6287 19.3253C20.0191 17.217 24.5812 17.9973 26.9717 21.0427C27.0339 21.1216 27.0947 21.2026 27.1537 21.2844C27.2127 21.3664 27.27 21.4493 27.3247 21.533C29.4395 24.7496 28.5336 29.0538 25.0823 31.0754L25.0825 31.0755Z" fill="url(#paint26_linear_0_1)"/>
<path d="M24.163 28.4506C24.3047 28.2397 24.4207 28.0151 24.5258 27.7875C24.63 27.5594 24.7192 27.3257 24.7951 27.0894C24.9461 26.6157 25.0435 26.1289 25.0802 25.6399L25.0871 25.5481L25.0907 25.5021L25.0923 25.4564L25.0989 25.2729C25.1004 25.2116 25.0991 25.1503 25.099 25.0892L25.0987 24.9978L25.0948 24.9064C25.0881 24.662 25.0594 24.4192 25.0249 24.1782C24.9651 23.803 24.8733 23.4341 24.752 23.074L20.88 25.3973C20.9177 25.7701 20.9279 26.1429 20.9108 26.5141C20.9006 26.715 20.8837 26.9152 20.8591 27.1145C20.8331 27.3134 20.8024 27.5114 20.7623 27.7073C20.7226 27.9037 20.6768 28.0984 20.6239 28.2913C20.5705 28.484 20.5106 28.6743 20.4446 28.863C20.378 29.0513 20.3054 29.2375 20.2252 29.4209C20.1448 29.6036 20.059 29.7846 19.9597 29.9587C20.041 29.7769 20.1074 29.5898 20.1685 29.402C20.2294 29.2138 20.282 29.0238 20.3282 28.8329C20.3747 28.642 20.4141 28.4496 20.4471 28.2568C20.4795 28.0635 20.5048 27.8701 20.5241 27.6763C20.5437 27.4827 20.5533 27.2879 20.5591 27.0943C20.5632 26.9002 20.5597 26.7067 20.5499 26.5137C20.5341 26.2251 20.5008 25.9382 20.451 25.655L16.9122 27.7785C16.9059 27.9548 16.8897 28.129 16.8628 28.3007C16.8318 28.4856 16.7919 28.6677 16.7417 28.8465C16.6904 29.0253 16.633 29.2012 16.5669 29.3733C16.5005 29.5457 16.4283 29.7151 16.3498 29.8818C16.1922 30.2146 16.0136 30.5363 15.8176 30.847C15.6212 31.1579 15.4109 31.4601 15.1783 31.7461C15.3777 31.4392 15.5522 31.1198 15.7109 30.7953C15.8694 30.4708 16.0082 30.1385 16.1249 29.8017C16.1828 29.6334 16.2335 29.4629 16.2788 29.2922C16.3235 29.1214 16.3593 28.9494 16.3885 28.7773C16.4165 28.6051 16.4344 28.4326 16.4441 28.261C16.4468 28.193 16.4475 28.1251 16.4471 28.0576L10.9429 31.3607L16.3285 27.893C16.2617 27.8669 16.1941 27.8415 16.1252 27.8179C15.951 27.7605 15.7725 27.71 15.5907 27.6686C15.4086 27.6279 15.2239 27.5929 15.037 27.5662C14.8499 27.5398 14.6614 27.5187 14.4719 27.5043C14.0922 27.4754 13.7092 27.4679 13.3257 27.4802C12.9425 27.4927 12.5585 27.5207 12.1772 27.5747C12.5505 27.4842 12.9314 27.4191 13.3153 27.3686C13.6993 27.3189 14.0873 27.2885 14.4784 27.2803C14.674 27.2765 14.87 27.2792 15.0667 27.2876C15.2632 27.2969 15.46 27.3144 15.6569 27.3384C15.854 27.3637 16.0502 27.399 16.2458 27.4428C16.4268 27.4854 16.6061 27.5379 16.7837 27.5998L20.2464 25.3702C19.9838 25.2194 19.7112 25.0811 19.4301 24.9575C19.2421 24.8753 19.0509 24.7986 18.8566 24.728C18.6617 24.659 18.4649 24.5931 18.2646 24.5357C18.0647 24.4783 17.8625 24.4259 17.6583 24.38C17.4538 24.3348 17.2477 24.2954 17.0401 24.2622C16.8326 24.229 16.6236 24.2019 16.4132 24.1824C16.2031 24.1631 15.992 24.1489 15.7799 24.1489C15.9908 24.13 16.2039 24.1257 16.4163 24.1262C16.629 24.1276 16.8419 24.1359 17.0545 24.1511C17.267 24.1661 17.4792 24.1876 17.6913 24.2152C17.9031 24.2433 18.1143 24.2784 18.3243 24.319C18.5346 24.3595 18.7434 24.4091 18.9509 24.4626C19.1585 24.5174 19.3639 24.5794 19.5677 24.6474C19.9429 24.7741 20.3101 24.9257 20.666 25.1L24.4546 22.6608C24.1428 22.4192 23.8111 22.1991 23.4608 22.0048C23.2343 21.883 23.0037 21.7656 22.7637 21.667L22.6742 21.6285L22.5833 21.593C22.5227 21.5697 22.4622 21.5454 22.4006 21.5231L22.2159 21.459L22.1695 21.4428L22.1225 21.4284L22.0288 21.3994C21.5283 21.2447 21.0071 21.1423 20.4788 21.0914C20.2146 21.0659 19.9484 21.0538 19.6818 21.0559C19.4154 21.0597 19.1478 21.0734 18.884 21.1144C19.1439 21.0551 19.4113 21.0225 19.679 21.0001C19.9467 20.9793 20.2163 20.9729 20.4861 20.98C21.0258 20.9943 21.5667 21.0611 22.0949 21.1845L22.1938 21.208L22.2437 21.2193L22.2926 21.2326L22.489 21.2859C22.5541 21.3043 22.6187 21.3254 22.684 21.3449L22.7811 21.3751L22.8771 21.4083C23.1349 21.4937 23.3845 21.599 23.6318 21.7099C24.0579 21.9079 24.4658 22.1418 24.8504 22.4066L26.9707 21.0412C27.0329 21.1201 27.0936 21.2011 27.1526 21.2829C27.2116 21.3649 27.269 21.4478 27.3237 21.5314L25.1563 22.8318C25.2727 23.2634 25.3492 23.703 25.3834 24.1445C25.3995 24.3994 25.4087 24.6544 25.3952 24.9085L25.3917 25.0037L25.3845 25.0988C25.3792 25.1621 25.3753 25.2254 25.3689 25.2884L25.3466 25.4774L25.3411 25.5245L25.3335 25.5716L25.319 25.6656C25.2399 26.1667 25.1002 26.6568 24.9084 27.126C24.8122 27.3603 24.7028 27.5898 24.5801 27.8119C24.4555 28.0332 24.321 28.2504 24.1626 28.451L24.163 28.4506Z" fill="url(#paint27_linear_0_1)"/>
<defs>
<linearGradient id="paint0_linear_0_1" x1="55.0864" y1="27.313" x2="45.5062" y2="34.3827" gradientUnits="userSpaceOnUse">
<stop stop-color="#91C73D"/>
<stop offset="1" stop-color="#4FB043"/>
</linearGradient>
<linearGradient id="paint1_linear_0_1" x1="49.3239" y1="26.2984" x2="46.2997" y2="35.7105" gradientUnits="userSpaceOnUse">
<stop stop-color="#4FB043"/>
<stop offset="1" stop-color="#39942E"/>
</linearGradient>
<linearGradient id="paint2_linear_0_1" x1="59.828" y1="8.85841" x2="59.5546" y2="2.93176" gradientUnits="userSpaceOnUse">
<stop stop-color="#91C73D"/>
<stop offset="1" stop-color="#4FB043"/>
</linearGradient>
<linearGradient id="paint3_linear_0_1" x1="59.5556" y1="7.33736" x2="59.5596" y2="2.31207" gradientUnits="userSpaceOnUse">
<stop stop-color="#4FB043"/>
<stop offset="1" stop-color="#39942E"/>
</linearGradient>
<linearGradient id="paint4_linear_0_1" x1="64.0169" y1="9.05332" x2="65.439" y2="3.94031" gradientUnits="userSpaceOnUse">
<stop stop-color="#91C73D"/>
<stop offset="1" stop-color="#4FB043"/>
</linearGradient>
<linearGradient id="paint5_linear_0_1" x1="64.3966" y1="8.04779" x2="65.6953" y2="3.14515" gradientUnits="userSpaceOnUse">
<stop stop-color="#4FB043"/>
<stop offset="1" stop-color="#39942E"/>
</linearGradient>
<linearGradient id="paint6_linear_0_1" x1="66.8279" y1="9.40561" x2="71.3918" y2="6.17312" gradientUnits="userSpaceOnUse">
<stop stop-color="#91C73D"/>
<stop offset="1" stop-color="#4FB043"/>
</linearGradient>
<linearGradient id="paint7_linear_0_1" x1="67.6109" y1="8.9615" x2="71.3645" y2="6.30307" gradientUnits="userSpaceOnUse">
<stop stop-color="#4FB043"/>
<stop offset="1" stop-color="#39942E"/>
</linearGradient>
<linearGradient id="paint8_linear_0_1" x1="69.717" y1="12.8098" x2="74.1329" y2="9.68202" gradientUnits="userSpaceOnUse">
<stop stop-color="#91C73D"/>
<stop offset="1" stop-color="#4FB043"/>
</linearGradient>
<linearGradient id="paint9_linear_0_1" x1="70.4769" y1="12.3465" x2="74.1547" y2="9.74183" gradientUnits="userSpaceOnUse">
<stop stop-color="#4FB043"/>
<stop offset="1" stop-color="#39942E"/>
</linearGradient>
<linearGradient id="paint10_linear_0_1" x1="70.7073" y1="16.9228" x2="74.5576" y2="14.1956" gradientUnits="userSpaceOnUse">
<stop stop-color="#91C73D"/>
<stop offset="1" stop-color="#4FB043"/>
</linearGradient>
<linearGradient id="paint11_linear_0_1" x1="71.1017" y1="15.9049" x2="74.4707" y2="14.9149" gradientUnits="userSpaceOnUse">
<stop stop-color="#4FB043"/>
<stop offset="1" stop-color="#39942E"/>
</linearGradient>
<linearGradient id="paint12_linear_0_1" x1="67.8807" y1="13.5487" x2="53.7566" y2="23.9716" gradientUnits="userSpaceOnUse">
<stop stop-color="#91C73D"/>
<stop offset="1" stop-color="#4FB043"/>
</linearGradient>
<linearGradient id="paint13_linear_0_1" x1="63.2824" y1="11.4361" x2="58.7969" y2="25.3971" gradientUnits="userSpaceOnUse">
<stop stop-color="#4FB043"/>
<stop offset="1" stop-color="#39942E"/>
</linearGradient>
<linearGradient id="paint14_linear_0_1" x1="11.3979" y1="32.9568" x2="7.34234" y2="43.6824" gradientUnits="userSpaceOnUse">
<stop stop-color="#91C73D"/>
<stop offset="1" stop-color="#4FB043"/>
</linearGradient>
<linearGradient id="paint15_linear_0_1" x1="13.6991" y1="37.9809" x2="5.06665" y2="43.6471" gradientUnits="userSpaceOnUse">
<stop stop-color="#4FB043"/>
<stop offset="1" stop-color="#39942E"/>
</linearGradient>
<linearGradient id="paint16_linear_0_1" x1="29.7286" y1="24.6745" x2="35.9817" y2="23.542" gradientUnits="userSpaceOnUse">
<stop stop-color="#91C73D"/>
<stop offset="1" stop-color="#4FB043"/>
</linearGradient>
<linearGradient id="paint17_linear_0_1" x1="31.3827" y1="24.5948" x2="36.6133" y2="23.354" gradientUnits="userSpaceOnUse">
<stop stop-color="#4FB043"/>
<stop offset="1" stop-color="#39942E"/>
</linearGradient>
<linearGradient id="paint18_linear_0_1" x1="28.6205" y1="20.9062" x2="33.4029" y2="18.056" gradientUnits="userSpaceOnUse">
<stop stop-color="#91C73D"/>
<stop offset="1" stop-color="#4FB043"/>
</linearGradient>
<linearGradient id="paint19_linear_0_1" x1="29.5951" y1="20.3465" x2="34.2079" y2="17.6817" gradientUnits="userSpaceOnUse">
<stop stop-color="#4FB043"/>
<stop offset="1" stop-color="#39942E"/>
</linearGradient>
<linearGradient id="paint20_linear_0_1" x1="27.6497" y1="18.4249" x2="29.4596" y2="13.3642" gradientUnits="userSpaceOnUse">
<stop stop-color="#91C73D"/>
<stop offset="1" stop-color="#4FB043"/>
</linearGradient>
<linearGradient id="paint21_linear_0_1" x1="27.9488" y1="17.6163" x2="29.4373" y2="13.4542" gradientUnits="userSpaceOnUse">
<stop stop-color="#4FB043"/>
<stop offset="1" stop-color="#39942E"/>
</linearGradient>
<linearGradient id="paint22_linear_0_1" x1="23.4585" y1="16.5283" x2="25.2098" y2="11.6317" gradientUnits="userSpaceOnUse">
<stop stop-color="#91C73D"/>
<stop offset="1" stop-color="#4FB043"/>
</linearGradient>
<linearGradient id="paint23_linear_0_1" x1="23.7822" y1="15.7384" x2="25.2405" y2="11.6604" gradientUnits="userSpaceOnUse">
<stop stop-color="#4FB043"/>
<stop offset="1" stop-color="#39942E"/>
</linearGradient>
<linearGradient id="paint24_linear_0_1" x1="18.9328" y1="16.5131" x2="20.4597" y2="12.2436" gradientUnits="userSpaceOnUse">
<stop stop-color="#91C73D"/>
<stop offset="1" stop-color="#4FB043"/>
</linearGradient>
<linearGradient id="paint25_linear_0_1" x1="19.9156" y1="15.9361" x2="20.0705" y2="12.6509" gradientUnits="userSpaceOnUse">
<stop stop-color="#4FB043"/>
<stop offset="1" stop-color="#39942E"/>
</linearGradient>
<linearGradient id="paint26_linear_0_1" x1="23.0798" y1="18.3588" x2="17.1007" y2="34.1715" gradientUnits="userSpaceOnUse">
<stop stop-color="#91C73D"/>
<stop offset="1" stop-color="#4FB043"/>
</linearGradient>
<linearGradient id="paint27_linear_0_1" x1="26.2815" y1="22.0851" x2="13.4768" y2="30.4896" gradientUnits="userSpaceOnUse">
<stop stop-color="#4FB043"/>
<stop offset="1" stop-color="#39942E"/>
</linearGradient>
</defs>
</svg>
