<svg width="44" height="37" viewBox="0 0 44 37" fill="none" xmlns="http://www.w3.org/2000/svg">
<path d="M3.06384 5.43411C5.45384 4.39349 8.88085 3.2713 12.2133 2.92255C15.8051 2.54567 18.8513 3.09974 20.6175 5.03755V32.4482C18.0925 30.9576 14.8923 30.7522 11.9406 31.0616C8.75392 31.3991 5.54026 32.3582 3.06384 33.3426V5.43411ZM23.318 5.03755C25.0842 3.09974 28.1304 2.54567 31.7222 2.92255C35.0547 3.2713 38.4817 4.39349 40.8717 5.43411V33.3426C38.3926 32.3582 35.1816 31.3963 31.9949 31.0644C29.0405 30.7522 25.8431 30.9547 23.318 32.4482V5.03755ZM21.9678 2.49505C19.3077 0.112862 15.4513 -0.241513 11.9406 0.124112C7.85194 0.554425 3.72548 2.01411 1.15455 3.23193C0.918649 3.34366 0.718608 3.52373 0.578303 3.75064C0.437997 3.97755 0.363353 4.24172 0.363281 4.51161L0.363281 35.4491C0.363344 35.6844 0.420093 35.9159 0.528332 36.1224C0.63657 36.329 0.792837 36.5039 0.982819 36.6312C1.1728 36.7586 1.39042 36.8342 1.61576 36.8513C1.84109 36.8683 2.06692 36.8262 2.27258 36.7288C4.65447 35.6038 8.49197 34.251 12.2106 33.8601C16.0157 33.4607 19.2051 34.1047 20.9145 36.3266C21.0411 36.4909 21.2014 36.6234 21.3837 36.7145C21.566 36.8056 21.7656 36.8529 21.9678 36.8529C22.1699 36.8529 22.3696 36.8056 22.5518 36.7145C22.7341 36.6234 22.8945 36.4909 23.021 36.3266C24.7304 34.1047 27.9198 33.4607 31.7222 33.8601C35.4436 34.251 39.2838 35.6038 41.663 36.7288C41.8686 36.8262 42.0944 36.8683 42.3198 36.8513C42.5451 36.8342 42.7627 36.7586 42.9527 36.6312C43.1427 36.5039 43.299 36.329 43.4072 36.1224C43.5154 35.9159 43.5722 35.6844 43.5722 35.4491V4.51161C43.5722 4.24172 43.4975 3.97755 43.3572 3.75064C43.2169 3.52373 43.0169 3.34366 42.781 3.23193C40.21 2.01411 36.0836 0.554425 31.9949 0.124112C28.4842 -0.244325 24.6278 0.112862 21.9678 2.49505Z" fill="#00778B"/>
</svg>
