<svg width="46" height="33" viewBox="0 0 46 33" fill="none" xmlns="http://www.w3.org/2000/svg">
<path d="M42.4912 32.64C42.4912 32.64 45.3239 32.64 45.3239 29.92C45.3239 27.2 42.4912 19.04 31.1602 19.04C19.8292 19.04 16.9965 27.2 16.9965 29.92C16.9965 32.64 19.8292 32.64 19.8292 32.64H42.4912ZM19.8915 29.92C19.8706 29.9172 19.8498 29.9136 19.8292 29.9091C19.832 29.191 20.3023 27.1075 21.9821 25.2307C23.5458 23.4709 26.2935 21.76 31.1602 21.76C36.024 21.76 38.7718 23.4736 40.3383 25.2307C42.0181 27.1075 42.4855 29.1938 42.4912 29.9091L42.4685 29.9146C42.4553 29.9167 42.4421 29.9185 42.4289 29.92H19.8915ZM31.1602 13.6C32.6628 13.6 34.1038 13.0269 35.1663 12.0067C36.2288 10.9865 36.8257 9.60278 36.8257 8.16C36.8257 6.71722 36.2288 5.33354 35.1663 4.31334C34.1038 3.29314 32.6628 2.72 31.1602 2.72C29.6576 2.72 28.2166 3.29314 27.1541 4.31334C26.0916 5.33354 25.4947 6.71722 25.4947 8.16C25.4947 9.60278 26.0916 10.9865 27.1541 12.0067C28.2166 13.0269 29.6576 13.6 31.1602 13.6ZM39.6584 8.16C39.6584 9.23158 39.4386 10.2927 39.0115 11.2827C38.5845 12.2727 37.9585 13.1723 37.1694 13.93C36.3802 14.6877 35.4434 15.2888 34.4123 15.6989C33.3813 16.1089 32.2762 16.32 31.1602 16.32C30.0442 16.32 28.9391 16.1089 27.9081 15.6989C26.877 15.2888 25.9402 14.6877 25.151 13.93C24.3619 13.1723 23.7359 12.2727 23.3088 11.2827C22.8818 10.2927 22.662 9.23158 22.662 8.16C22.662 5.99583 23.5573 3.92031 25.151 2.39001C26.7448 0.859712 28.9063 0 31.1602 0C33.4141 0 35.5756 0.859712 37.1694 2.39001C38.7631 3.92031 39.6584 5.99583 39.6584 8.16ZM19.6479 19.8016C18.5148 19.459 17.3467 19.2338 16.1636 19.1298C15.4989 19.0691 14.8315 19.0391 14.1637 19.04C2.83275 19.04 0 27.2 0 29.92C0 31.7342 0.943304 32.64 2.83275 32.64H14.7756C14.3557 31.7909 14.1462 30.8599 14.1637 29.92C14.1637 27.1728 15.2317 24.3658 17.2514 22.0211C17.9398 21.2214 18.7414 20.4734 19.6479 19.8016ZM13.9371 21.76C12.2606 24.1788 11.3549 27.0145 11.331 29.92H2.83275C2.83275 29.2128 3.29732 27.1184 4.98563 25.2307C6.52948 23.5008 9.21209 21.8144 13.9371 21.7627V21.76ZM4.24912 9.52C4.24912 7.35583 5.14446 5.2803 6.73819 3.75001C8.33192 2.21971 10.4935 1.36 12.7474 1.36C15.0012 1.36 17.1628 2.21971 18.7565 3.75001C20.3502 5.2803 21.2456 7.35583 21.2456 9.52C21.2456 11.6842 20.3502 13.7597 18.7565 15.29C17.1628 16.8203 15.0012 17.68 12.7474 17.68C10.4935 17.68 8.33192 16.8203 6.73819 15.29C5.14446 13.7597 4.24912 11.6842 4.24912 9.52ZM12.7474 4.08C11.2448 4.08 9.80373 4.65314 8.74125 5.67334C7.67876 6.69354 7.08186 8.07722 7.08186 9.52C7.08186 10.9628 7.67876 12.3465 8.74125 13.3667C9.80373 14.3869 11.2448 14.96 12.7474 14.96C14.2499 14.96 15.691 14.3869 16.7535 13.3667C17.8159 12.3465 18.4128 10.9628 18.4128 9.52C18.4128 8.07722 17.8159 6.69354 16.7535 5.67334C15.691 4.65314 14.2499 4.08 12.7474 4.08Z" fill="#00778B"/>
</svg>
