<svg width="30" height="30" viewBox="0 0 30 30" fill="none" xmlns="http://www.w3.org/2000/svg">
<path d="M29.3226 15C29.3226 23.0204 22.9904 29.5 15.2062 29.5C7.4221 29.5 1.08984 23.0204 1.08984 15C1.08984 6.97958 7.4221 0.5 15.2062 0.5C22.9904 0.5 29.3226 6.97958 29.3226 15Z" stroke="#696969"/>
<path d="M11.7622 20.3737C10.9219 20.3737 10.2344 19.6681 10.2344 18.8058V10.7532C10.2344 9.89082 10.9219 9.1853 11.7622 9.1853C12.0241 9.1853 12.286 9.26374 12.5261 9.39812L19.3141 13.43C19.7943 13.71 20.078 14.2139 20.078 14.7852C20.078 15.3452 19.7943 15.8604 19.3141 16.1404L12.5261 20.1611C12.286 20.2954 12.0241 20.3739 11.7622 20.3739V20.3737ZM11.7622 10.4844C11.653 10.4844 11.5003 10.574 11.5003 10.7532V18.8057C11.5003 18.985 11.653 19.0746 11.7622 19.0746C11.8058 19.0746 11.8495 19.0634 11.8931 19.041L18.6812 15.0091C18.7903 14.9419 18.8121 14.8411 18.8121 14.7739C18.8121 14.7067 18.7903 14.6059 18.6812 14.5386L11.8931 10.5067C11.8495 10.4956 11.8058 10.4844 11.7622 10.4844V10.4844Z" fill="#696969"/>
</svg>
