<svg width="30" height="30" viewBox="0 0 30 30" fill="none" xmlns="http://www.w3.org/2000/svg">
<path d="M29.3266 15C29.3266 23.0204 22.9943 29.5 15.2102 29.5C7.42601 29.5 1.09375 23.0204 1.09375 15C1.09375 6.97958 7.42601 0.5 15.2102 0.5C22.9943 0.5 29.3266 6.97958 29.3266 15Z" stroke="#696969"/>
<path d="M18.0193 13.7117H15.3744C15.1984 13.7117 15.0364 13.8081 14.9491 13.9634C14.8618 14.1186 14.8618 14.3096 14.9491 14.4648C15.0364 14.6201 15.1984 14.7165 15.3744 14.7165H18.0193C18.1953 14.7165 18.3573 14.6201 18.4446 14.4648C18.5319 14.3096 18.5319 14.1186 18.4446 13.9634C18.3573 13.8081 18.1953 13.7117 18.0193 13.7117Z" fill="#696969" stroke="#696969" stroke-width="0.1"/>
<path d="M18.0193 17.784H15.3744C15.1984 17.784 15.0364 17.8803 14.9491 18.0357C14.8618 18.1908 14.8618 18.3819 14.9491 18.5371C15.0364 18.6924 15.1984 18.7887 15.3744 18.7887H18.0193C18.1953 18.7887 18.3573 18.6924 18.4446 18.5371C18.5319 18.3819 18.5319 18.1908 18.4446 18.0357C18.3573 17.8803 18.1953 17.784 18.0193 17.784Z" fill="#696969" stroke="#696969" stroke-width="0.1"/>
<path d="M13.7386 12.8268C13.5763 12.7819 13.4037 12.8252 13.2804 12.9399H13.2795L13.2648 12.955L12.2898 13.9555L12.1964 13.8597L12.1964 13.8597L12.1962 13.8594C12.072 13.7337 11.8917 13.6848 11.7226 13.7316L11.7225 13.7316C11.5536 13.7785 11.4224 13.9137 11.377 14.0857L11.377 14.0857C11.3318 14.2578 11.3789 14.4417 11.5013 14.5689L11.5015 14.5692L11.9423 15.0215C12.0343 15.116 12.1592 15.1692 12.2898 15.1692C12.4204 15.1692 12.5454 15.116 12.6373 15.0215L13.9598 13.6644L13.96 13.6642C14.0823 13.5369 14.1294 13.353 14.0842 13.181L14.0842 13.1809C14.0388 13.0089 13.9076 12.8737 13.7387 12.8268L13.7386 12.8268Z" fill="#696969" stroke="#696969" stroke-width="0.1"/>
<path d="M13.7386 16.8991C13.5763 16.8542 13.4037 16.8974 13.2804 17.0122H13.2795L13.2648 17.0273L12.2898 18.0278L12.1964 17.9319L12.1964 17.9319L12.1962 17.9317C12.072 17.806 11.8917 17.757 11.7226 17.8038L11.7225 17.8039C11.5536 17.8507 11.4224 17.986 11.377 18.158L11.377 18.158C11.3318 18.33 11.3789 18.514 11.5013 18.6412L11.5015 18.6414L11.9423 19.0938C12.0343 19.1882 12.1592 19.2415 12.2898 19.2415C12.4204 19.2415 12.5454 19.1882 12.6373 19.0938L13.9598 17.7367L13.96 17.7364C14.0823 17.6092 14.1294 17.4253 14.0842 17.2532L14.0842 17.2532C14.0388 17.0812 13.9076 16.946 13.7387 16.8991L13.7386 16.8991Z" fill="#696969" stroke="#696969" stroke-width="0.1"/>
<path d="M18.9188 19.6631L18.9188 19.663C19.1576 19.4182 19.292 19.0857 19.2924 18.7387V10.5959C19.292 10.249 19.1576 9.91651 18.9188 9.67162L18.9188 9.6716C18.6802 9.42665 18.3569 9.28915 18.02 9.28875C18.02 9.28875 18.0199 9.28875 18.0199 9.28875H11.8487L11.8486 9.28875M18.9188 19.6631L10.9139 9.63671C11.1618 9.38225 11.498 9.23916 11.8486 9.23875V9.28875M18.9188 19.6631C18.6802 19.908 18.3568 20.0455 18.0199 20.0459H11.8487C11.5117 20.0455 11.1883 19.908 10.9498 19.6631L10.9497 19.663C10.711 19.4182 10.5766 19.0857 10.5762 18.7388M18.9188 19.6631L10.5762 18.7388M11.8486 9.28875C11.5117 9.28916 11.1883 9.42666 10.9498 9.6716L10.9497 9.67162C10.711 9.91648 10.5765 10.2489 10.5762 10.5959M11.8486 9.28875L10.5762 10.5959M10.5762 10.5959H10.5262L10.5762 10.5959V18.7387L10.5762 18.7388M10.5762 10.5959L10.9139 19.6979C10.666 19.4436 10.5266 19.0985 10.5262 18.7388H10.5762M18.02 8.28398H18.02L11.8486 8.28398L11.8485 8.28398C11.2505 8.28471 10.6775 8.52881 10.2551 8.96241C9.83261 9.39587 9.59523 9.98331 9.59453 10.5958V10.5959L9.59453 18.7388L9.59453 18.7388C9.59523 19.3513 9.8326 19.9388 10.2551 20.3722C10.6775 20.8058 11.2505 21.05 11.8485 21.0507H11.8486H18.02H18.02C18.6181 21.0499 19.1911 20.8058 19.6135 20.3722C20.036 19.9388 20.2733 19.3513 20.274 18.7388V18.7388V10.5959V10.5958C20.2733 9.9833 20.036 9.39586 19.6135 8.96241C19.1911 8.52881 18.6181 8.2847 18.02 8.28398Z" fill="#696969" stroke="#696969" stroke-width="0.1"/>
<path d="M13.6088 11.0973H16.2537C16.4297 11.0973 16.5916 11.001 16.679 10.8457C16.7663 10.6905 16.7663 10.4994 16.679 10.3443C16.5916 10.1889 16.4297 10.0926 16.2537 10.0926H13.6088C13.4327 10.0926 13.2708 10.1889 13.1834 10.3443C13.0961 10.4994 13.0961 10.6905 13.1834 10.8457C13.2708 11.001 13.4327 11.0973 13.6088 11.0973Z" fill="#696969" stroke="#696969" stroke-width="0.1"/>
</svg>
