<svg width="6" height="7" viewBox="0 0 6 7" fill="none" xmlns="http://www.w3.org/2000/svg">
<path d="M5.57031 4.25391C5.64323 4.28516 5.67708 4.34766 5.67188 4.44141C5.66667 4.52995 5.60417 4.67578 5.48438 4.87891C5.36458 5.08724 5.26562 5.21484 5.1875 5.26172C5.11458 5.30859 5.04688 5.30859 4.98438 5.26172L3.32031 4.05078L3.53906 6.09766C3.55469 6.17578 3.52083 6.23568 3.4375 6.27734C3.35417 6.31901 3.19271 6.33984 2.95312 6.33984C2.71354 6.33984 2.55208 6.31901 2.46875 6.27734C2.38542 6.23568 2.35156 6.17578 2.36719 6.09766L2.58594 4.05078L0.929688 5.26172C0.867188 5.30859 0.796875 5.30859 0.71875 5.26172C0.640625 5.21484 0.541667 5.08724 0.421875 4.87891C0.302083 4.67578 0.239583 4.52995 0.234375 4.44141C0.234375 4.34766 0.270833 4.28516 0.34375 4.25391L2.22656 3.41797L0.34375 2.58984C0.270833 2.55339 0.234375 2.49089 0.234375 2.40234C0.239583 2.30859 0.302083 2.16016 0.421875 1.95703C0.541667 1.75391 0.640625 1.62891 0.71875 1.58203C0.796875 1.53516 0.867188 1.53516 0.929688 1.58203L2.58594 2.78516L2.36719 0.746094C2.35156 0.66276 2.38542 0.60026 2.46875 0.558594C2.55208 0.516927 2.71354 0.496094 2.95312 0.496094C3.19271 0.496094 3.35417 0.516927 3.4375 0.558594C3.52083 0.60026 3.55469 0.66276 3.53906 0.746094L3.32031 2.78516L4.98438 1.58203C5.04688 1.53516 5.11458 1.53516 5.1875 1.58203C5.26562 1.62891 5.36458 1.75651 5.48438 1.96484C5.60417 2.16276 5.66667 2.30859 5.67188 2.40234C5.67708 2.49089 5.64323 2.55339 5.57031 2.58984L3.6875 3.41797L5.57031 4.25391Z" fill="#F73636"/>
</svg>
