<svg width="18" height="14" viewBox="0 0 18 14" fill="none" xmlns="http://www.w3.org/2000/svg">
<path d="M11.8125 7.07692C11.8125 7.82284 11.5162 8.53821 10.9887 9.06566C10.4613 9.5931 9.74592 9.88942 9 9.88942C8.25408 9.88942 7.53871 9.5931 7.01126 9.06566C6.48382 8.53821 6.1875 7.82284 6.1875 7.07692C6.1875 6.331 6.48382 5.61563 7.01126 5.08818C7.53871 4.56074 8.25408 4.26442 9 4.26442C9.74592 4.26442 10.4613 4.56074 10.9887 5.08818C11.5162 5.61563 11.8125 6.331 11.8125 7.07692Z" fill="#A3A3A3"/>
<path d="M0 7.07692C0 7.07692 3.375 0.88942 9 0.88942C14.625 0.88942 18 7.07692 18 7.07692C18 7.07692 14.625 13.2644 9 13.2644C3.375 13.2644 0 7.07692 0 7.07692ZM9 11.0144C10.0443 11.0144 11.0458 10.5996 11.7842 9.86115C12.5227 9.12273 12.9375 8.12121 12.9375 7.07692C12.9375 6.03263 12.5227 5.03111 11.7842 4.29269C11.0458 3.55426 10.0443 3.13942 9 3.13942C7.95571 3.13942 6.95419 3.55426 6.21577 4.29269C5.47734 5.03111 5.0625 6.03263 5.0625 7.07692C5.0625 8.12121 5.47734 9.12273 6.21577 9.86115C6.95419 10.5996 7.95571 11.0144 9 11.0144Z" fill="#A3A3A3"/>
</svg>
